<svg xmlns="http://www.w3.org/2000/svg" xmlns:xlink="http://www.w3.org/1999/xlink" width="620" zoomAndPan="magnify" viewBox="0 0 464.87997 209.999996" height="280" preserveAspectRatio="xMidYMid meet" version="1.0"><defs><g><g id="id1"/><g id="id2"/></g><clipPath id="id3"><path d="M 0 0.0273438 L 464.761719 0.0273438 L 464.761719 209.972656 L 0 209.972656 Z M 0 0.0273438 " clip-rule="nonzero"/></clipPath></defs><g clip-path="url(#id3)"><path fill="rgb(100%, 100%, 100%)" d="M 0 0.0273438 L 464.878906 0.0273438 L 464.878906 209.972656 L 0 209.972656 Z M 0 0.0273438 " fill-opacity="1" fill-rule="nonzero"/><path fill="rgb(100%, 100%, 100%)" d="M 0 0.0273438 L 464.878906 0.0273438 L 464.878906 209.972656 L 0 209.972656 Z M 0 0.0273438 " fill-opacity="1" fill-rule="nonzero"/><path fill="rgb(100%, 100%, 100%)" d="M 0 0.0273438 L 464.878906 0.0273438 L 464.878906 209.972656 L 0 209.972656 Z M 0 0.0273438 " fill-opacity="1" fill-rule="nonzero"/></g><g fill="rgb(50.588989%, 75.289917%, 16.079712%)" fill-opacity="1"><g transform="translate(197.846164, 75.007518)"><g><path d="M 11.484375 -11.03125 L 6.734375 -11.03125 C 6.328125 -11.03125 6.039062 -10.960938 5.875 -10.828125 C 5.707031 -10.703125 5.597656 -10.457031 5.546875 -10.09375 L 5.28125 -8.15625 L 10.34375 -8.15625 L 10 -5.609375 L 4.921875 -5.609375 L 4.125 0 L 0.34375 0 L 1.875 -11.03125 C 2.007812 -11.957031 2.378906 -12.675781 2.984375 -13.1875 C 3.597656 -13.707031 4.378906 -13.96875 5.328125 -13.96875 C 8.503906 -13.96875 10.695312 -13.878906 11.90625 -13.703125 Z M 11.484375 -11.03125 "/></g></g></g><g fill="rgb(50.588989%, 75.289917%, 16.079712%)" fill-opacity="1"><g transform="translate(208.125131, 75.007518)"><g><path d="M 13.953125 -13.90625 L 12.734375 -5.578125 C 12.429688 -3.390625 11.816406 -1.863281 10.890625 -1 C 9.960938 -0.144531 8.457031 0.28125 6.375 0.28125 C 4.289062 0.28125 2.8125 -0.1875 1.9375 -1.125 C 1.0625 -2.070312 0.765625 -3.601562 1.046875 -5.71875 L 2.21875 -13.90625 L 6 -13.90625 L 4.8125 -5.578125 C 4.644531 -4.421875 4.664062 -3.640625 4.875 -3.234375 C 5.09375 -2.828125 5.613281 -2.625 6.4375 -2.625 C 7.28125 -2.625 7.867188 -2.835938 8.203125 -3.265625 C 8.535156 -3.691406 8.796875 -4.507812 8.984375 -5.71875 L 10.15625 -13.90625 Z M 13.953125 -13.90625 "/></g></g></g><g fill="rgb(50.588989%, 75.289917%, 16.079712%)" fill-opacity="1"><g transform="translate(221.02423, 75.007518)"><g><path d="M 12.703125 -10.984375 L 8.734375 -10.984375 L 7.171875 0 L 3.390625 0 L 4.9375 -10.984375 L 0.96875 -10.984375 L 1.375 -13.90625 L 13.09375 -13.90625 Z M 12.703125 -10.984375 "/></g></g></g><g fill="rgb(50.588989%, 75.289917%, 16.079712%)" fill-opacity="1"><g transform="translate(232.250478, 75.007518)"><g><path d="M 10.71875 -3.140625 L 10.859375 -0.359375 C 9.554688 0.0351562 8.003906 0.234375 6.203125 0.234375 C 3.953125 0.234375 2.421875 -0.320312 1.609375 -1.4375 C 0.796875 -2.550781 0.578125 -4.4375 0.953125 -7.09375 C 1.328125 -9.820312 2.003906 -11.679688 2.984375 -12.671875 C 3.960938 -13.660156 5.582031 -14.15625 7.84375 -14.15625 C 9.519531 -14.15625 10.976562 -13.976562 12.21875 -13.625 L 11.765625 -10.859375 C 10.359375 -10.898438 8.988281 -10.921875 7.65625 -10.921875 C 7.050781 -10.921875 6.59375 -10.828125 6.28125 -10.640625 C 5.96875 -10.453125 5.695312 -10.066406 5.46875 -9.484375 C 5.25 -8.898438 5.054688 -8.007812 4.890625 -6.8125 C 4.671875 -5.28125 4.648438 -4.257812 4.828125 -3.75 C 5.003906 -3.238281 5.519531 -2.984375 6.375 -2.984375 C 8.144531 -2.984375 9.59375 -3.035156 10.71875 -3.140625 Z M 10.71875 -3.140625 "/></g></g></g><g fill="rgb(50.588989%, 75.289917%, 16.079712%)" fill-opacity="1"><g transform="translate(243.214709, 75.007518)"><g><path d="M 7.828125 -14.1875 C 10.109375 -14.1875 11.6875 -13.644531 12.5625 -12.5625 C 13.4375 -11.476562 13.679688 -9.5625 13.296875 -6.8125 C 13.109375 -5.40625 12.84375 -4.242188 12.5 -3.328125 C 12.164062 -2.410156 11.710938 -1.679688 11.140625 -1.140625 C 10.566406 -0.609375 9.90625 -0.238281 9.15625 -0.03125 C 8.414062 0.175781 7.488281 0.28125 6.375 0.28125 C 4.039062 0.28125 2.457031 -0.25 1.625 -1.3125 C 0.800781 -2.382812 0.578125 -4.3125 0.953125 -7.09375 C 1.328125 -9.820312 2.015625 -11.6875 3.015625 -12.6875 C 4.023438 -13.6875 5.628906 -14.1875 7.828125 -14.1875 Z M 7.765625 -11.28125 C 6.878906 -11.28125 6.25 -10.988281 5.875 -10.40625 C 5.507812 -9.820312 5.179688 -8.625 4.890625 -6.8125 C 4.648438 -5.113281 4.632812 -3.988281 4.84375 -3.4375 C 5.050781 -2.894531 5.585938 -2.625 6.453125 -2.625 C 7.347656 -2.625 7.984375 -2.914062 8.359375 -3.5 C 8.734375 -4.082031 9.054688 -5.28125 9.328125 -7.09375 C 9.566406 -8.8125 9.582031 -9.9375 9.375 -10.46875 C 9.164062 -11.007812 8.628906 -11.28125 7.765625 -11.28125 Z M 7.765625 -11.28125 "/></g></g></g><g fill="rgb(50.588989%, 75.289917%, 16.079712%)" fill-opacity="1"><g transform="translate(256.133957, 75.007518)"><g><path d="M 6.0625 -13.90625 L 4.609375 -3.9375 C 4.585938 -3.613281 4.632812 -3.378906 4.75 -3.234375 C 4.863281 -3.085938 5.085938 -3.015625 5.421875 -3.015625 L 10.09375 -3.015625 L 10.015625 -0.15625 C 8.804688 -0.0078125 6.710938 0.0625 3.734375 0.0625 C 2.734375 0.0625 1.957031 -0.234375 1.40625 -0.828125 C 0.851562 -1.421875 0.644531 -2.203125 0.78125 -3.171875 L 2.28125 -13.90625 Z M 6.0625 -13.90625 "/></g></g></g><g fill="rgb(18.818665%, 18.818665%, 18.818665%)" fill-opacity="1"><g transform="translate(197.587232, 52.613263)"><g><path d="M 3.078125 -5.484375 C 3.585938 -5.484375 4.03125 -5.398438 4.40625 -5.234375 C 4.78125 -5.066406 5.066406 -4.828125 5.265625 -4.515625 C 5.472656 -4.203125 5.578125 -3.832031 5.578125 -3.40625 C 5.578125 -2.988281 5.472656 -2.625 5.265625 -2.3125 C 5.066406 -2 4.78125 -1.757812 4.40625 -1.59375 C 4.03125 -1.425781 3.585938 -1.34375 3.078125 -1.34375 L 2.296875 -1.34375 L 2.296875 0 L 0.453125 0 L 0.453125 -5.484375 Z M 2.96875 -2.765625 C 3.21875 -2.765625 3.40625 -2.820312 3.53125 -2.9375 C 3.65625 -3.050781 3.71875 -3.207031 3.71875 -3.40625 C 3.71875 -3.613281 3.65625 -3.773438 3.53125 -3.890625 C 3.40625 -4.003906 3.21875 -4.0625 2.96875 -4.0625 L 2.296875 -4.0625 L 2.296875 -2.765625 Z M 2.96875 -2.765625 "/></g></g></g><g fill="rgb(18.818665%, 18.818665%, 18.818665%)" fill-opacity="1"><g transform="translate(204.191401, 52.613263)"><g><path d="M 2.796875 -1.375 L 2.296875 -1.375 L 2.296875 0 L 0.453125 0 L 0.453125 -5.484375 L 3.078125 -5.484375 C 3.585938 -5.484375 4.03125 -5.398438 4.40625 -5.234375 C 4.78125 -5.066406 5.066406 -4.828125 5.265625 -4.515625 C 5.472656 -4.203125 5.578125 -3.832031 5.578125 -3.40625 C 5.578125 -3.019531 5.488281 -2.679688 5.3125 -2.390625 C 5.132812 -2.097656 4.878906 -1.863281 4.546875 -1.6875 L 5.703125 0 L 3.71875 0 Z M 3.71875 -3.40625 C 3.71875 -3.613281 3.65625 -3.773438 3.53125 -3.890625 C 3.40625 -4.003906 3.21875 -4.0625 2.96875 -4.0625 L 2.296875 -4.0625 L 2.296875 -2.765625 L 2.96875 -2.765625 C 3.21875 -2.765625 3.40625 -2.820312 3.53125 -2.9375 C 3.65625 -3.050781 3.71875 -3.207031 3.71875 -3.40625 Z M 3.71875 -3.40625 "/></g></g></g><g fill="rgb(18.818665%, 18.818665%, 18.818665%)" fill-opacity="1"><g transform="translate(210.811235, 52.613263)"><g><path d="M 3.3125 0.125 C 2.726562 0.125 2.203125 0.00390625 1.734375 -0.234375 C 1.265625 -0.484375 0.894531 -0.828125 0.625 -1.265625 C 0.363281 -1.703125 0.234375 -2.191406 0.234375 -2.734375 C 0.234375 -3.285156 0.363281 -3.78125 0.625 -4.21875 C 0.894531 -4.65625 1.265625 -4.992188 1.734375 -5.234375 C 2.203125 -5.484375 2.726562 -5.609375 3.3125 -5.609375 C 3.90625 -5.609375 4.4375 -5.484375 4.90625 -5.234375 C 5.375 -4.992188 5.738281 -4.65625 6 -4.21875 C 6.269531 -3.78125 6.40625 -3.285156 6.40625 -2.734375 C 6.40625 -2.191406 6.269531 -1.703125 6 -1.265625 C 5.738281 -0.828125 5.375 -0.484375 4.90625 -0.234375 C 4.4375 0.00390625 3.90625 0.125 3.3125 0.125 Z M 3.3125 -1.375 C 3.539062 -1.375 3.75 -1.425781 3.9375 -1.53125 C 4.125 -1.644531 4.269531 -1.804688 4.375 -2.015625 C 4.488281 -2.222656 4.546875 -2.460938 4.546875 -2.734375 C 4.546875 -3.015625 4.488281 -3.253906 4.375 -3.453125 C 4.269531 -3.660156 4.125 -3.820312 3.9375 -3.9375 C 3.75 -4.050781 3.539062 -4.109375 3.3125 -4.109375 C 3.082031 -4.109375 2.875 -4.050781 2.6875 -3.9375 C 2.507812 -3.820312 2.363281 -3.660156 2.25 -3.453125 C 2.144531 -3.253906 2.09375 -3.015625 2.09375 -2.734375 C 2.09375 -2.460938 2.144531 -2.222656 2.25 -2.015625 C 2.363281 -1.804688 2.507812 -1.644531 2.6875 -1.53125 C 2.875 -1.425781 3.082031 -1.375 3.3125 -1.375 Z M 3.3125 -1.375 "/></g></g></g><g fill="rgb(18.818665%, 18.818665%, 18.818665%)" fill-opacity="1"><g transform="translate(218.237933, 52.613263)"><g><path d="M 5.84375 -5.484375 L 5.84375 0 L 4.328125 0 L 2.25 -2.484375 L 2.25 0 L 0.453125 0 L 0.453125 -5.484375 L 1.96875 -5.484375 L 4.046875 -2.984375 L 4.046875 -5.484375 Z M 5.84375 -5.484375 "/></g></g></g><g fill="rgb(18.818665%, 18.818665%, 18.818665%)" fill-opacity="1"><g transform="translate(225.319953, 52.613263)"><g><path d="M 3.3125 0.125 C 2.726562 0.125 2.203125 0.00390625 1.734375 -0.234375 C 1.265625 -0.484375 0.894531 -0.828125 0.625 -1.265625 C 0.363281 -1.703125 0.234375 -2.191406 0.234375 -2.734375 C 0.234375 -3.285156 0.363281 -3.78125 0.625 -4.21875 C 0.894531 -4.65625 1.265625 -4.992188 1.734375 -5.234375 C 2.203125 -5.484375 2.726562 -5.609375 3.3125 -5.609375 C 3.90625 -5.609375 4.4375 -5.484375 4.90625 -5.234375 C 5.375 -4.992188 5.738281 -4.65625 6 -4.21875 C 6.269531 -3.78125 6.40625 -3.285156 6.40625 -2.734375 C 6.40625 -2.191406 6.269531 -1.703125 6 -1.265625 C 5.738281 -0.828125 5.375 -0.484375 4.90625 -0.234375 C 4.4375 0.00390625 3.90625 0.125 3.3125 0.125 Z M 3.3125 -1.375 C 3.539062 -1.375 3.75 -1.425781 3.9375 -1.53125 C 4.125 -1.644531 4.269531 -1.804688 4.375 -2.015625 C 4.488281 -2.222656 4.546875 -2.460938 4.546875 -2.734375 C 4.546875 -3.015625 4.488281 -3.253906 4.375 -3.453125 C 4.269531 -3.660156 4.125 -3.820312 3.9375 -3.9375 C 3.75 -4.050781 3.539062 -4.109375 3.3125 -4.109375 C 3.082031 -4.109375 2.875 -4.050781 2.6875 -3.9375 C 2.507812 -3.820312 2.363281 -3.660156 2.25 -3.453125 C 2.144531 -3.253906 2.09375 -3.015625 2.09375 -2.734375 C 2.09375 -2.460938 2.144531 -2.222656 2.25 -2.015625 C 2.363281 -1.804688 2.507812 -1.644531 2.6875 -1.53125 C 2.875 -1.425781 3.082031 -1.375 3.3125 -1.375 Z M 3.3125 -1.375 "/></g></g></g><g fill="rgb(18.818665%, 18.818665%, 18.818665%)" fill-opacity="1"><g transform="translate(232.746651, 52.613263)"><g><path d="M 2.484375 0.125 C 2.035156 0.125 1.59375 0.0703125 1.15625 -0.03125 C 0.726562 -0.132812 0.378906 -0.269531 0.109375 -0.4375 L 0.703125 -1.78125 C 0.960938 -1.632812 1.253906 -1.515625 1.578125 -1.421875 C 1.898438 -1.328125 2.207031 -1.28125 2.5 -1.28125 C 2.757812 -1.28125 2.941406 -1.304688 3.046875 -1.359375 C 3.160156 -1.410156 3.21875 -1.484375 3.21875 -1.578125 C 3.21875 -1.691406 3.144531 -1.773438 3 -1.828125 C 2.851562 -1.890625 2.617188 -1.957031 2.296875 -2.03125 C 1.867188 -2.113281 1.515625 -2.207031 1.234375 -2.3125 C 0.953125 -2.414062 0.707031 -2.582031 0.5 -2.8125 C 0.289062 -3.039062 0.1875 -3.351562 0.1875 -3.75 C 0.1875 -4.101562 0.28125 -4.421875 0.46875 -4.703125 C 0.664062 -4.984375 0.957031 -5.203125 1.34375 -5.359375 C 1.726562 -5.523438 2.191406 -5.609375 2.734375 -5.609375 C 3.109375 -5.609375 3.476562 -5.566406 3.84375 -5.484375 C 4.207031 -5.398438 4.53125 -5.28125 4.8125 -5.125 L 4.25 -3.78125 C 3.707031 -4.0625 3.195312 -4.203125 2.71875 -4.203125 C 2.25 -4.203125 2.015625 -4.082031 2.015625 -3.84375 C 2.015625 -3.738281 2.082031 -3.65625 2.21875 -3.59375 C 2.363281 -3.539062 2.597656 -3.484375 2.921875 -3.421875 C 3.335938 -3.347656 3.6875 -3.257812 3.96875 -3.15625 C 4.257812 -3.050781 4.507812 -2.882812 4.71875 -2.65625 C 4.9375 -2.425781 5.046875 -2.113281 5.046875 -1.71875 C 5.046875 -1.375 4.945312 -1.0625 4.75 -0.78125 C 4.5625 -0.507812 4.273438 -0.289062 3.890625 -0.125 C 3.503906 0.0390625 3.035156 0.125 2.484375 0.125 Z M 2.484375 0.125 "/></g></g></g><g fill="rgb(18.818665%, 18.818665%, 18.818665%)" fill-opacity="1"><g transform="translate(238.677126, 52.613263)"><g><path d="M 1.640625 -4.046875 L 0.03125 -4.046875 L 0.03125 -5.484375 L 5.09375 -5.484375 L 5.09375 -4.046875 L 3.484375 -4.046875 L 3.484375 0 L 1.640625 0 Z M 1.640625 -4.046875 "/></g></g></g><g fill="rgb(18.818665%, 18.818665%, 18.818665%)" fill-opacity="1"><g transform="translate(244.5841, 52.613263)"><g><path d="M 0.453125 -5.484375 L 2.296875 -5.484375 L 2.296875 0 L 0.453125 0 Z M 0.453125 -5.484375 "/></g></g></g><g fill="rgb(18.818665%, 18.818665%, 18.818665%)" fill-opacity="1"><g transform="translate(248.109662, 52.613263)"><g><path d="M 3.28125 0.125 C 2.695312 0.125 2.171875 0.00390625 1.703125 -0.234375 C 1.242188 -0.484375 0.882812 -0.820312 0.625 -1.25 C 0.363281 -1.6875 0.234375 -2.179688 0.234375 -2.734375 C 0.234375 -3.285156 0.363281 -3.78125 0.625 -4.21875 C 0.882812 -4.65625 1.242188 -4.992188 1.703125 -5.234375 C 2.171875 -5.484375 2.695312 -5.609375 3.28125 -5.609375 C 3.8125 -5.609375 4.285156 -5.515625 4.703125 -5.328125 C 5.117188 -5.140625 5.460938 -4.867188 5.734375 -4.515625 L 4.578125 -3.46875 C 4.234375 -3.894531 3.832031 -4.109375 3.375 -4.109375 C 2.988281 -4.109375 2.675781 -3.984375 2.4375 -3.734375 C 2.207031 -3.484375 2.09375 -3.148438 2.09375 -2.734375 C 2.09375 -2.316406 2.207031 -1.984375 2.4375 -1.734375 C 2.675781 -1.492188 2.988281 -1.375 3.375 -1.375 C 3.832031 -1.375 4.234375 -1.585938 4.578125 -2.015625 L 5.734375 -0.96875 C 5.460938 -0.613281 5.117188 -0.34375 4.703125 -0.15625 C 4.285156 0.03125 3.8125 0.125 3.28125 0.125 Z M 3.28125 0.125 "/></g></g></g><g fill="rgb(18.818665%, 18.818665%, 18.818665%)" fill-opacity="1"><g transform="translate(254.721663, 52.613263)"><g><path d="M 3.3125 0.125 C 2.726562 0.125 2.203125 0.00390625 1.734375 -0.234375 C 1.265625 -0.484375 0.894531 -0.828125 0.625 -1.265625 C 0.363281 -1.703125 0.234375 -2.191406 0.234375 -2.734375 C 0.234375 -3.285156 0.363281 -3.78125 0.625 -4.21875 C 0.894531 -4.65625 1.265625 -4.992188 1.734375 -5.234375 C 2.203125 -5.484375 2.726562 -5.609375 3.3125 -5.609375 C 3.90625 -5.609375 4.4375 -5.484375 4.90625 -5.234375 C 5.375 -4.992188 5.738281 -4.65625 6 -4.21875 C 6.269531 -3.78125 6.40625 -3.285156 6.40625 -2.734375 C 6.40625 -2.191406 6.269531 -1.703125 6 -1.265625 C 5.738281 -0.828125 5.375 -0.484375 4.90625 -0.234375 C 4.4375 0.00390625 3.90625 0.125 3.3125 0.125 Z M 3.3125 -1.375 C 3.539062 -1.375 3.75 -1.425781 3.9375 -1.53125 C 4.125 -1.644531 4.269531 -1.804688 4.375 -2.015625 C 4.488281 -2.222656 4.546875 -2.460938 4.546875 -2.734375 C 4.546875 -3.015625 4.488281 -3.253906 4.375 -3.453125 C 4.269531 -3.660156 4.125 -3.820312 3.9375 -3.9375 C 3.75 -4.050781 3.539062 -4.109375 3.3125 -4.109375 C 3.082031 -4.109375 2.875 -4.050781 2.6875 -3.9375 C 2.507812 -3.820312 2.363281 -3.660156 2.25 -3.453125 C 2.144531 -3.253906 2.09375 -3.015625 2.09375 -2.734375 C 2.09375 -2.460938 2.144531 -2.222656 2.25 -2.015625 C 2.363281 -1.804688 2.507812 -1.644531 2.6875 -1.53125 C 2.875 -1.425781 3.082031 -1.375 3.3125 -1.375 Z M 3.3125 -1.375 "/></g></g></g><g fill="rgb(18.818665%, 18.818665%, 18.818665%)" fill-opacity="1"><g transform="translate(262.148361, 52.613263)"><g><path d="M 2.484375 0.125 C 2.035156 0.125 1.59375 0.0703125 1.15625 -0.03125 C 0.726562 -0.132812 0.378906 -0.269531 0.109375 -0.4375 L 0.703125 -1.78125 C 0.960938 -1.632812 1.253906 -1.515625 1.578125 -1.421875 C 1.898438 -1.328125 2.207031 -1.28125 2.5 -1.28125 C 2.757812 -1.28125 2.941406 -1.304688 3.046875 -1.359375 C 3.160156 -1.410156 3.21875 -1.484375 3.21875 -1.578125 C 3.21875 -1.691406 3.144531 -1.773438 3 -1.828125 C 2.851562 -1.890625 2.617188 -1.957031 2.296875 -2.03125 C 1.867188 -2.113281 1.515625 -2.207031 1.234375 -2.3125 C 0.953125 -2.414062 0.707031 -2.582031 0.5 -2.8125 C 0.289062 -3.039062 0.1875 -3.351562 0.1875 -3.75 C 0.1875 -4.101562 0.28125 -4.421875 0.46875 -4.703125 C 0.664062 -4.984375 0.957031 -5.203125 1.34375 -5.359375 C 1.726562 -5.523438 2.191406 -5.609375 2.734375 -5.609375 C 3.109375 -5.609375 3.476562 -5.566406 3.84375 -5.484375 C 4.207031 -5.398438 4.53125 -5.28125 4.8125 -5.125 L 4.25 -3.78125 C 3.707031 -4.0625 3.195312 -4.203125 2.71875 -4.203125 C 2.25 -4.203125 2.015625 -4.082031 2.015625 -3.84375 C 2.015625 -3.738281 2.082031 -3.65625 2.21875 -3.59375 C 2.363281 -3.539062 2.597656 -3.484375 2.921875 -3.421875 C 3.335938 -3.347656 3.6875 -3.257812 3.96875 -3.15625 C 4.257812 -3.050781 4.507812 -2.882812 4.71875 -2.65625 C 4.9375 -2.425781 5.046875 -2.113281 5.046875 -1.71875 C 5.046875 -1.375 4.945312 -1.0625 4.75 -0.78125 C 4.5625 -0.507812 4.273438 -0.289062 3.890625 -0.125 C 3.503906 0.0390625 3.035156 0.125 2.484375 0.125 Z M 2.484375 0.125 "/></g></g></g></svg>