<?xml version="1.0" encoding="utf-8"?>
<!-- Generator: Adobe Illustrator 22.1.0, SVG Export Plug-In . SVG Version: 6.00 Build 0)  -->
<svg version="1.1" id="Capa_1" xmlns="http://www.w3.org/2000/svg" xmlns:xlink="http://www.w3.org/1999/xlink" x="0px" y="0px"
	 viewBox="0 0 58 52" style="enable-background:new 0 0 58 52;" xml:space="preserve">
<style type="text/css">
	.st0{fill:#E40913;}
</style>
<g>
	<g id="Capa_1_1_">
		<g>
			<g>
				<g>
					<path class="st0" d="M3.6,41.4c1.3-0.2,2.1-0.2,3.5-0.2c0,1,0,1.5,0,2.5c-1.3,0.2-2.1,0.2-3.5,0.3c0,2.8,0,4.1,0,6.8
						c-1,0.2-1.5,0.2-2.5,0.3c0-6.8,0-10.1,0-16.8c2.8,0,4.1,0,6.9,0c0,1,0,1.5,0,2.3c-1.8,0-2.6,0-4.5,0.2
						C3.6,38.6,3.6,39.6,3.6,41.4z"/>
					<path class="st0" d="M12.5,33.9c0,4.8,0,7.1,0,11.9c0,1,0.7,1.3,1.3,1.3c0.7,0,1.3-0.7,1.3-1.5c0-4.6,0-7.1,0-11.7
						c1,0,1.5,0,2.5,0c0,4.6,0,6.8,0,11.4c0,2.5-1.3,3.8-4,4.1c-2.5,0.2-3.8-1-3.8-3.6c0-4.8,0-7.1,0-11.9
						C11.1,33.9,11.6,33.9,12.5,33.9z"/>
					<path class="st0" d="M20.3,33.9c1,0,1.5,0,2.5,0c0,5,0,7.6,0,12.6c1.8,0,2.6,0,4.5-0.2c0,0.8,0,1.3,0,2.1c-2.8,0-4.1,0-6.9,0.2
						C20.3,43,20.3,39.9,20.3,33.9z"/>
					<path class="st0" d="M29.2,33.9c1,0,1.5,0,2.5,0c0,5,0,7.4,0,12.6c1.8,0,2.6,0,4.5,0.2c0,0.8,0,1.3,0,2.1
						c-2.8-0.2-4.1-0.2-6.9-0.2C29.2,42.9,29.2,39.9,29.2,33.9z"/>
					<path class="st0" d="M40.8,49.1c-1,0-1.5-0.2-2.5-0.2c0-5.9,0-8.9,0-14.9c1,0,1.5,0,2.5,0c0,2.6,0,4,0,6.6c1.3,0,1.8,0,3.1,0.2
						c0-2.6,0-4,0-6.6c1.2,0,1.7,0,2.6,0c0,6.3,0,9.2,0,15.5c-1.2-0.2-1.7-0.2-2.6-0.2c0-2.6,0-4,0-6.6c-1.3,0-1.8-0.2-3.1-0.2
						C40.8,45.2,40.8,46.5,40.8,49.1z"/>
					<path class="st0" d="M48.9,33.9c1.7,0,2.5,0,4.3,0c2.5,0,3.8,1.5,3.8,4.3c0,3.5,0,5.1,0,8.6c0,2.6-1.3,4-3.8,3.6
						c-1.7-0.2-2.5-0.3-4.3-0.5C48.9,43.5,48.9,40.4,48.9,33.9z M51.7,36.4c0,4.6,0,6.9,0,11.6c0.7,0,1,0.2,1.5,0.2
						c0.8,0.2,1.3-0.3,1.3-1.3c0-3.5,0-5.1,0-8.6c0-1.2-0.7-1.5-1.3-1.5s-1,0-1.5,0C51.7,36.6,51.7,36.4,51.7,36.4z"/>
				</g>
			</g>
		</g>
	</g>
	<g>
		<path class="st0" d="M14.1,8.5v2.7h-3.2V8.3c0-2.7-1.1-4.4-3.5-4.4C5,3.9,3.9,5.6,3.9,8.3v16c0,2.7,1.1,4.4,3.5,4.4
			c2.4,0,3.5-1.6,3.5-4.4v-3.9h3.2v3.8c0,4.6-2.1,7.6-6.8,7.6c-4.6,0-6.7-3-6.7-7.6V8.5c0-4.6,2.1-7.6,6.7-7.6
			C11.9,0.9,14.1,3.9,14.1,8.5z"/>
		<path class="st0" d="M21.7,1.2v30.2h-3.3V1.2H21.7z"/>
		<path class="st0" d="M29.4,31.4h-3V1.2h4.2L37.6,23V1.2h3v30.2H37L29.4,7V31.4z"/>
		<path class="st0" d="M55.9,14.5v3h-7.3v10.7h9v3.1H45.2V1.2h12.3v3.1h-9v10.3H55.9z"/>
	</g>
</g>
</svg>
