<?xml version="1.0" encoding="utf-8"?>
<!-- Generator: Adobe Illustrator 22.1.0, SVG Export Plug-In . SVG Version: 6.00 Build 0)  -->
<svg version="1.1" id="Capa_1" xmlns="http://www.w3.org/2000/svg" xmlns:xlink="http://www.w3.org/1999/xlink" x="0px" y="0px"
	 viewBox="0 0 300 300" style="enable-background:new 0 0 300 300;" xml:space="preserve">
<style type="text/css">
	.st0{fill:#31274D;}
	.st1{fill:#1DB954;}
</style>
<g>
	<path class="st0" d="M55.6,143.4v8.3h-5.2v-0.3c-1.1,0.5-2.2,0.7-3.3,0.7c-2.3,0-4.3-0.8-6-2.5s-2.5-3.7-2.5-6.1
		c0-0.8,0.1-1.7,0.4-2.5h5.8c-0.6,0.7-0.9,1.5-0.9,2.5s0.3,1.8,0.9,2.5c0.6,0.7,1.4,1,2.3,1c0.9,0,1.7-0.3,2.3-1
		c0.6-0.7,0.9-1.5,0.9-2.5H55.6z M51.6,136.1c1.4,0.9,2.4,2.1,3.1,3.5H39.5c0.7-1.5,1.8-2.6,3.1-3.5c1.4-0.9,2.9-1.3,4.5-1.3
		S50.2,135.2,51.6,136.1z"/>
	<path class="st0" d="M57.1,143.4c0-0.8,0.1-1.7,0.4-2.5h5.8c-0.6,0.7-0.9,1.5-0.9,2.5s0.3,1.8,0.9,2.5c0.6,0.7,1.4,1,2.3,1
		c0.9,0,1.7-0.3,2.3-1c0.6-0.7,0.9-1.5,0.9-2.5s-0.3-1.8-0.9-2.5h5.8c0.2,0.8,0.4,1.6,0.4,2.5c0,2.4-0.8,4.4-2.5,6.1s-3.7,2.5-6,2.5
		c-2.3,0-4.3-0.8-6-2.5S57.1,145.7,57.1,143.4z M58,139.6c0.7-1.5,1.8-2.6,3.1-3.5c1.4-0.9,2.9-1.3,4.5-1.3s3.1,0.4,4.5,1.3
		s2.4,2.1,3.1,3.5H58z"/>
	<path class="st0" d="M75.8,143.4c0-0.8,0.1-1.7,0.4-2.5H82c-0.6,0.7-0.9,1.5-0.9,2.5s0.3,1.8,0.9,2.5c0.6,0.7,1.4,1,2.3,1
		c0.9,0,1.7-0.3,2.3-1c0.6-0.7,0.9-1.5,0.9-2.5s-0.3-1.8-0.9-2.5h5.8c0.2,0.8,0.4,1.6,0.4,2.5c0,2.4-0.8,4.4-2.5,6.1s-3.7,2.5-6,2.5
		c-2.3,0-4.3-0.8-6-2.5S75.8,145.7,75.8,143.4z M76.7,139.6c0.7-1.5,1.8-2.6,3.1-3.5c1.4-0.9,2.9-1.3,4.5-1.3s3.1,0.4,4.5,1.3
		s2.4,2.1,3.1,3.5H76.7z"/>
	<path class="st0" d="M111.9,139.6H94.5v-4.9h9.2c1.9,0,3.5,0.4,5,1.3C110.1,136.9,111.2,138.1,111.9,139.6z M94.5,151.6v-10.7h5.2
		v10.7H94.5z M112.3,140.9c0.2,0.8,0.4,1.7,0.4,2.5c0,2.6-0.9,4.7-2.7,6.4c-1.5,1.4-3.3,2.2-5.2,2.2c-1,0-1.6,0-1.9,0
		c-0.7,0-1.5-0.2-2.1-0.4v-4.8c0.7,0.2,1.7,0.2,3.2,0.2c1,0,1.8-0.3,2.5-0.9c0.7-0.7,1.1-1.6,1.1-2.8c0-0.9-0.3-1.7-0.9-2.4H112.3z"
		/>
	<path class="st0" d="M133.5,140.9c0.2,0.1,1.1,0.4,2.8,1c1.5,0.5,2.6,1.1,3.3,1.6c1.1,0.8,1.6,1.8,1.6,2.9c0,1.6-0.6,2.9-1.7,3.8
		c-1.1,0.9-2.5,1.3-4.3,1.3h-7.5v-4.8h7c0.5,0,0.8-0.2,0.8-0.6c0-0.4-0.6-0.7-1.8-1.1c-1.7-0.5-2.9-0.9-3.5-1.3
		c-1.3-0.7-2.2-1.7-2.4-3H133.5z M127.9,139.6c0.2-1.4,0.8-2.4,1.9-3.2c1-0.7,2.4-1.1,4-1.1h6.9v4.3H127.9z"/>
	<path class="st0" d="M143,143.4c0-0.8,0.1-1.7,0.4-2.5h5.8c-0.6,0.7-0.9,1.5-0.9,2.5s0.3,1.8,0.9,2.5c0.6,0.7,1.4,1,2.3,1
		c0.9,0,1.7-0.3,2.3-1c0.6-0.7,0.9-1.5,0.9-2.5s-0.3-1.8-0.9-2.5h5.8c0.2,0.8,0.4,1.6,0.4,2.5c0,2.4-0.8,4.4-2.5,6.1
		c-1.7,1.7-3.7,2.5-6,2.5c-2.3,0-4.3-0.8-6-2.5S143,145.7,143,143.4z M143.8,139.6c0.7-1.5,1.8-2.6,3.1-3.5c1.4-0.9,2.9-1.3,4.5-1.3
		c1.6,0,3.1,0.4,4.5,1.3s2.4,2.1,3.1,3.5H143.8z"/>
	<path class="st0" d="M167.8,140.9c-0.6,0.7-0.9,1.5-0.9,2.5v8.3h-5.2v-8.3c0-0.8,0.1-1.7,0.4-2.5H167.8z M174.6,136.1
		c1.4,0.9,2.4,2.1,3.1,3.5h-15.2c0.7-1.5,1.8-2.6,3.1-3.5c1.4-0.9,2.9-1.3,4.5-1.3C171.7,134.8,173.2,135.2,174.6,136.1z
		 M178.6,143.4v8.3h-5.2v-8.3c0-1-0.3-1.8-0.9-2.5h5.8C178.5,141.7,178.6,142.5,178.6,143.4z"/>
	<path class="st0" d="M197.5,143.4v8.3h-5.2v-0.3c-1.1,0.5-2.2,0.7-3.3,0.7c-2.3,0-4.3-0.8-6-2.5c-1.7-1.7-2.5-3.7-2.5-6.1
		c0-0.8,0.1-1.7,0.4-2.5h5.8c-0.6,0.7-0.9,1.5-0.9,2.5s0.3,1.8,0.9,2.5c0.6,0.7,1.4,1,2.3,1c0.9,0,1.7-0.3,2.3-1
		c0.6-0.7,0.9-1.5,0.9-2.5H197.5z M193.5,136.1c1.4,0.9,2.4,2.1,3.1,3.5h-15.2c0.7-1.5,1.8-2.6,3.1-3.5c1.4-0.9,2.9-1.3,4.5-1.3
		C190.6,134.8,192.1,135.2,193.5,136.1z"/>
	<path class="st0" d="M212.5,140.9h5.2v10.7h-5.2V140.9z M212.6,139.6c0.2-1.5,0.7-2.7,1.6-3.5c0.9-0.9,2.1-1.3,3.6-1.3
		c1.5,0,2.8,1,4,3c1.1-2,2.4-3,4-3c1.5,0,2.6,0.4,3.5,1.3c0.9,0.9,1.4,2,1.6,3.5H212.6z M218.8,140.9h5.7c-0.2,0.7-0.4,1.3-0.6,1.7
		c-0.8,2.1-1.5,3.2-2.2,3.2c-0.8,0-1.5-1.1-2.2-3.2C219.1,141.9,218.9,141.3,218.8,140.9z M225.6,140.9h5.2v10.7h-5.2V140.9z"/>
	<path class="st0" d="M232.7,139.6v-4.3h11.1c1.6,0,3,0.4,4,1.1c1.1,0.7,1.7,1.8,1.9,3.2H232.7z M237.9,151.7h-5.2v-10.7h5.2V151.7z
		 M241.6,141.8c0.9-0.3,1.5-0.6,1.9-0.9h6.1c-0.3,1.5-2,2.9-5.2,4.2c-1.1,0.4-2.9,1-5.4,1.8v-4.2
		C239.8,142.4,240.7,142.1,241.6,141.8z"/>
	<path class="st0" d="M250.6,139.6v-4.3h4.7c1.6,0,3,0.4,4,1.1c1.1,0.7,1.7,1.8,1.9,3.2H250.6z M261.3,146.8c0,1.6-0.5,2.9-1.4,3.8
		c-0.9,0.9-2.2,1.4-3.9,1.4c-0.2,0-0.4,0-0.7,0c-2.5,0-4.1-0.1-4.7-0.4v-4.8c2.6,0.2,4.1,0.4,4.3,0.4c0.5,0,0.8-0.2,0.8-0.6
		c0-0.3-0.5-0.6-1.4-0.9c-1.7-0.5-2.6-1.2-2.7-2.1c0-1,0.7-1.7,2.2-2.2c0.6-0.2,1-0.4,1.2-0.5h6.2c-0.1,1.1-0.8,2-2,2.7
		C260.6,144.5,261.3,145.6,261.3,146.8z"/>
</g>
<path class="st0" d="M84.4,168.8H65.6V300h18.8c5.2,0,9.4-4.2,9.4-9.4V178.1C93.8,173,89.5,168.8,84.4,168.8z"/>
<path class="st0" d="M215.6,168.8c-5.2,0-9.4,4.2-9.4,9.4v112.5c0,5.2,4.2,9.4,9.4,9.4h18.8V168.8H215.6z"/>
<path class="st1" d="M300,150C300,67.2,232.8,0,150,0S0,67.2,0,150c0,18,3.2,35.2,9,51.2c-5.7,9.7-9,21.1-9,33.1
	c0,33.1,24.5,60.4,56.3,65V169.4c-9.3,1.3-18.1,4.6-25.7,9.5c-1.6-7.8-2.4-15.9-2.4-24.2C28.1,87.4,82.7,32.8,150,32.8
	s121.9,54.6,121.9,121.9c0,8.3-0.8,16.4-2.4,24.2c-7.7-4.8-16.4-8.2-25.7-9.5v129.9c31.8-4.5,56.3-31.9,56.3-65
	c0-12.1-3.3-23.4-9-33.1C296.8,185.2,300,168,300,150L300,150z"/>
</svg>
