<?xml version="1.0" encoding="utf-8"?>
<!-- Generator: Adobe Illustrator 22.1.0, SVG Export Plug-In . SVG Version: 6.00 Build 0)  -->
<svg version="1.1" xmlns="http://www.w3.org/2000/svg" xmlns:xlink="http://www.w3.org/1999/xlink" x="0px" y="0px"
	 viewBox="0 0 141 32" style="enable-background:new 0 0 141 32;" xml:space="preserve">
<style type="text/css">
	.st0{display:none;}
	.st1{display:inline;}
	.st2{fill:#E40913;}
</style>
<g id="Capa_1">
	<g class="st0">
		<g class="st1">
			<g>
				<g>
					<path class="st2" d="M31,13.6c0.8-5,1.2-7.5,2-12.3c1.6,0,2.4,0,4,0c0,6.6,0,10,0,16.6c-1.1,0.1-1.6,0.2-2.7,0.4
						c0-4.9,0-7.2,0-12.1c-0.8,4.9-1.2,7.4-2,12.4c-1.1,0.1-1.6,0.3-2.7,0.4c-1-4.8-1.4-7.3-2.3-12.2c0,5.1,0,7.6,0,12.6
						c-1,0.1-1.5,0.3-2.5,0.4c0-7.3,0-10.9,0-18.3c1.6,0,2.4,0,4,0C29.8,6.3,30.2,8.8,31,13.6z"/>
					<path class="st2" d="M42.7,8.1C44.3,8,45,8,46.6,8c0,0.9,0,1.3,0,2.2c-1.6,0.1-2.3,0.1-3.9,0.2c0,1.8,0,2.8,0,4.7
						c2-0.1,3-0.3,4.9-0.4c0,0.9,0,1.3,0,2.2c-3.1,0.4-4.6,0.4-7.8,0.8c0-6.6,0-9.9,0-16.4c3.1,0,4.7,0,7.8,0c0,0.9,0,1.3,0,2.2
						c-2,0-3,0-4.9,0.1C42.7,5.3,42.7,6.2,42.7,8.1z"/>
					<path class="st2" d="M54.5,8.1c1.6,0,2.4,0,4-0.1c0,1.9,0,2.8,0,4.8c0,2.5-1.5,3.9-4.3,4c-2.8,0.1-4.3-1.2-4.3-3.6
						c0-3.2,0-4.9,0-8.1c0-2.5,1.5-3.9,4.3-3.9s4.3,1.3,4.3,3.8c0,0.6,0,0.9,0,1.5c-1.1,0-1.7,0-2.8,0c0-0.7,0-0.9,0-1.7
						c0-1.1-0.6-1.5-1.5-1.5s-1.5,0.4-1.5,1.5c0,3.3,0,5,0,8.4c0,1.1,0.6,1.5,1.5,1.4c0.9,0,1.5-0.5,1.5-1.5c0-1.1,0-1.7,0-2.7
						c-0.5,0-0.8,0-1.3,0C54.5,9.4,54.5,9,54.5,8.1z"/>
					<path class="st2" d="M70.4,16.1c-1.2,0-1.8,0-2.9,0c-0.2-1.1-0.3-1.7-0.5-2.6c-1.4,0-2.1,0-3.5,0c-0.2,1.1-0.3,1.7-0.5,2.7
						c-1.1,0-1.6,0-2.7,0.1c1.2-6.1,1.8-9.1,2.9-15c1.7,0,2.5,0,4.2,0C68.6,7.2,69.2,10.2,70.4,16.1z M63.8,11.5c1.1,0,1.7,0,2.8,0
						C66.1,8.4,65.8,7,65.3,4C64.6,6.9,64.4,8.5,63.8,11.5z"/>
					<path class="st2" d="M81,5c0,0.8,0,1.2,0,2c0,2.4-1.4,3.7-4.3,3.6c-0.6,0-0.8,0-1.3,0c0,2.2,0,3.4,0,5.6c-1.2,0-1.8,0-2.8,0
						c0-5.9,0-8.9,0-14.9c1.7,0,2.5,0,4.3,0C79.6,1.3,81,2.6,81,5z M75.4,3.4c0,2.1,0,3,0,5c0.6,0,0.8,0,1.3,0
						c0.9,0,1.4-0.3,1.4-1.4c0-0.8,0-1.3,0-2.2c0-1.1-0.5-1.4-1.4-1.4C76.2,3.4,75.9,3.4,75.4,3.4z"/>
					<path class="st2" d="M86,7.6c1.6,0,2.3,0,3.9,0.1c0,0.9,0,1.3,0,2.2c-1.6,0-2.3-0.1-3.9-0.1c0,1.8,0,2.7,0,4.5
						c2,0.1,3,0.1,4.9,0.3c0,0.9,0,1.3,0,2.2c-3.2-0.2-4.7-0.3-7.8-0.4c0-6,0-9.1,0-15c3.2,0,4.7,0,7.8,0c0,0.9,0,1.3,0,2.2
						c-2,0-3,0-4.9,0C86,5.2,86,6,86,7.6z"/>
					<path class="st2" d="M93.5,1.3c1.2,0,1.8,0,2.8,0c0,5.5,0,8.2,0,13.6c1.9,0.1,2.8,0.2,4.8,0.4c0,1,0,1.4,0,2.3
						c-3-0.4-4.6-0.4-7.6-0.7C93.5,10.7,93.5,7.6,93.5,1.3z"/>
					<path class="st2" d="M103.1,1.3c1.2,0,1.8,0,2.8,0c0,6.7,0,10,0,16.8c-1.2-0.1-1.8-0.3-2.8-0.4C103.1,11.2,103.1,7.9,103.1,1.3
						z"/>
					<path class="st2" d="M112.7,1.1c2.8,0,4.3,1.7,4.3,4.6c0,0.3,0,0.3,0,0.6c-1.1,0-1.6-0.1-2.7-0.1c0-0.3,0-0.4,0-0.8
						c0-1.3-0.5-1.8-1.4-1.8s-1.4,0.5-1.4,1.8c0,3.7,5.6,4.7,5.6,9.9c0,2.9-1.4,4.3-4.3,4c-2.8-0.4-4.3-2.1-4.3-4.9
						c0-0.4,0-0.7,0-1.1c1.1,0.1,1.6,0.1,2.7,0.3c0,0.5,0,0.8,0,1.3c0,1.3,0.6,1.8,1.5,1.8c0.9,0.1,1.5-0.2,1.5-1.5
						c0-3.7-5.6-4.8-5.6-9.7C108.4,2.7,109.9,1.1,112.7,1.1z"/>
				</g>
			</g>
		</g>
		<g class="st1">
			<g>
				<path class="st2" d="M55.6,25.8c0.8-0.1,1.3-0.1,2.1-0.1c0,0.6,0,0.9,0,1.5c-0.8,0.1-1.3,0.1-2.1,0.2c0,1.7,0,2.5,0,4.1
					c-0.6,0.1-0.9,0.1-1.5,0.2c0-4.1,0-6.1,0-10.2c1.7,0,2.5,0,4.2,0c0,0.6,0,0.9,0,1.4c-1.1,0-1.6,0-2.7,0.1
					C55.6,24.1,55.6,24.7,55.6,25.8z"/>
				<path class="st2" d="M61,21.3c0,2.9,0,4.3,0,7.2c0,0.6,0.4,0.8,0.8,0.8s0.8-0.4,0.8-0.9c0-2.8,0-4.3,0-7.1c0.6,0,0.9,0,1.5,0
					c0,2.8,0,4.1,0,6.9c0,1.5-0.8,2.3-2.4,2.5c-1.5,0.1-2.3-0.6-2.3-2.2c0-2.9,0-4.3,0-7.2C60.1,21.3,60.4,21.3,61,21.3z"/>
				<path class="st2" d="M65.7,21.3c0.6,0,0.9,0,1.5,0c0,3,0,4.6,0,7.6c1.1,0,1.6,0,2.7-0.1c0,0.5,0,0.8,0,1.3c-1.7,0-2.5,0-4.2,0.1
					C65.7,26.8,65.7,24.9,65.7,21.3z"/>
				<path class="st2" d="M71.1,21.3c0.6,0,0.9,0,1.5,0c0,3,0,4.5,0,7.6c1.1,0,1.6,0,2.7,0.1c0,0.5,0,0.8,0,1.3
					c-1.7-0.1-2.5-0.1-4.2-0.1C71.1,26.7,71.1,24.9,71.1,21.3z"/>
				<path class="st2" d="M78.1,30.5c-0.6,0-0.9-0.1-1.5-0.1c0-3.6,0-5.4,0-9c0.6,0,0.9,0,1.5,0c0,1.6,0,2.4,0,4c0.8,0,1.1,0,1.9,0.1
					c0-1.6,0-2.4,0-4c0.7,0,1,0,1.6,0c0,3.8,0,5.6,0,9.4c-0.7-0.1-1-0.1-1.6-0.1c0-1.6,0-2.4,0-4c-0.8,0-1.1-0.1-1.9-0.1
					C78.1,28.1,78.1,28.9,78.1,30.5z"/>
				<path class="st2" d="M83,21.3c1,0,1.5,0,2.6,0c1.5,0,2.3,0.9,2.3,2.6c0,2.1,0,3.1,0,5.2c0,1.6-0.8,2.4-2.3,2.2
					c-1-0.1-1.5-0.2-2.6-0.3C83,27.1,83,25.2,83,21.3z M84.7,22.8c0,2.8,0,4.2,0,7c0.4,0,0.6,0.1,0.9,0.1c0.5,0.1,0.8-0.2,0.8-0.8
					c0-2.1,0-3.1,0-5.2c0-0.7-0.4-0.9-0.8-0.9s-0.6,0-0.9,0C84.7,22.9,84.7,22.8,84.7,22.8z"/>
			</g>
		</g>
	</g>
	<g>
		<g>
			<path class="st2" d="M34,8.6c0,0.9,0,1.4,0,2.3c0,2.9-1.5,4.6-4.4,4.8c-0.6,0-0.8,0.1-1.4,0.1c0,2.8,0,4.2,0,7
				c-1.2,0.2-1.8,0.2-3,0.4c0-7.6,0-11.4,0-19c1.8,0,2.6-0.1,4.4-0.1C32.6,4.1,34,5.7,34,8.6z M28.2,6.9c0,2.5,0,3.8,0,6.3
				c0.6,0,0.8-0.1,1.4-0.1c0.9-0.1,1.5-0.5,1.5-1.8c0-1.1,0-1.7,0-2.8c0-1.3-0.5-1.7-1.5-1.7C29,6.9,28.8,6.9,28.2,6.9z"/>
			<path class="st2" d="M39.4,11.4c1.6-0.1,2.5-0.1,4.1-0.2c0,1,0,1.5,0,2.5c-1.6,0.1-2.5,0.1-4.1,0.2c0,2.1,0,3.1,0,5.2
				c2.1-0.2,3.1-0.3,5.2-0.4c0,1,0,1.5,0,2.5c-3.3,0.3-4.9,0.4-8.1,0.8c0-7.1,0-10.7,0-17.8C39.6,4,41.3,4,44.5,3.9c0,1,0,1.5,0,2.5
				c-2.1,0-3.1,0.1-5.2,0.1C39.4,8.5,39.4,9.5,39.4,11.4z"/>
			<path class="st2" d="M47.2,3.9c1.2,0,1.8,0,3,0c0,5.8,0,8.7,0,14.5c2-0.1,2.9-0.2,4.9-0.2c0,1,0,1.4,0,2.4
				c-3.2,0.2-4.7,0.2-7.9,0.5C47.2,14.1,47.2,10.7,47.2,3.9z"/>
			<path class="st2" d="M61.9,0.3c-1.1,1-1.7,1.6-2.8,2.6c-0.8,0-1.2,0-2,0c0.7-1.1,1.1-1.6,1.8-2.6C60.1,0.3,60.7,0.3,61.9,0.3z
				 M57.2,3.8c1.2,0,1.8,0,3,0c0,6.6,0,9.9,0,16.5c-1.2,0-1.8,0.1-3,0.1C57.2,13.7,57.2,10.4,57.2,3.8z"/>
			<path class="st2" d="M71.8,14c0,0.9,0,1.3,0,2.2c0,2.6-1.5,4.1-4.5,4.1c-2.9,0-4.5-1.4-4.5-4.1c0-3.4,0-5.1,0-8.5
				c0-2.6,1.5-4.1,4.5-4.1c2.9,0,4.4,1.5,4.4,4.1c0,0.6,0,1,0,1.6c-1.1,0-1.7,0-2.8,0c0-0.7,0-1.1,0-1.8c0-1.2-0.6-1.6-1.5-1.6
				c-0.9,0-1.5,0.5-1.5,1.6c0,3.5,0,5.3,0,8.8c0,1.2,0.6,1.6,1.5,1.6c1,0,1.5-0.4,1.5-1.6c0-0.9,0-1.4,0-2.3
				C70.1,14,70.7,14,71.8,14z"/>
			<path class="st2" d="M77.3,3.8c0,5.1,0,7.6,0,12.7c0,1.2,0.6,1.6,1.6,1.6c1,0,1.5-0.4,1.5-1.6c0-5.1,0-7.6,0-12.7
				c1.1,0,1.7,0,2.8,0c0,5,0,7.6,0,12.6c0,2.6-1.5,4.1-4.5,4c-2.9-0.1-4.5-1.6-4.5-4.2c0-5,0-7.5,0-12.5C75.5,3.8,76.1,3.8,77.3,3.8
				z"/>
			<path class="st2" d="M86.1,3.8c1.2,0,1.8,0,3,0c0,5.7,0,8.6,0,14.4c2,0.1,2.9,0.2,4.9,0.3c0,1,0,1.5,0,2.4
				c-3.2-0.2-4.7-0.3-7.9-0.5C86.1,13.8,86.1,10.5,86.1,3.8z"/>
			<path class="st2" d="M105.8,22c-1.2-0.1-1.8-0.2-3-0.3c-0.2-1.3-0.3-1.9-0.5-3.2c-1.5-0.1-2.2-0.2-3.7-0.3
				c-0.2,1.2-0.3,1.9-0.5,3.1c-1.1-0.1-1.6-0.1-2.7-0.2c1.2-6.8,1.8-10.2,3-17.1c1.7,0,2.6,0,4.4,0.1
				C103.9,11.1,104.6,14.7,105.8,22z M99,15.8c1.1,0.1,1.7,0.1,2.9,0.2c-0.6-3.6-0.9-5.4-1.5-8.9C99.8,10.6,99.5,12.3,99,15.8z"/>
			<path class="st2" d="M112,4c2.9,0.1,4.4,1.8,4.4,4.9c0,0.2,0,0.4,0,0.6c-1.1-0.1-1.7-0.1-2.8-0.2c0-0.3,0-0.5,0-0.8
				c0-1.3-0.5-1.9-1.5-1.9c-0.9,0-1.5,0.4-1.5,1.8c0,3.8,5.8,4.9,5.8,10.3c0,3-1.5,4.5-4.4,4.2c-2.9-0.4-4.4-2.2-4.4-5.1
				c0-0.4,0-0.7,0-1.1c1.1,0.1,1.7,0.1,2.8,0.2c0,0.5,0,0.8,0,1.3c0,1.3,0.6,1.8,1.5,2c0.9,0.1,1.5-0.3,1.5-1.6
				c0-3.8-5.8-5-5.8-10.1C107.6,5.6,109.1,3.9,112,4z"/>
		</g>
	</g>
</g>
<g id="Capa_2">
	<g>
		<g>
			<path class="st2" d="M54,26.5c0.8,0,1.2-0.1,2-0.1c0,1.1,0,1.6,0,2.7c0,1.4-0.7,2.2-2.1,2.4c-1.4,0.2-2.1-0.5-2.1-2
				c0-1.9,0-2.8,0-4.7c0-1.4,0.7-2.3,2.1-2.3c1.4,0,2.1,0.8,2.1,2.1c0,0.3,0,0.5,0,0.8c-0.5,0-0.8,0-1.3,0.1c0-0.4,0-0.6,0-0.9
				c0-0.6-0.3-0.8-0.7-0.8c-0.5,0-0.7,0.3-0.7,0.9c0,1.9,0,2.9,0,4.8c0,0.6,0.3,0.8,0.7,0.8c0.5,0,0.7-0.3,0.7-0.9c0-0.6,0-1,0-1.6
				c-0.3,0-0.4,0-0.6,0C54,27.3,54,27,54,26.5z"/>
			<path class="st2" d="M60.2,30.8c-0.1-0.2-0.1-0.3-0.1-1c0-0.5,0-0.8,0-1.3c0-0.8-0.3-1-0.9-1c-0.2,0-0.3,0-0.5,0c0,1.3,0,2,0,3.4
				c-0.6,0.1-0.9,0.1-1.4,0.1c0-3.3,0-5,0-8.4c0.9,0,1.3,0,2.1,0c1.5,0,2.1,0.6,2.1,1.8c0,0.3,0,0.4,0,0.6c0,0.8-0.3,1.4-0.9,1.7
				c0.7,0.2,0.9,0.8,0.9,1.7c0,0.5,0,0.7,0,1.2c0,0.4,0,0.7,0.2,1C61.1,30.7,60.8,30.7,60.2,30.8z M58.7,23.8c0,1,0,1.5,0,2.5
				c0.2,0,0.3,0,0.6,0c0.5,0,0.9-0.2,0.9-0.9c0-0.3,0-0.5,0-0.8c0-0.6-0.2-0.8-0.7-0.8C59.1,23.8,59,23.8,58.7,23.8z"/>
			<path class="st2" d="M67.4,30.4c-0.6,0-0.9,0-1.4,0c-0.1-0.6-0.1-0.8-0.2-1.4c-0.7,0-1,0-1.7,0.1c-0.1,0.6-0.1,0.9-0.2,1.4
				c-0.5,0-0.8,0-1.3,0.1c0.6-3.2,0.9-4.8,1.5-7.9c0.8,0,1.2,0,2.1,0C66.6,25.8,66.8,27.3,67.4,30.4z M64.2,28c0.5,0,0.8,0,1.4,0
				c-0.3-1.6-0.4-2.4-0.7-3.9C64.6,25.6,64.5,26.4,64.2,28z"/>
			<path class="st2" d="M68.1,22.7c1.8,0,2.6,0,4.4,0c0,0.4,0,0.7,0,1.1c-0.6,0-0.9,0-1.5,0c0,2.6,0,3.9,0,6.6c-0.6,0-0.9,0-1.4,0
				c0-2.6,0-3.9,0-6.6c-0.6,0-0.9,0-1.5,0C68.1,23.3,68.1,23.1,68.1,22.7z"/>
			<path class="st2" d="M73.5,22.7c0.6,0,0.9,0,1.4,0c0,3.1,0,4.6,0,7.7c-0.6,0-0.9,0-1.4,0C73.5,27.3,73.5,25.7,73.5,22.7z"/>
			<path class="st2" d="M78.2,22.6c1.4,0,2.1,0.7,2.1,2c0,0.1,0,0.1,0,0.2c-0.5,0-0.8,0-1.3,0c0-0.1,0-0.2,0-0.3
				c0-0.6-0.3-0.8-0.7-0.8c-0.5,0-0.7,0.2-0.7,0.8c0,1.6,2.8,2,2.8,4.2c0,1.3-0.7,1.9-2.1,1.9c-1.4-0.1-2.1-0.8-2.1-2
				c0-0.2,0-0.3,0-0.5c0.5,0,0.8,0,1.3,0c0,0.2,0,0.3,0,0.6c0,0.6,0.3,0.8,0.7,0.8s0.7-0.2,0.7-0.7c0-1.6-2.8-2-2.8-4.2
				C76.1,23.3,76.8,22.6,78.2,22.6z"/>
			<path class="st2" d="M81.4,24.6c0-1.3,0.8-2,2.1-2c1.4,0,2.2,0.8,2.2,2.1c0,1.7,0,2.6,0,4.3c0,1.3-0.8,2-2.1,1.9
				c-1.4-0.1-2.2-0.9-2.2-2.2C81.4,27.1,81.4,26.2,81.4,24.6z M82.8,28.9c0,0.6,0.3,0.8,0.7,0.8c0.5,0,0.7-0.2,0.7-0.8
				c0-1.8,0-2.7,0-4.4c0-0.6-0.3-0.8-0.7-0.8c-0.5,0-0.7,0.2-0.7,0.8C82.8,26.3,82.8,27.1,82.8,28.9z"/>
			<path class="st2" d="M88.3,25c0,2.5,0,3.7,0,6.2c-0.5-0.1-0.8-0.1-1.3-0.1c0-3.4,0-5.1,0-8.5c0.7,0,1.1,0,1.8,0
				c0.6,2.1,0.9,3.1,1.5,5.3c0-2.1,0-3.2,0-5.3c0.5,0,0.8,0,1.3,0c0,3.6,0,5.4,0,9c-0.6-0.1-0.9-0.1-1.5-0.2
				C89.3,28.9,89,27.6,88.3,25z"/>
		</g>
	</g>
</g>
</svg>
