<?xml version="1.0" encoding="utf-8"?>
<!-- Generator: Adobe Illustrator 22.1.0, SVG Export Plug-In . SVG Version: 6.00 Build 0)  -->
<svg version="1.1" id="Capa_5" xmlns="http://www.w3.org/2000/svg" xmlns:xlink="http://www.w3.org/1999/xlink" x="0px" y="0px"
	 viewBox="0 0 141 42" style="enable-background:new 0 0 141 42;" xml:space="preserve">
<style type="text/css">
	.st0{fill:#E40913;}
	.st1{fill:#FFFFFF;}
	.st2{fill:#FBB901;}
</style>
<g>
	<rect x="32.1" y="0.3" class="st0" width="65.6" height="20.9"/>
	<g>
		<path class="st1" d="M39.8,4.6c1.8,0,2.6,1.1,2.6,2.8v1.4c0,1.8-0.9,2.8-2.7,2.8h-1.1v4.6h-1.3V4.6H39.8z M39.7,10.5
			c1,0,1.4-0.4,1.4-1.6V7.4c0-1.1-0.4-1.6-1.3-1.6h-1.2v4.7H39.7z"/>
		<path class="st1" d="M48.1,9.7v1.2h-2.8V15h3.5v1.2H44V4.6h4.8v1.2h-3.5v3.9H48.1z"/>
		<path class="st1" d="M50.4,16.2V4.6h1.3V15H55v1.2H50.4z"/>
		<path class="st1" d="M57.5,2.3h1.3L57.2,4h-0.9L57.5,2.3z M56.5,4.6h1.3v11.6h-1.3V4.6z"/>
		<path class="st1" d="M64.7,7.4v1h-1.2V7.3c0-1-0.4-1.7-1.4-1.7c-0.9,0-1.4,0.6-1.4,1.7v6.1c0,1,0.4,1.7,1.4,1.7
			c0.9,0,1.4-0.6,1.4-1.7v-1.5h1.2v1.4c0,1.7-0.8,2.9-2.6,2.9c-1.8,0-2.6-1.2-2.6-2.9v-6c0-1.7,0.8-2.9,2.6-2.9
			C63.8,4.5,64.7,5.7,64.7,7.4z"/>
		<path class="st1" d="M67.6,13.4c0,1,0.4,1.7,1.4,1.7c0.9,0,1.3-0.6,1.3-1.7V4.6h1.2v8.8c0,1.7-0.8,2.9-2.6,2.9
			c-1.8,0-2.6-1.2-2.6-2.9V4.6h1.3V13.4z"/>
		<path class="st1" d="M73.2,16.2V4.6h1.3V15h3.3v1.2H73.2z"/>
		<path class="st1" d="M80.6,13.8l-0.4,2.3h-1.2l2.2-11.6H83l2.2,11.6h-1.3l-0.4-2.3H80.6z M80.7,12.7h2.6L82,6.1L80.7,12.7z"/>
		<path class="st1" d="M91.7,7.4v0.3h-1.2V7.3c0-1-0.4-1.7-1.3-1.7s-1.3,0.6-1.3,1.6c0,2.6,3.9,2.8,3.9,6.1c0,1.7-0.8,2.9-2.6,2.9
			c-1.8,0-2.6-1.1-2.6-2.9v-0.7h1.2v0.7c0,1,0.4,1.7,1.4,1.7c0.9,0,1.4-0.6,1.4-1.7c0-2.6-3.9-2.8-3.9-6.1c0-1.8,0.8-2.9,2.6-2.9
			C90.9,4.5,91.7,5.6,91.7,7.4z"/>
	</g>
	<polygon class="st2" points="46.3,19.3 48.4,41 109.9,34.1 107.7,15.9 	"/>
	<g>
		<path class="st1" d="M59.3,27l0.1,1l-1.2,0.1l-0.1-1c-0.1-1-0.5-1.6-1.4-1.5c-0.9,0.1-1.2,0.7-1.2,1.7l0.5,5.9
			c0.1,1,0.6,1.6,1.4,1.5c0.9-0.1,1.2-0.7,1.2-1.7l-0.2-2.2l-1.1,0.1l-0.1-1.1l2.3-0.2l0.3,3.3c0.2,1.7-0.5,2.9-2.3,3
			c-1.7,0.2-2.6-0.9-2.7-2.6l-0.5-5.7c-0.2-1.7,0.5-2.9,2.2-3C58.2,24.3,59.1,25.4,59.3,27z"/>
		<path class="st1" d="M62.7,24c1.7-0.2,2.6,0.7,2.7,2.3l0.1,0.9c0.1,1.2-0.2,2-1.2,2.4c1,0.2,1.5,1,1.6,2.2l0.2,1.7
			c0,0.5,0.1,0.9,0.3,1.3L65.1,35c-0.2-0.3-0.3-0.6-0.3-1.3l-0.2-1.7c-0.1-1.3-0.7-1.6-1.8-1.5L62,30.5l0.4,4.7l-1.2,0.1l-1-11.1
			L62.7,24z M62.8,29.3c1-0.1,1.5-0.5,1.4-1.7l-0.1-1.1c-0.1-1-0.5-1.5-1.4-1.4l-1.2,0.1l0.4,4.1L62.8,29.3z"/>
		<path class="st1" d="M68.5,32.4l-0.2,2.3l-1.1,0.1l1.1-11.3l1.8-0.2l3.1,10.9l-1.2,0.1l-0.6-2.2L68.5,32.4z M68.6,31.3l2.5-0.2
			l-1.8-6.3L68.6,31.3z"/>
		<path class="st1" d="M75.8,34l-0.9-10l-2,0.2l-0.1-1.1l5.3-0.5l0.1,1.1l-2,0.2l0.9,10L75.8,34z"/>
		<path class="st1" d="M80.1,22.4l1,11.1l-1.2,0.1l-1-11.1L80.1,22.4z"/>
		<path class="st1" d="M86.4,24.6l0,0.3L85.3,25l0-0.4c-0.1-1-0.5-1.5-1.4-1.5s-1.2,0.7-1.1,1.7c0.2,2.5,4,2.4,4.2,5.5
			c0.2,1.7-0.6,2.8-2.3,3s-2.6-0.9-2.7-2.5l-0.1-0.6l1.2-0.1l0.1,0.7c0.1,1,0.6,1.5,1.4,1.5c0.9-0.1,1.2-0.7,1.2-1.7
			c-0.2-2.5-4-2.4-4.2-5.5c-0.2-1.7,0.5-2.8,2.2-3C85.4,21.9,86.3,22.9,86.4,24.6z"/>
		<path class="st1" d="M89.9,24.3c-0.2-1.7,0.6-2.9,2.3-3c1.7-0.2,2.6,0.9,2.8,2.6l0.5,5.7c0.2,1.7-0.6,2.9-2.3,3
			c-1.7,0.2-2.6-0.9-2.8-2.6L89.9,24.3z M91.6,29.9c0.1,1,0.6,1.6,1.5,1.5c0.9-0.1,1.3-0.7,1.2-1.7l-0.5-5.9c-0.1-1-0.6-1.6-1.5-1.5
			c-0.9,0.1-1.3,0.7-1.2,1.7L91.6,29.9z"/>
		<path class="st1" d="M98,32l-1.1,0.1l-1-11.1l1.6-0.1l3.3,7.8l-0.7-8l1.1-0.1l1,11.1l-1.3,0.1L97.2,23L98,32z"/>
	</g>
</g>
</svg>
