<?xml version="1.0" encoding="utf-8"?>
<!-- Generator: Adobe Illustrator 22.1.0, SVG Export Plug-In . SVG Version: 6.00 Build 0)  -->
<svg version="1.1" id="Capa_1" xmlns="http://www.w3.org/2000/svg" xmlns:xlink="http://www.w3.org/1999/xlink" x="0px" y="0px"
	 viewBox="0 0 141 37" style="enable-background:new 0 0 141 37;" xml:space="preserve">
<style type="text/css">
	.st0{display:none;}
	.st1{display:inline;}
	.st2{fill:#E40913;}
</style>
<g>
	<g id="Capa_1_1_">
		<g class="st0">
			<g class="st1">
				<g>
					<g>
						<path class="st2" d="M28,14.9c0.9-5.4,1.3-8.1,2.2-13.3c1.7,0,2.6,0,4.3,0c0,7.1,0,10.8,0,17.9c-1.2,0.1-1.7,0.2-2.9,0.4
							c0-5.3,0-7.8,0-13c-0.9,5.3-1.3,8-2.2,13.4c-1.2,0.1-1.7,0.3-2.9,0.4c-1.1-5.2-1.5-7.9-2.5-13.1c0,5.5,0,8.2,0,13.6
							c-1.1,0.1-1.6,0.3-2.7,0.4c0-7.9,0-11.7,0-19.7c1.7,0,2.6,0,4.3,0C26.7,7,27.1,9.7,28,14.9z"/>
						<path class="st2" d="M40.6,9c1.7-0.1,2.5-0.1,4.2-0.1c0,1,0,1.4,0,2.4c-1.7,0.1-2.5,0.1-4.2,0.2c0,1.9,0,3,0,5.1
							c2.2-0.1,3.2-0.3,5.3-0.4c0,1,0,1.4,0,2.4c-3.3,0.4-5,0.4-8.4,0.9c0-7.1,0-10.7,0-17.7c3.3,0,5.1,0,8.4,0c0,1,0,1.4,0,2.4
							c-2.2,0-3.2,0-5.3,0.1C40.6,5.9,40.6,6.9,40.6,9z"/>
						<path class="st2" d="M53.3,9c1.7,0,2.6,0,4.3-0.1c0,2,0,3,0,5.2c0,2.7-1.6,4.2-4.6,4.3s-4.6-1.3-4.6-3.9c0-3.4,0-5.3,0-8.7
							c0-2.7,1.6-4.2,4.6-4.2s4.6,1.4,4.6,4.1c0,0.6,0,1,0,1.6c-1.2,0-1.8,0-3,0c0-0.8,0-1,0-1.8c0-1.2-0.6-1.6-1.6-1.6
							c-1,0-1.6,0.4-1.6,1.6c0,3.6,0,5.4,0,9.1c0,1.2,0.6,1.6,1.6,1.5c1,0,1.6-0.5,1.6-1.6c0-1.2,0-1.8,0-2.9c-0.5,0-0.9,0-1.4,0
							C53.3,10.4,53.3,9.9,53.3,9z"/>
						<path class="st2" d="M70.4,17.6c-1.3,0-1.9,0-3.1,0c-0.2-1.2-0.3-1.8-0.5-2.8c-1.5,0-2.3,0-3.8,0c-0.2,1.2-0.3,1.8-0.5,2.9
							c-1.2,0-1.7,0-2.9,0.1c1.3-6.6,1.9-9.8,3.1-16.2c1.8,0,2.7,0,4.5,0C68.5,8,69.1,11.2,70.4,17.6z M63.3,12.6c1.2,0,1.8,0,3,0
							c-0.5-3.3-0.9-4.8-1.4-8.1C64.2,7.7,63.9,9.4,63.3,12.6z"/>
						<path class="st2" d="M81.8,5.6c0,0.9,0,1.3,0,2.2c0,2.6-1.5,4-4.6,3.9c-0.6,0-0.9,0-1.4,0c0,2.4,0,3.7,0,6c-1.3,0-1.9,0-3,0
							c0-6.4,0-9.6,0-16.1c1.8,0,2.7,0,4.6,0C80.3,1.6,81.8,3,81.8,5.6z M75.8,3.9c0,2.3,0,3.2,0,5.4c0.6,0,0.9,0,1.4,0
							c1,0,1.5-0.3,1.5-1.5c0-0.9,0-1.4,0-2.4c0-1.2-0.5-1.5-1.5-1.5C76.7,3.9,76.3,3.9,75.8,3.9z"/>
						<path class="st2" d="M87.2,8.4c1.7,0,2.5,0,4.2,0.1c0,1,0,1.4,0,2.4c-1.7,0-2.5-0.1-4.2-0.1c0,1.9,0,2.9,0,4.8
							c2.2,0.1,3.2,0.1,5.3,0.3c0,1,0,1.4,0,2.4c-3.4-0.2-5.1-0.3-8.4-0.4c0-6.5,0-9.8,0-16.2c3.4,0,5.1,0,8.4,0c0,1,0,1.4,0,2.4
							c-2.2,0-3.2,0-5.3,0C87.2,5.8,87.2,6.7,87.2,8.4z"/>
						<path class="st2" d="M95.3,1.6c1.3,0,1.9,0,3,0c0,5.9,0,8.8,0,14.7c2,0.1,3,0.2,5.2,0.4c0,1.1,0,1.5,0,2.5
							c-3.2-0.4-5-0.4-8.2-0.8C95.3,11.8,95.3,8.4,95.3,1.6z"/>
						<path class="st2" d="M105.6,1.6c1.3,0,1.9,0,3,0c0,7.2,0,10.8,0,18.1c-1.3-0.1-1.9-0.3-3-0.4C105.6,12.3,105.6,8.7,105.6,1.6z
							"/>
						<path class="st2" d="M116,1.4c3,0,4.6,1.8,4.6,5c0,0.3,0,0.3,0,0.6c-1.2,0-1.7-0.1-2.9-0.1c0-0.3,0-0.4,0-0.9
							c0-1.4-0.5-1.9-1.5-1.9c-1,0-1.5,0.5-1.5,1.9c0,4,6,5.1,6,10.7c0,3.1-1.5,4.6-4.6,4.3c-3-0.4-4.6-2.3-4.6-5.3
							c0-0.4,0-0.8,0-1.2c1.2,0.1,1.7,0.1,2.9,0.3c0,0.5,0,0.9,0,1.4c0,1.4,0.6,1.9,1.6,1.9c1,0.1,1.6-0.2,1.6-1.6c0-4-6-5.2-6-10.5
							C111.3,3.1,113,1.4,116,1.4z"/>
					</g>
				</g>
			</g>
			<g class="st1">
				<g>
					<path class="st2" d="M54.5,28c0.9-0.1,1.4-0.1,2.3-0.1c0,0.6,0,1,0,1.6c-0.9,0.1-1.4,0.1-2.3,0.2c0,1.8,0,2.7,0,4.4
						c-0.6,0.1-1,0.1-1.6,0.2c0-4.4,0-6.6,0-11c1.8,0,2.7,0,4.5,0c0,0.6,0,1,0,1.5c-1.2,0-1.7,0-2.9,0.1
						C54.5,26.2,54.5,26.8,54.5,28z"/>
					<path class="st2" d="M60.3,23.2c0,3.1,0,4.6,0,7.8c0,0.6,0.4,0.9,0.9,0.9s0.9-0.4,0.9-1c0-3,0-4.6,0-7.6c0.6,0,1,0,1.6,0
						c0,3,0,4.4,0,7.4c0,1.6-0.9,2.5-2.6,2.7c-1.6,0.1-2.5-0.6-2.5-2.4c0-3.1,0-4.6,0-7.8C59.3,23.2,59.6,23.2,60.3,23.2z"/>
					<path class="st2" d="M65.3,23.2c0.6,0,1,0,1.6,0c0,3.2,0,5,0,8.2c1.2,0,1.7,0,2.9-0.1c0,0.5,0,0.9,0,1.4c-1.8,0-2.7,0-4.5,0.1
						C65.3,29.1,65.3,27.1,65.3,23.2z"/>
					<path class="st2" d="M71.2,23.2c0.6,0,1,0,1.6,0c0,3.2,0,4.8,0,8.2c1.2,0,1.7,0,2.9,0.1c0,0.5,0,0.9,0,1.4
						c-1.8-0.1-2.7-0.1-4.5-0.1C71.2,29,71.2,27.1,71.2,23.2z"/>
					<path class="st2" d="M78.7,33.1c-0.6,0-1-0.1-1.6-0.1c0-3.9,0-5.8,0-9.7c0.6,0,1,0,1.6,0c0,1.7,0,2.6,0,4.3c0.9,0,1.2,0,2,0.1
						c0-1.7,0-2.6,0-4.3c0.8,0,1.1,0,1.7,0c0,4.1,0,6,0,10.1c-0.8-0.1-1.1-0.1-1.7-0.1c0-1.7,0-2.6,0-4.3c-0.9,0-1.2-0.1-2-0.1
						C78.7,30.5,78.7,31.4,78.7,33.1z"/>
					<path class="st2" d="M84,23.2c1.1,0,1.6,0,2.8,0c1.6,0,2.5,1,2.5,2.8c0,2.3,0,3.3,0,5.6c0,1.7-0.9,2.6-2.5,2.4
						c-1.1-0.1-1.6-0.2-2.8-0.3C84,29.4,84,27.4,84,23.2z M85.8,24.8c0,3,0,4.5,0,7.5c0.4,0,0.6,0.1,1,0.1c0.5,0.1,0.9-0.2,0.9-0.9
						c0-2.3,0-3.3,0-5.6c0-0.8-0.4-1-0.9-1c-0.4,0-0.6,0-1,0C85.8,24.9,85.8,24.8,85.8,24.8z"/>
				</g>
			</g>
		</g>
		<g>
			<g>
				<path class="st2" d="M31.2,9.5c0,1,0,1.5,0,2.5c0,3.1-1.6,5-4.7,5.2c-0.6,0-0.9,0.1-1.5,0.1c0,3,0,4.5,0,7.5
					C23.6,25,23,25,21.7,25.2c0-8.2,0-12.3,0-20.5c1.9,0,2.8-0.1,4.7-0.1C29.7,4.7,31.2,6.4,31.2,9.5z M24.9,7.7c0,2.7,0,4.1,0,6.8
					c0.6,0,0.9-0.1,1.5-0.1c1-0.1,1.6-0.5,1.6-1.9c0-1.2,0-1.8,0-3c0-1.4-0.5-1.8-1.6-1.8C25.8,7.7,25.6,7.7,24.9,7.7z"/>
				<path class="st2" d="M37,12.5c1.7-0.1,2.7-0.1,4.4-0.2c0,1.1,0,1.6,0,2.7c-1.7,0.1-2.7,0.1-4.4,0.2c0,2.3,0,3.3,0,5.6
					c2.3-0.2,3.3-0.3,5.6-0.4c0,1.1,0,1.6,0,2.7c-3.6,0.3-5.3,0.4-8.7,0.9c0-7.6,0-11.5,0-19.2c3.3-0.2,5.2-0.2,8.6-0.3
					c0,1.1,0,1.6,0,2.7c-2.3,0-3.3,0.1-5.6,0.1C37,9.4,37,10.5,37,12.5z"/>
				<path class="st2" d="M45.4,4.4c1.3,0,1.9,0,3.2,0c0,6.2,0,9.4,0,15.6c2.2-0.1,3.1-0.2,5.3-0.2c0,1.1,0,1.5,0,2.6
					c-3.4,0.2-5.1,0.2-8.5,0.5C45.4,15.4,45.4,11.8,45.4,4.4z"/>
				<path class="st2" d="M61.2,0.6c-1.2,1.1-1.8,1.7-3,2.8c-0.9,0-1.3,0-2.2,0c0.8-1.2,1.2-1.7,1.9-2.8C59.3,0.6,60,0.6,61.2,0.6z
					 M56.2,4.3c1.3,0,1.9,0,3.2,0c0,7.1,0,10.7,0,17.8c-1.3,0-1.9,0.1-3.2,0.1C56.2,15,56.2,11.4,56.2,4.3z"/>
				<path class="st2" d="M71.9,15.3c0,1,0,1.4,0,2.4c0,2.8-1.6,4.4-4.8,4.4c-3.1,0-4.8-1.5-4.8-4.4c0-3.7,0-5.5,0-9.2
					c0-2.8,1.6-4.4,4.8-4.4c3.1,0,4.7,1.6,4.7,4.4c0,0.6,0,1.1,0,1.7c-1.2,0-1.8,0-3,0c0-0.8,0-1.2,0-1.9c0-1.3-0.6-1.7-1.6-1.7
					s-1.6,0.5-1.6,1.7c0,3.8,0,5.7,0,9.5c0,1.3,0.6,1.7,1.6,1.7c1.1,0,1.6-0.4,1.6-1.7c0-1,0-1.5,0-2.5
					C70.1,15.3,70.7,15.3,71.9,15.3z"/>
				<path class="st2" d="M77.8,4.3c0,5.5,0,8.2,0,13.7c0,1.3,0.6,1.7,1.7,1.7c1.1,0,1.6-0.4,1.6-1.7c0-5.5,0-8.2,0-13.7
					c1.2,0,1.8,0,3,0c0,5.4,0,8.2,0,13.6c0,2.8-1.6,4.4-4.8,4.3c-3.1-0.1-4.8-1.7-4.8-4.5c0-5.4,0-8.1,0-13.5
					C75.9,4.3,76.5,4.3,77.8,4.3z"/>
				<path class="st2" d="M87.3,4.3c1.3,0,1.9,0,3.2,0c0,6.1,0,9.3,0,15.5c2.2,0.1,3.1,0.2,5.3,0.3c0,1.1,0,1.6,0,2.6
					c-3.4-0.2-5.1-0.3-8.5-0.5C87.3,15.1,87.3,11.6,87.3,4.3z"/>
				<path class="st2" d="M108.5,23.9c-1.3-0.1-1.9-0.2-3.2-0.3c-0.2-1.4-0.3-2-0.5-3.4c-1.6-0.1-2.4-0.2-4-0.3
					c-0.2,1.3-0.3,2-0.5,3.3c-1.2-0.1-1.7-0.1-2.9-0.2c1.3-7.3,1.9-11,3.2-18.4c1.8,0,2.8,0,4.7,0.1
					C106.5,12.2,107.3,16.1,108.5,23.9z M101.2,17.3c1.2,0.1,1.8,0.1,3.1,0.2c-0.6-3.9-1-5.8-1.6-9.6
					C102.1,11.7,101.8,13.5,101.2,17.3z"/>
				<path class="st2" d="M115.2,4.5c3.1,0.1,4.7,1.9,4.7,5.3c0,0.2,0,0.4,0,0.6c-1.2-0.1-1.8-0.1-3-0.2c0-0.3,0-0.5,0-0.9
					c0-1.4-0.5-2-1.6-2c-1,0-1.6,0.4-1.6,1.9c0,4.1,6.2,5.3,6.2,11.1c0,3.2-1.6,4.8-4.7,4.5c-3.1-0.4-4.7-2.4-4.7-5.5
					c0-0.4,0-0.8,0-1.2c1.2,0.1,1.8,0.1,3,0.2c0,0.5,0,0.9,0,1.4c0,1.4,0.6,1.9,1.6,2.2c1,0.1,1.6-0.3,1.6-1.7
					c0-4.1-6.2-5.4-6.2-10.9C110.5,6.3,112.1,4.4,115.2,4.5z"/>
			</g>
		</g>
	</g>
	<g id="Capa_2_1_">
		<g>
			<g>
				<path class="st2" d="M52.7,30.9c0.9,0,1.3-0.1,2.2-0.1c0,1.2,0,1.7,0,2.9c0,1.5-0.8,2.4-2.3,2.6c-1.5,0.2-2.3-0.5-2.3-2.2
					c0-2,0-3,0-5.1c0-1.5,0.8-2.5,2.3-2.5c1.5,0,2.3,0.9,2.3,2.3c0,0.3,0,0.5,0,0.9c-0.5,0-0.9,0-1.4,0.1c0-0.4,0-0.6,0-1
					c0-0.6-0.3-0.9-0.8-0.9c-0.5,0-0.8,0.3-0.8,1c0,2,0,3.1,0,5.2c0,0.6,0.3,0.9,0.8,0.9c0.5,0,0.8-0.3,0.8-1s0-1.1,0-1.7
					c-0.3,0-0.4,0-0.6,0C52.7,31.8,52.7,31.5,52.7,30.9z"/>
				<path class="st2" d="M59.4,35.6c-0.1-0.2-0.1-0.3-0.1-1.1c0-0.5,0-0.9,0-1.4c0-0.9-0.3-1.1-1-1.1c-0.2,0-0.3,0-0.5,0
					c0,1.4,0,2.2,0,3.7c-0.6,0.1-1,0.1-1.5,0.1c0-3.6,0-5.4,0-9.1c1,0,1.4,0,2.3,0c1.6,0,2.3,0.6,2.3,1.9c0,0.3,0,0.4,0,0.6
					c0,0.9-0.3,1.5-1,1.8c0.8,0.2,1,0.9,1,1.8c0,0.5,0,0.8,0,1.3c0,0.4,0,0.8,0.2,1.1C60.4,35.5,60.1,35.5,59.4,35.6z M57.8,28
					c0,1.1,0,1.6,0,2.7c0.2,0,0.3,0,0.6,0c0.5,0,1-0.2,1-1c0-0.3,0-0.5,0-0.9c0-0.6-0.2-0.9-0.8-0.9C58.2,28,58.1,28,57.8,28z"/>
				<path class="st2" d="M67.2,35.1c-0.6,0-1,0-1.5,0c-0.1-0.6-0.1-0.9-0.2-1.5c-0.8,0-1.1,0-1.8,0.1c-0.1,0.6-0.1,1-0.2,1.5
					c-0.5,0-0.9,0-1.4,0.1c0.6-3.4,1-5.2,1.6-8.5c0.9,0,1.3,0,2.3,0C66.3,30.2,66.5,31.8,67.2,35.1z M63.7,32.6c0.5,0,0.9,0,1.5,0
					c-0.3-1.7-0.4-2.6-0.8-4.2C64.2,30,64.1,30.8,63.7,32.6z"/>
				<path class="st2" d="M67.9,26.8c1.9,0,2.8,0,4.7,0c0,0.4,0,0.8,0,1.2c-0.6,0-1,0-1.6,0c0,2.8,0,4.2,0,7.1c-0.6,0-1,0-1.5,0
					c0-2.8,0-4.2,0-7.1c-0.6,0-1,0-1.6,0C67.9,27.5,67.9,27.3,67.9,26.8z"/>
				<path class="st2" d="M73.7,26.8c0.6,0,1,0,1.5,0c0,3.3,0,5,0,8.3c-0.6,0-1,0-1.5,0C73.7,31.8,73.7,30.1,73.7,26.8z"/>
				<path class="st2" d="M78.8,26.7c1.5,0,2.3,0.8,2.3,2.2c0,0.1,0,0.1,0,0.2c-0.5,0-0.9,0-1.4,0c0-0.1,0-0.2,0-0.3
					c0-0.6-0.3-0.9-0.8-0.9c-0.5,0-0.8,0.2-0.8,0.9c0,1.7,3,2.2,3,4.5c0,1.4-0.8,2-2.3,2c-1.5-0.1-2.3-0.9-2.3-2.2
					c0-0.2,0-0.3,0-0.5c0.5,0,0.9,0,1.4,0c0,0.2,0,0.3,0,0.6c0,0.6,0.3,0.9,0.8,0.9s0.8-0.2,0.8-0.8c0-1.7-3-2.2-3-4.5
					C76.5,27.5,77.3,26.7,78.8,26.7z"/>
				<path class="st2" d="M82.3,28.9c0-1.4,0.9-2.2,2.3-2.2c1.5,0,2.4,0.9,2.4,2.3c0,1.8,0,2.8,0,4.6c0,1.4-0.9,2.2-2.3,2
					c-1.5-0.1-2.4-1-2.4-2.4C82.3,31.6,82.3,30.6,82.3,28.9z M83.8,33.5c0,0.6,0.3,0.9,0.8,0.9c0.5,0,0.8-0.2,0.8-0.9
					c0-1.9,0-2.9,0-4.7c0-0.6-0.3-0.9-0.8-0.9c-0.5,0-0.8,0.2-0.8,0.9C83.8,30.7,83.8,31.6,83.8,33.5z"/>
				<path class="st2" d="M89.7,29.3c0,2.7,0,4,0,6.7c-0.5-0.1-0.9-0.1-1.4-0.1c0-3.7,0-5.5,0-9.2c0.8,0,1.2,0,1.9,0
					c0.6,2.3,1,3.3,1.6,5.7c0-2.3,0-3.4,0-5.7c0.5,0,0.9,0,1.4,0c0,3.9,0,5.8,0,9.7c-0.6-0.1-1-0.1-1.6-0.2
					C90.8,33.5,90.4,32.1,89.7,29.3z"/>
			</g>
		</g>
	</g>
</g>
</svg>
