<?xml version="1.0" encoding="utf-8"?>
<!-- Generator: Adobe Illustrator 22.1.0, SVG Export Plug-In . SVG Version: 6.00 Build 0)  -->
<svg version="1.1" id="Capa_1" xmlns="http://www.w3.org/2000/svg" xmlns:xlink="http://www.w3.org/1999/xlink" x="0px" y="0px"
	 viewBox="0 0 141 32" style="enable-background:new 0 0 141 32;" xml:space="preserve">
<style type="text/css">
	.st0{display:none;}
	.st1{display:inline;}
	.st2{fill:#E40913;}
</style>
<g>
	<g class="st0">
		<g class="st1">
			<g>
				<path class="st2" d="M31,13.6c0.8-5,1.2-7.5,2-12.3c1.6,0,2.4,0,4,0c0,6.6,0,10,0,16.6c-1.1,0.1-1.6,0.2-2.7,0.4
					c0-4.9,0-7.2,0-12.1c-0.8,4.9-1.2,7.4-2,12.4c-1.1,0.1-1.6,0.3-2.7,0.4c-1-4.8-1.4-7.3-2.3-12.2c0,5.1,0,7.6,0,12.6
					c-1,0.1-1.5,0.3-2.5,0.4c0-7.3,0-10.9,0-18.3c1.6,0,2.4,0,4,0C29.8,6.3,30.2,8.8,31,13.6z"/>
				<path class="st2" d="M42.7,8.1C44.3,8,45,8,46.6,8c0,0.9,0,1.3,0,2.2c-1.6,0.1-2.3,0.1-3.9,0.2c0,1.8,0,2.8,0,4.7
					c2-0.1,3-0.3,4.9-0.4c0,0.9,0,1.3,0,2.2c-3.1,0.4-4.6,0.4-7.8,0.8c0-6.6,0-9.9,0-16.4c3.1,0,4.7,0,7.8,0c0,0.9,0,1.3,0,2.2
					c-2,0-3,0-4.9,0.1C42.7,5.3,42.7,6.2,42.7,8.1z"/>
				<path class="st2" d="M54.5,8.1c1.6,0,2.4,0,4-0.1c0,1.9,0,2.8,0,4.8c0,2.5-1.5,3.9-4.3,4c-2.8,0.1-4.3-1.2-4.3-3.6
					c0-3.2,0-4.9,0-8.1c0-2.5,1.5-3.9,4.3-3.9s4.3,1.3,4.3,3.8c0,0.6,0,0.9,0,1.5c-1.1,0-1.7,0-2.8,0c0-0.7,0-0.9,0-1.7
					c0-1.1-0.6-1.5-1.5-1.5s-1.5,0.4-1.5,1.5c0,3.3,0,5,0,8.4c0,1.1,0.6,1.5,1.5,1.4c0.9,0,1.5-0.5,1.5-1.5c0-1.1,0-1.7,0-2.7
					c-0.5,0-0.8,0-1.3,0C54.5,9.4,54.5,9,54.5,8.1z"/>
				<path class="st2" d="M70.4,16.1c-1.2,0-1.8,0-2.9,0c-0.2-1.1-0.3-1.7-0.5-2.6c-1.4,0-2.1,0-3.5,0c-0.2,1.1-0.3,1.7-0.5,2.7
					c-1.1,0-1.6,0-2.7,0.1c1.2-6.1,1.8-9.1,2.9-15c1.7,0,2.5,0,4.2,0C68.6,7.2,69.2,10.2,70.4,16.1z M63.8,11.5c1.1,0,1.7,0,2.8,0
					C66.1,8.4,65.8,7,65.3,4C64.6,6.9,64.4,8.5,63.8,11.5z"/>
				<path class="st2" d="M81,5c0,0.8,0,1.2,0,2c0,2.4-1.4,3.7-4.3,3.6c-0.6,0-0.8,0-1.3,0c0,2.2,0,3.4,0,5.6c-1.2,0-1.8,0-2.8,0
					c0-5.9,0-8.9,0-14.9c1.7,0,2.5,0,4.3,0C79.6,1.3,81,2.6,81,5z M75.4,3.4c0,2.1,0,3,0,5c0.6,0,0.8,0,1.3,0c0.9,0,1.4-0.3,1.4-1.4
					c0-0.8,0-1.3,0-2.2c0-1.1-0.5-1.4-1.4-1.4C76.2,3.4,75.9,3.4,75.4,3.4z"/>
				<path class="st2" d="M86,7.6c1.6,0,2.3,0,3.9,0.1c0,0.9,0,1.3,0,2.2c-1.6,0-2.3-0.1-3.9-0.1c0,1.8,0,2.7,0,4.5
					c2,0.1,3,0.1,4.9,0.3c0,0.9,0,1.3,0,2.2c-3.2-0.2-4.7-0.3-7.8-0.4c0-6,0-9.1,0-15c3.2,0,4.7,0,7.8,0c0,0.9,0,1.3,0,2.2
					c-2,0-3,0-4.9,0C86,5.2,86,6,86,7.6z"/>
				<path class="st2" d="M93.5,1.3c1.2,0,1.8,0,2.8,0c0,5.5,0,8.2,0,13.6c1.9,0.1,2.8,0.2,4.8,0.4c0,1,0,1.4,0,2.3
					c-3-0.4-4.6-0.4-7.6-0.7C93.5,10.7,93.5,7.6,93.5,1.3z"/>
				<path class="st2" d="M103.1,1.3c1.2,0,1.8,0,2.8,0c0,6.7,0,10,0,16.8c-1.2-0.1-1.8-0.3-2.8-0.4C103.1,11.2,103.1,7.9,103.1,1.3z
					"/>
				<path class="st2" d="M112.7,1.1c2.8,0,4.3,1.7,4.3,4.6c0,0.3,0,0.3,0,0.6c-1.1,0-1.6-0.1-2.7-0.1c0-0.3,0-0.4,0-0.8
					c0-1.3-0.5-1.8-1.4-1.8s-1.4,0.5-1.4,1.8c0,3.7,5.6,4.7,5.6,9.9c0,2.9-1.4,4.3-4.3,4c-2.8-0.4-4.3-2.1-4.3-4.9
					c0-0.4,0-0.7,0-1.1c1.1,0.1,1.6,0.1,2.7,0.3c0,0.5,0,0.8,0,1.3c0,1.3,0.6,1.8,1.5,1.8c0.9,0.1,1.5-0.2,1.5-1.5
					c0-3.7-5.6-4.8-5.6-9.7C108.4,2.7,109.9,1.1,112.7,1.1z"/>
			</g>
		</g>
	</g>
</g>
<g>
	<g>
		<path class="st2" d="M8.3,2.7c4.1,0,5.7,1.8,5.7,5.5c0,0.5,0,0.7,0,1.2c0,2.6-0.8,4.3-3.1,5.1c2.6,0.5,3.5,2.4,3.5,5.1
			c0,0.8,0,1.3,0,2.1c0,3.7-1.9,6.1-6,6.6c-2.4,0.3-3.6,0.5-6.1,0.8c0-10.6,0-15.9,0-26.5C4.7,2.7,5.9,2.7,8.3,2.7z M7.6,13.6
			c2.3-0.1,3.6-0.9,3.6-3.6c0-0.6,0-0.9,0-1.5c0-2.2-0.8-3.3-2.9-3.3c-1.2,0-1.7,0-2.9,0c0,3.4,0,5.1,0,8.4
			C6.2,13.7,6.7,13.7,7.6,13.6z M8.4,25.8c2.1-0.2,3.1-1.4,3.1-3.8c0-0.9,0-1.3,0-2.2c0-2.8-1.2-3.7-3.7-3.5c-1,0.1-1.5,0.1-2.6,0.2
			c0,3.9,0,5.8,0,9.7C6.5,26,7.2,25.9,8.4,25.8z"/>
		<path class="st2" d="M17.1,27.3c0-9.9,0-14.8,0.1-24.6c1.2,0,1.8,0,3,0c0,8.7,0,13.1-0.1,21.9c3-0.3,4.5-0.4,7.6-0.7
			c0,1,0,1.4,0,2.4C23.4,26.7,21.3,26.9,17.1,27.3z"/>
		<path class="st2" d="M29.7,8.3c0-3.6,2-5.9,6.1-5.9c4.1,0,6.1,2.2,6.1,5.7c0,4.7,0,7,0,11.7c0,3.4-2,5.8-6.1,6.1
			c-4,0.3-6-1.9-6-5.4C29.7,15.6,29.7,13.2,29.7,8.3z M32.6,20.4c0,2.1,1,3.3,3.1,3.1c2.2-0.1,3.1-1.4,3.2-3.5c0-4.8,0-7.2,0-12
			c0-2-1-3.3-3.1-3.3c-2.1,0-3.1,1.3-3.1,3.4C32.6,13,32.6,15.5,32.6,20.4z"/>
		<path class="st2" d="M56.3,8c0,0.8,0,1.1,0,1.9c-1.1,0-1.7,0-2.8,0c0-0.8,0-1.2,0-2c0-2-0.9-3.2-3.1-3.2c-2.1,0-3.1,1.2-3.1,3.2
			c0,4.7,0,7.1,0,11.8c0,2,1,3.2,3.1,3.1c2.2-0.1,3.1-1.3,3.1-3.3c0-1.8,0-2.6,0-4.4c-1.1,0-1.6,0-2.7,0.1c0-0.9,0-1.3,0-2.2
			c2.2,0,3.3-0.1,5.5-0.1c0,2.6,0,3.9,0,6.5c0,3.3-1.9,5.6-6,5.7c-4.1,0.2-5.9-2-5.9-5.4c0-4.6,0-7,0-11.6c0-3.4,1.9-5.6,6-5.6
			C54.4,2.4,56.3,4.6,56.3,8z"/>
		<path class="st2" d="M68.2,12.8c0,0.9,0,1.3,0,2.2c-2.4,0-3.7,0-6.1,0c0,3.8,0,5.7,0,9.4c-1.2,0-1.8,0-3,0.1c0-8.7,0-13.1,0-21.9
			c4.2,0,6.3,0,10.5,0c0,0.9,0,1.3,0,2.2c-3,0-4.5,0-7.6,0c0,3.2,0,4.8,0,7.9C64.5,12.8,65.7,12.8,68.2,12.8z"/>
		<path class="st2" d="M74.8,19.3c0,2,0.9,3.1,3.1,3.2c2.1,0,3.1-1.1,3.1-3.1c0-6.7,0-10,0-16.7c1.1,0,1.7,0,2.8,0
			c0,6.6,0,10,0,16.6c0,3.3-1.8,5.5-5.9,5.4c-4.1-0.1-5.9-2.2-5.9-5.5c0-6.6,0-9.9,0-16.5c1.2,0,1.7,0,2.9,0
			C74.8,9.3,74.8,12.6,74.8,19.3z"/>
		<path class="st2" d="M86.7,24.6c0-8.8,0-13.2,0-22c1.2,0,1.8,0,3,0c0,7.9,0,11.9,0,19.8c3,0.1,4.5,0.2,7.6,0.3c0,0.9,0,1.4,0,2.3
			C93,24.8,90.9,24.8,86.7,24.6z"/>
		<path class="st2" d="M99.4,25.2c0-9,0-13.5-0.1-22.5c1.2,0,1.8,0,3,0c0,8.2,0,12.2,0.1,20.4c3,0.2,4.5,0.3,7.6,0.5
			c0,0.9,0,1.4,0,2.4C105.7,25.6,103.6,25.4,99.4,25.2z"/>
		<path class="st2" d="M115.1,15.7c0,4.3,0,6.4,0,10.7c-1.2-0.1-1.8-0.2-3-0.3c0-9.4,0-14-0.1-23.4c1.2,0,1.8,0,3,0
			c0,4.3,0,6.4,0,10.7c2.6,0.1,3.9,0.2,6.5,0.3c0-4.4,0-6.6,0-10.9c1.2,0,1.8,0,3,0c0,9.8,0,14.8,0.1,24.6c-1.2-0.1-1.8-0.2-2.9-0.3
			c0-4.4,0-6.6,0-10.9C119,15.9,117.7,15.8,115.1,15.7z"/>
		<path class="st2" d="M133.7,2.7c4.1,0,6,2.5,6,6.6c0,5.3,0,8,0,13.4c0,4-1.9,6.3-6,5.7c-2.5-0.3-3.7-0.5-6.2-0.8c0-10,0-15,0-24.9
			C130,2.7,131.3,2.7,133.7,2.7z M133.7,25.8c2.1,0.2,3.1-0.9,3.1-3.3c0-5.4,0-8,0-13.4c0-2.4-1-3.7-3.2-3.7c-1.3,0-1.9,0-3.2,0
			c0,8.1,0,12.1,0,20.2C131.8,25.5,132.4,25.6,133.7,25.8z"/>
	</g>
</g>
</svg>
