<?xml version="1.0" encoding="utf-8"?>
<!-- Generator: Adobe Illustrator 22.1.0, SVG Export Plug-In . SVG Version: 6.00 Build 0)  -->
<svg version="1.1" id="Capa_1" xmlns="http://www.w3.org/2000/svg" xmlns:xlink="http://www.w3.org/1999/xlink" x="0px" y="0px"
	 viewBox="0 0 300 300" style="enable-background:new 0 0 300 300;" xml:space="preserve">
<style type="text/css">
	.st0{fill:#31274D;}
	.st1{font-family:'Oasis';}
	.st2{font-size:17.2645px;}
	.st3{fill:#1DB954;}
</style>
<text transform="matrix(1 0 0 1 38.5718 152.0146)" class="st0 st1 st2">Good song mp3</text>
<path class="st0" d="M84.4,168.8H65.6V300h18.8c5.2,0,9.4-4.2,9.4-9.4V178.1C93.8,173,89.5,168.8,84.4,168.8z"/>
<path class="st0" d="M215.6,168.8c-5.2,0-9.4,4.2-9.4,9.4v112.5c0,5.2,4.2,9.4,9.4,9.4h18.8V168.8H215.6z"/>
<path class="st3" d="M300,150C300,67.2,232.8,0,150,0S0,67.2,0,150c0,18,3.2,35.2,9,51.2c-5.7,9.7-9,21.1-9,33.1
	c0,33.1,24.5,60.4,56.3,65V169.4c-9.3,1.3-18.1,4.6-25.7,9.5c-1.6-7.8-2.4-15.9-2.4-24.2C28.1,87.4,82.7,32.8,150,32.8
	s121.9,54.6,121.9,121.9c0,8.3-0.8,16.4-2.4,24.2c-7.7-4.8-16.4-8.2-25.7-9.5v129.9c31.8-4.5,56.3-31.9,56.3-65
	c0-12.1-3.3-23.4-9-33.1C296.8,185.2,300,168,300,150L300,150z"/>
</svg>
