<svg xmlns="http://www.w3.org/2000/svg" width="300" viewBox="0 0 224.88 51.75" height="69" version="1.0"><defs><clipPath id="a"><path d="M3.145 6.703h35.828v35.828H3.145Zm0 0"/></clipPath><clipPath id="b"><path d="M8 15h30.973v27H8Zm0 0"/></clipPath></defs><g clip-path="url(#a)"><path fill="#01a341" d="M38.98 24.625c0 7.883-5.09 14.574-12.16 16.973l-.285.093c-.25.079-.504.153-.762.223a17.989 17.989 0 0 1-4.707.625c-.136 0-.27-.004-.398-.004-9.711-.21-17.52-8.148-17.52-17.91 0-9.895 8.024-17.914 17.918-17.914 7.832 0 14.489 5.023 16.922 12.023.059.168.117.34.168.512.024.074.043.145.067.215.054.191.109.383.16.574a17.978 17.978 0 0 1 .598 4.59Zm0 0"/></g><g clip-path="url(#b)"><path fill="#ffba00" d="M38.98 24.625c0 7.883-5.09 14.574-12.16 16.973l-.285.093L8.242 31.586l6.942-8.191 8.593.445 10.387.344-2.906-4.07-6.64-4.848 13.542 3.98c.024.074.043.145.067.215.054.191.109.383.16.574.066.25.129.5.183.754.266 1.234.41 2.52.41 3.836Zm0 0"/></g><path fill="#e2e1e1" d="M7.559 23.102a.77.77 0 0 1-.41-1.418l9.956-6.313a.71.71 0 0 1 .122-.062c.789-.32 2.187-.27 2.812 1.175a.772.772 0 0 1-1.418.61c-.152-.36-.414-.485-.77-.375L7.97 22.984a.736.736 0 0 1-.41.118ZM34.758 23.102a.802.802 0 0 1-.414-.118L24.46 16.72c-.356-.114-.613.011-.77.375a.77.77 0 1 1-1.414-.61c.621-1.445 2.024-1.496 2.809-1.18.043.02.086.04.125.067l9.957 6.309c.36.23.465.703.234 1.062a.747.747 0 0 1-.644.36Zm0 0"/><path fill="#fff" d="M17.238 31.586H8.242a1.573 1.573 0 0 1-1.57-1.45l-.52-6.863a1.573 1.573 0 0 1 1.567-1.691h10.043c.914 0 1.636.781 1.566 1.691l-.52 6.864a1.578 1.578 0 0 1-1.57 1.449Zm0 0"/><path fill="#ea4334" d="M16 30.207H9.48a1.135 1.135 0 0 1-1.136-1.05l-.38-4.973a1.14 1.14 0 0 1 1.138-1.223h7.277c.66 0 1.183.566 1.137 1.223l-.38 4.972A1.14 1.14 0 0 1 16 30.207Zm0 0"/><path fill="#fff" d="M33.887 31.586H24.89c-.82 0-1.504-.633-1.567-1.45l-.52-6.863a1.573 1.573 0 0 1 1.567-1.691h10.043c.914 0 1.637.781 1.566 1.691l-.52 6.864a1.579 1.579 0 0 1-1.573 1.449Zm0 0"/><path fill="#217ef5" d="M32.648 30.207h-6.52a1.14 1.14 0 0 1-1.136-1.05l-.375-4.973a1.137 1.137 0 0 1 1.137-1.223h7.273a1.14 1.14 0 0 1 1.137 1.223l-.375 4.972a1.145 1.145 0 0 1-1.14 1.051Zm0 0"/><path fill="#fff" d="M18.602 22.96h5.628v1.763h-5.628Zm0 0"/><path d="m71.697 11.772-7.468 16.23-7.39-16.23h-5.595v23.465h5.16v-14l6.336 14h2.973l6.375-13.96v13.96h5.164V11.772ZM87.48 35.55c5.243 0 8.684-3.442 8.684-8.133 0-4.695-3.441-8.137-8.683-8.137-5.243 0-8.723 3.442-8.723 8.137 0 4.691 3.48 8.133 8.723 8.133Zm0-4.418c-2.152-.04-3.714-1.606-3.714-3.715 0-2.113 1.562-3.68 3.715-3.719 2.113.04 3.714 1.606 3.714 3.719 0 2.11-1.601 3.676-3.714 3.715ZM107.14 19.593l-3.285 10.285-3.324-10.285h-5.32l6.258 15.644h4.691l6.336-15.644ZM115.185 16.972c1.484 0 2.734-1.25 2.734-2.739a2.746 2.746 0 0 0-2.734-2.738 2.747 2.747 0 0 0-2.739 2.738c0 1.489 1.25 2.739 2.739 2.739Zm-2.504 18.265h4.964V19.593h-4.964ZM136.292 27.378c0-4.89-3.363-8.137-8.41-8.137-5.043 0-8.605 3.285-8.605 8.176 0 4.887 3.523 8.133 8.761 8.133 4.344 0 7.235-2.309 8.02-5.711h-4.813c-.43 1.254-1.562 1.996-3.285 1.996-2.27 0-3.441-1.371-3.636-3.598h11.968Zm-8.332-4.305c1.684 0 2.66.781 3.168 2.153h-6.492c.508-1.333 1.567-2.153 3.324-2.153ZM142.807 35.55c3.52 0 5.672-2.153 5.672-5.086 0-3.13-2.582-4.38-4.808-5.238-1.137-.47-1.684-.704-1.684-1.293 0-.508.39-.899 1.25-.899 1.02 0 1.957.547 2.426 1.133l2.504-2.813c-1.172-1.175-3.09-2.074-5.281-2.074-3.56 0-5.825 2.348-5.825 5.008 0 3.129 3.13 4.184 4.926 4.848 1.41.547 1.879.937 1.879 1.488 0 .625-.55.977-1.371.977-.82 0-1.914-.313-2.621-1.645l-3.676 1.84c.941 2.426 3.832 3.754 6.61 3.754Zm0 0" fill="#80868b"/><path d="M159.148 34.49V13.789h7.36c1.5 0 2.82.277 3.968.828 1.156.543 2.113 1.281 2.875 2.219.77.93 1.352 2.027 1.75 3.296a13.03 13.03 0 0 1 .61 4.016c0 1.45-.215 2.805-.641 4.063-.418 1.25-.996 2.343-1.735 3.28a8.417 8.417 0 0 1-2.625 2.204 6.924 6.924 0 0 1-3.265.797Zm7.25-2.827c1.101 0 2.047-.203 2.828-.61a5.605 5.605 0 0 0 1.922-1.64 6.798 6.798 0 0 0 1.11-2.39c.238-.915.359-1.876.359-2.876 0-.988-.121-1.945-.36-2.875-.23-.926-.594-1.738-1.094-2.437a5.427 5.427 0 0 0-1.921-1.672c-.793-.414-1.743-.625-2.844-.625h-4.188v15.125ZM186.428 23.1c-.136-.062-.273-.117-.406-.172a4.103 4.103 0 0 0-.422-.109 1.888 1.888 0 0 0-.484-.063 4.41 4.41 0 0 0-1.594.282c-.48.18-.898.422-1.25.734-.344.313-.621.68-.828 1.094-.2.418-.297.86-.297 1.328l-.031 8.297h-2.844V20.506h2.25l.594 1.547a4.269 4.269 0 0 1 1.531-1.359c.633-.344 1.426-.516 2.375-.516.625 0 1.336.09 2.14.266ZM191.12 34.49h-2.828V20.507h2.812Zm-1.422-17.03c-.512 0-.945-.176-1.297-.532a1.824 1.824 0 0 1-.515-1.297c0-.507.171-.937.515-1.28a1.768 1.768 0 0 1 1.297-.532c.5 0 .926.18 1.281.531.352.344.532.774.532 1.281 0 .5-.18.934-.532 1.297a1.743 1.743 0 0 1-1.281.532ZM201.734 34.49h-3.782l-5.78-13.984h3.077l4.61 11.125 4.609-11.125h3.078ZM215.366 34.835a7.202 7.202 0 0 1-2.844-.563 7.202 7.202 0 0 1-2.328-1.562 7.464 7.464 0 0 1-1.563-2.344 7.32 7.32 0 0 1-.562-2.86 7.7 7.7 0 0 1 .531-2.859 7.45 7.45 0 0 1 1.469-2.328 6.737 6.737 0 0 1 2.14-1.563 6.135 6.135 0 0 1 2.626-.578c.957 0 1.835.168 2.64.5a5.52 5.52 0 0 1 2.11 1.547c.593.7 1.054 1.59 1.39 2.672.332 1.086.5 2.375.5 3.875H211.07c.133.5.348.969.64 1.406.29.438.633.82 1.032 1.141a4.617 4.617 0 0 0 2.922 1.016c.738 0 1.422-.133 2.047-.407a5.33 5.33 0 0 0 1.625-1.093l1.75 1.765c-.68.68-1.512 1.219-2.5 1.625-.98.406-2.055.61-3.22.61Zm-.531-12.079c-.45 0-.872.09-1.266.266a3.883 3.883 0 0 0-1.11.719 4.378 4.378 0 0 0-.874 1.11c-.243.429-.422.898-.547 1.405h7.39a4.638 4.638 0 0 0-.328-1.343 3.4 3.4 0 0 0-.719-1.125c-.312-.32-.68-.57-1.093-.75-.418-.188-.903-.282-1.453-.282Zm0 0" fill="#5f6368"/></svg>