<svg xmlns="http://www.w3.org/2000/svg" xmlns:xlink="http://www.w3.org/1999/xlink" width="300" zoomAndPan="magnify" viewBox="0 0 224.87999 51.749998" height="69" preserveAspectRatio="xMidYMid meet" version="1.0"><defs><g/><clipPath id="5d65d25a25"><path d="M 3.144531 6.703125 L 38.972656 6.703125 L 38.972656 42.53125 L 3.144531 42.53125 Z M 3.144531 6.703125 " clip-rule="nonzero"/></clipPath><clipPath id="64d25bcbd1"><path d="M 8 15 L 38.972656 15 L 38.972656 42 L 8 42 Z M 8 15 " clip-rule="nonzero"/></clipPath></defs><g fill="#80868b" fill-opacity="1"><g transform="translate(48.935775, 35.237221)"><g><path d="M 22.761719 -23.464844 L 15.292969 -7.234375 L 7.902344 -23.464844 L 2.308594 -23.464844 L 2.308594 0 L 7.46875 0 L 7.46875 -14 L 13.804688 0 L 16.777344 0 L 23.152344 -13.960938 L 23.152344 0 L 28.316406 0 L 28.316406 -23.464844 Z M 22.761719 -23.464844 "/></g></g></g><g fill="#80868b" fill-opacity="1"><g transform="translate(77.546967, 35.237221)"><g><path d="M 9.933594 0.3125 C 15.175781 0.3125 18.617188 -3.128906 18.617188 -7.820312 C 18.617188 -12.515625 15.175781 -15.957031 9.933594 -15.957031 C 4.691406 -15.957031 1.210938 -12.515625 1.210938 -7.820312 C 1.210938 -3.128906 4.691406 0.3125 9.933594 0.3125 Z M 9.933594 -4.105469 C 7.78125 -4.144531 6.21875 -5.710938 6.21875 -7.820312 C 6.21875 -9.933594 7.78125 -11.5 9.933594 -11.539062 C 12.046875 -11.5 13.648438 -9.933594 13.648438 -7.820312 C 13.648438 -5.710938 12.046875 -4.144531 9.933594 -4.105469 Z M 9.933594 -4.105469 "/></g></g></g><g fill="#80868b" fill-opacity="1"><g transform="translate(95.40617, 35.237221)"><g><path d="M 11.734375 -15.644531 L 8.449219 -5.359375 L 5.125 -15.644531 L -0.195312 -15.644531 L 6.0625 0 L 10.753906 0 L 17.089844 -15.644531 Z M 11.734375 -15.644531 "/></g></g></g><g fill="#80868b" fill-opacity="1"><g transform="translate(110.293919, 35.237221)"><g><path d="M 4.890625 -18.265625 C 6.375 -18.265625 7.625 -19.515625 7.625 -21.003906 C 7.625 -22.527344 6.375 -23.742188 4.890625 -23.742188 C 3.402344 -23.742188 2.152344 -22.527344 2.152344 -21.003906 C 2.152344 -19.515625 3.402344 -18.265625 4.890625 -18.265625 Z M 2.386719 0 L 7.351562 0 L 7.351562 -15.644531 L 2.386719 -15.644531 Z M 2.386719 0 "/></g></g></g><g fill="#80868b" fill-opacity="1"><g transform="translate(118.065798, 35.237221)"><g><path d="M 18.226562 -7.859375 C 18.226562 -12.75 14.863281 -15.996094 9.816406 -15.996094 C 4.773438 -15.996094 1.210938 -12.710938 1.210938 -7.820312 C 1.210938 -2.933594 4.734375 0.3125 9.972656 0.3125 C 14.316406 0.3125 17.207031 -1.996094 17.992188 -5.398438 L 13.179688 -5.398438 C 12.75 -4.144531 11.617188 -3.402344 9.894531 -3.402344 C 7.625 -3.402344 6.453125 -4.773438 6.257812 -7 L 18.226562 -7 Z M 9.894531 -12.164062 C 11.578125 -12.164062 12.554688 -11.382812 13.0625 -10.011719 L 6.570312 -10.011719 C 7.078125 -11.34375 8.136719 -12.164062 9.894531 -12.164062 Z M 9.894531 -12.164062 "/></g></g></g><g fill="#80868b" fill-opacity="1"><g transform="translate(135.455828, 35.237221)"><g><path d="M 7.351562 0.3125 C 10.871094 0.3125 13.023438 -1.839844 13.023438 -4.773438 C 13.023438 -7.902344 10.441406 -9.152344 8.214844 -10.011719 C 7.078125 -10.480469 6.53125 -10.714844 6.53125 -11.304688 C 6.53125 -11.8125 6.921875 -12.203125 7.78125 -12.203125 C 8.800781 -12.203125 9.738281 -11.65625 10.207031 -11.070312 L 12.710938 -13.882812 C 11.539062 -15.058594 9.621094 -15.957031 7.429688 -15.957031 C 3.871094 -15.957031 1.605469 -13.609375 1.605469 -10.949219 C 1.605469 -7.820312 4.734375 -6.765625 6.53125 -6.101562 C 7.941406 -5.554688 8.410156 -5.164062 8.410156 -4.613281 C 8.410156 -3.988281 7.859375 -3.636719 7.039062 -3.636719 C 6.21875 -3.636719 5.125 -3.949219 4.417969 -5.28125 L 0.742188 -3.441406 C 1.683594 -1.015625 4.574219 0.3125 7.351562 0.3125 Z M 7.351562 0.3125 "/></g></g></g><g fill="#5f6368" fill-opacity="1"><g transform="translate(157.397863, 34.490827)"><g><path d="M 1.75 0 L 1.75 -20.703125 L 9.109375 -20.703125 C 10.609375 -20.703125 11.929688 -20.425781 13.078125 -19.875 C 14.234375 -19.332031 15.191406 -18.59375 15.953125 -17.65625 C 16.722656 -16.726562 17.304688 -15.628906 17.703125 -14.359375 C 18.109375 -13.097656 18.3125 -11.757812 18.3125 -10.34375 C 18.3125 -8.894531 18.097656 -7.539062 17.671875 -6.28125 C 17.253906 -5.03125 16.675781 -3.9375 15.9375 -3 C 15.195312 -2.070312 14.320312 -1.335938 13.3125 -0.796875 C 12.300781 -0.265625 11.210938 0 10.046875 0 Z M 9 -2.828125 C 10.101562 -2.828125 11.046875 -3.03125 11.828125 -3.4375 C 12.609375 -3.851562 13.25 -4.398438 13.75 -5.078125 C 14.257812 -5.765625 14.628906 -6.5625 14.859375 -7.46875 C 15.097656 -8.382812 15.21875 -9.34375 15.21875 -10.34375 C 15.21875 -11.332031 15.097656 -12.289062 14.859375 -13.21875 C 14.628906 -14.144531 14.265625 -14.957031 13.765625 -15.65625 C 13.273438 -16.351562 12.632812 -16.910156 11.84375 -17.328125 C 11.050781 -17.742188 10.101562 -17.953125 9 -17.953125 L 4.8125 -17.953125 L 4.8125 -2.828125 Z M 9 -2.828125 "/></g></g></g><g fill="#5f6368" fill-opacity="1"><g transform="translate(176.350228, 34.490827)"><g><path d="M 10.078125 -11.390625 C 9.941406 -11.453125 9.804688 -11.507812 9.671875 -11.5625 C 9.546875 -11.601562 9.40625 -11.640625 9.25 -11.671875 C 9.101562 -11.710938 8.941406 -11.734375 8.765625 -11.734375 C 8.191406 -11.734375 7.660156 -11.640625 7.171875 -11.453125 C 6.691406 -11.273438 6.273438 -11.03125 5.921875 -10.71875 C 5.578125 -10.40625 5.300781 -10.039062 5.09375 -9.625 C 4.894531 -9.207031 4.796875 -8.765625 4.796875 -8.296875 L 4.765625 0 L 1.921875 0 L 1.921875 -13.984375 L 4.171875 -13.984375 L 4.765625 -12.4375 C 5.148438 -13 5.660156 -13.453125 6.296875 -13.796875 C 6.929688 -14.140625 7.722656 -14.3125 8.671875 -14.3125 C 9.296875 -14.3125 10.007812 -14.222656 10.8125 -14.046875 Z M 10.078125 -11.390625 "/></g></g></g><g fill="#5f6368" fill-opacity="1"><g transform="translate(186.54179, 34.490827)"><g><path d="M 4.578125 0 L 1.75 0 L 1.75 -13.984375 L 4.5625 -13.984375 Z M 3.15625 -17.03125 C 2.644531 -17.03125 2.210938 -17.207031 1.859375 -17.5625 C 1.515625 -17.925781 1.34375 -18.359375 1.34375 -18.859375 C 1.34375 -19.367188 1.515625 -19.796875 1.859375 -20.140625 C 2.210938 -20.492188 2.644531 -20.671875 3.15625 -20.671875 C 3.65625 -20.671875 4.082031 -20.492188 4.4375 -20.140625 C 4.789062 -19.796875 4.96875 -19.367188 4.96875 -18.859375 C 4.96875 -18.359375 4.789062 -17.925781 4.4375 -17.5625 C 4.082031 -17.207031 3.65625 -17.03125 3.15625 -17.03125 Z M 3.15625 -17.03125 "/></g></g></g><g fill="#5f6368" fill-opacity="1"><g transform="translate(191.827316, 34.490827)"><g><path d="M 9.90625 0 L 6.125 0 L 0.34375 -13.984375 L 3.421875 -13.984375 L 8.03125 -2.859375 L 12.640625 -13.984375 L 15.71875 -13.984375 Z M 9.90625 0 "/></g></g></g><g fill="#5f6368" fill-opacity="1"><g transform="translate(207.100146, 34.490827)"><g><path d="M 8.265625 0.34375 C 7.253906 0.34375 6.304688 0.15625 5.421875 -0.21875 C 4.535156 -0.59375 3.757812 -1.113281 3.09375 -1.78125 C 2.4375 -2.445312 1.914062 -3.226562 1.53125 -4.125 C 1.15625 -5.019531 0.96875 -5.972656 0.96875 -6.984375 C 0.96875 -7.992188 1.144531 -8.945312 1.5 -9.84375 C 1.863281 -10.738281 2.351562 -11.515625 2.96875 -12.171875 C 3.582031 -12.835938 4.296875 -13.359375 5.109375 -13.734375 C 5.929688 -14.117188 6.804688 -14.3125 7.734375 -14.3125 C 8.691406 -14.3125 9.570312 -14.144531 10.375 -13.8125 C 11.1875 -13.476562 11.890625 -12.960938 12.484375 -12.265625 C 13.078125 -11.566406 13.539062 -10.675781 13.875 -9.59375 C 14.207031 -8.507812 14.375 -7.21875 14.375 -5.71875 L 3.96875 -5.71875 C 4.101562 -5.21875 4.316406 -4.75 4.609375 -4.3125 C 4.898438 -3.875 5.242188 -3.492188 5.640625 -3.171875 C 6.046875 -2.847656 6.492188 -2.597656 6.984375 -2.421875 C 7.484375 -2.242188 8.007812 -2.15625 8.5625 -2.15625 C 9.300781 -2.15625 9.984375 -2.289062 10.609375 -2.5625 C 11.242188 -2.84375 11.785156 -3.207031 12.234375 -3.65625 L 13.984375 -1.890625 C 13.304688 -1.210938 12.472656 -0.671875 11.484375 -0.265625 C 10.503906 0.140625 9.429688 0.34375 8.265625 0.34375 Z M 7.734375 -11.734375 C 7.285156 -11.734375 6.863281 -11.644531 6.46875 -11.46875 C 6.070312 -11.300781 5.703125 -11.0625 5.359375 -10.75 C 5.015625 -10.4375 4.722656 -10.066406 4.484375 -9.640625 C 4.242188 -9.210938 4.0625 -8.742188 3.9375 -8.234375 L 11.328125 -8.234375 C 11.285156 -8.703125 11.175781 -9.148438 11 -9.578125 C 10.832031 -10.003906 10.59375 -10.378906 10.28125 -10.703125 C 9.96875 -11.023438 9.601562 -11.273438 9.1875 -11.453125 C 8.769531 -11.640625 8.285156 -11.734375 7.734375 -11.734375 Z M 7.734375 -11.734375 "/></g></g></g><g clip-path="url(#5d65d25a25)"><path fill="#01a341" d="M 38.980469 24.625 C 38.980469 32.507812 33.890625 39.199219 26.820312 41.597656 C 26.726562 41.628906 26.628906 41.660156 26.535156 41.691406 C 26.285156 41.769531 26.03125 41.84375 25.773438 41.914062 C 25.464844 41.996094 25.15625 42.074219 24.839844 42.140625 C 23.625 42.402344 22.359375 42.539062 21.066406 42.539062 C 20.929688 42.539062 20.796875 42.539062 20.664062 42.535156 C 10.957031 42.320312 3.148438 34.386719 3.148438 24.625 C 3.148438 14.730469 11.171875 6.710938 21.066406 6.710938 C 28.894531 6.710938 35.554688 11.734375 37.988281 18.734375 C 38.046875 18.90625 38.101562 19.074219 38.15625 19.246094 C 38.179688 19.316406 38.203125 19.390625 38.222656 19.460938 C 38.28125 19.652344 38.332031 19.839844 38.382812 20.035156 C 38.449219 20.285156 38.511719 20.535156 38.566406 20.785156 C 38.839844 22.023438 38.980469 23.308594 38.980469 24.625 Z M 38.980469 24.625 " fill-opacity="1" fill-rule="nonzero"/></g><g clip-path="url(#64d25bcbd1)"><path fill="#ffba00" d="M 38.980469 24.625 C 38.980469 32.507812 33.890625 39.199219 26.820312 41.597656 C 26.726562 41.628906 26.628906 41.660156 26.535156 41.691406 L 8.242188 31.585938 L 15.183594 23.394531 L 23.777344 23.839844 L 34.164062 24.183594 L 31.253906 20.113281 L 24.613281 15.265625 L 38.15625 19.246094 C 38.179688 19.316406 38.203125 19.390625 38.222656 19.460938 C 38.28125 19.652344 38.332031 19.839844 38.382812 20.035156 C 38.449219 20.285156 38.511719 20.535156 38.566406 20.785156 C 38.839844 22.023438 38.980469 23.308594 38.980469 24.625 Z M 38.980469 24.625 " fill-opacity="1" fill-rule="nonzero"/></g><path fill="#e2e1e1" d="M 7.558594 23.101562 C 7.304688 23.101562 7.054688 22.976562 6.910156 22.746094 C 6.683594 22.386719 6.789062 21.910156 7.148438 21.683594 L 17.105469 15.371094 C 17.144531 15.347656 17.183594 15.328125 17.226562 15.308594 C 18.015625 14.992188 19.417969 15.039062 20.039062 16.484375 C 20.207031 16.875 20.027344 17.328125 19.636719 17.496094 C 19.246094 17.664062 18.792969 17.484375 18.625 17.09375 C 18.46875 16.734375 18.210938 16.609375 17.851562 16.71875 L 7.96875 22.984375 C 7.84375 23.066406 7.699219 23.101562 7.558594 23.101562 Z M 7.558594 23.101562 " fill-opacity="1" fill-rule="nonzero"/><path fill="#e2e1e1" d="M 34.757812 23.101562 C 34.617188 23.101562 34.472656 23.0625 34.34375 22.984375 L 24.460938 16.71875 C 24.109375 16.605469 23.847656 16.730469 23.691406 17.09375 C 23.523438 17.484375 23.070312 17.664062 22.679688 17.496094 C 22.289062 17.328125 22.109375 16.875 22.277344 16.484375 C 22.898438 15.039062 24.300781 14.988281 25.085938 15.308594 C 25.128906 15.324219 25.171875 15.347656 25.210938 15.371094 L 35.167969 21.679688 C 35.527344 21.910156 35.632812 22.382812 35.40625 22.742188 C 35.261719 22.976562 35.011719 23.101562 34.757812 23.101562 Z M 34.757812 23.101562 " fill-opacity="1" fill-rule="nonzero"/><path fill="#ffffff" d="M 17.238281 31.585938 L 8.242188 31.585938 C 7.417969 31.585938 6.734375 30.953125 6.671875 30.132812 L 6.152344 23.273438 C 6.082031 22.359375 6.804688 21.582031 7.71875 21.582031 L 17.761719 21.582031 C 18.675781 21.582031 19.398438 22.359375 19.328125 23.273438 L 18.808594 30.132812 C 18.742188 30.953125 18.058594 31.585938 17.238281 31.585938 Z M 17.238281 31.585938 " fill-opacity="1" fill-rule="nonzero"/><path fill="#01a341" d="M 16 30.207031 L 9.480469 30.207031 C 8.882812 30.207031 8.386719 29.75 8.34375 29.15625 L 7.964844 24.183594 C 7.914062 23.523438 8.4375 22.960938 9.101562 22.960938 L 16.378906 22.960938 C 17.039062 22.960938 17.5625 23.523438 17.511719 24.183594 L 17.136719 29.15625 C 17.089844 29.75 16.59375 30.207031 16 30.207031 Z M 16 30.207031 " fill-opacity="1" fill-rule="nonzero"/><path fill="#ffffff" d="M 33.890625 31.585938 L 24.890625 31.585938 C 24.070312 31.585938 23.386719 30.953125 23.324219 30.132812 L 22.804688 23.273438 C 22.734375 22.359375 23.457031 21.582031 24.371094 21.582031 L 34.410156 21.582031 C 35.328125 21.582031 36.046875 22.359375 35.980469 23.273438 L 35.457031 30.132812 C 35.394531 30.953125 34.710938 31.585938 33.890625 31.585938 Z M 33.890625 31.585938 " fill-opacity="1" fill-rule="nonzero"/><path fill="#217ef5" d="M 32.648438 30.207031 L 26.128906 30.207031 C 25.535156 30.207031 25.039062 29.75 24.996094 29.15625 L 24.617188 24.183594 C 24.566406 23.523438 25.089844 22.960938 25.753906 22.960938 L 33.027344 22.960938 C 33.691406 22.960938 34.214844 23.523438 34.164062 24.183594 L 33.785156 29.15625 C 33.738281 29.75 33.246094 30.207031 32.648438 30.207031 Z M 32.648438 30.207031 " fill-opacity="1" fill-rule="nonzero"/><path fill="#ffffff" d="M 18.601562 22.960938 L 24.230469 22.960938 L 24.230469 24.722656 L 18.601562 24.722656 Z M 18.601562 22.960938 " fill-opacity="1" fill-rule="nonzero"/></svg>