<?xml version="1.0" encoding="utf-8"?>
<!-- Generator: Adobe Illustrator 22.1.0, SVG Export Plug-In . SVG Version: 6.00 Build 0)  -->
<svg version="1.1" id="Capa_1" xmlns="http://www.w3.org/2000/svg" xmlns:xlink="http://www.w3.org/1999/xlink" x="0px" y="0px"
	 viewBox="0 0 141 32" style="enable-background:new 0 0 141 32;" xml:space="preserve">
<style type="text/css">
	.st0{fill:#E40913;}
</style>
<g>
	<g id="Capa_1_1_">
		<g>
			<g>
				<g>
					<path class="st0" d="M55.2,25.6c0.8-0.1,1.3-0.1,2.2-0.1c0,0.6,0,0.9,0,1.5c-0.8,0.1-1.3,0.1-2.2,0.2c0,1.8,0,2.6,0,4.2
						c-0.6,0.1-0.9,0.1-1.5,0.2c0-4.2,0-6.3,0-10.5c1.8,0,2.6,0,4.3,0c0,0.6,0,0.9,0,1.4c-1.1,0-1.6,0-2.8,0.1
						C55.2,23.8,55.2,24.5,55.2,25.6z"/>
					<path class="st0" d="M60.8,21c0,3,0,4.4,0,7.4c0,0.6,0.4,0.8,0.8,0.8s0.8-0.4,0.8-0.9c0-2.9,0-4.4,0-7.3c0.6,0,0.9,0,1.5,0
						c0,2.9,0,4.2,0,7.1c0,1.5-0.8,2.4-2.5,2.6c-1.5,0.1-2.4-0.6-2.4-2.3c0-3,0-4.4,0-7.4C59.8,21,60.1,21,60.8,21z"/>
					<path class="st0" d="M65.6,21c0.6,0,0.9,0,1.5,0c0,3.1,0,4.7,0,7.8c1.1,0,1.6,0,2.8-0.1c0,0.5,0,0.8,0,1.3
						c-1.8,0-2.6,0-4.3,0.1C65.6,26.6,65.6,24.7,65.6,21z"/>
					<path class="st0" d="M71.2,21c0.6,0,0.9,0,1.5,0c0,3.1,0,4.6,0,7.8c1.1,0,1.6,0,2.8,0.1c0,0.5,0,0.8,0,1.3
						c-1.8-0.1-2.6-0.1-4.3-0.1C71.2,26.5,71.2,24.7,71.2,21z"/>
					<path class="st0" d="M78.4,30.4c-0.6,0-0.9-0.1-1.5-0.1c0-3.7,0-5.6,0-9.3c0.6,0,0.9,0,1.5,0c0,1.6,0,2.5,0,4.1
						c0.8,0,1.1,0,2,0.1c0-1.6,0-2.5,0-4.1c0.7,0,1,0,1.6,0c0,3.9,0,5.8,0,9.7c-0.7-0.1-1-0.1-1.6-0.1c0-1.6,0-2.5,0-4.1
						c-0.8,0-1.1-0.1-2-0.1C78.4,28,78.4,28.8,78.4,30.4z"/>
					<path class="st0" d="M83.4,21c1,0,1.5,0,2.7,0c1.5,0,2.4,0.9,2.4,2.7c0,2.2,0,3.2,0,5.4c0,1.6-0.8,2.5-2.4,2.3
						c-1-0.1-1.5-0.2-2.7-0.3C83.4,26.9,83.4,25,83.4,21z M85.2,22.5c0,2.9,0,4.3,0,7.2c0.4,0,0.6,0.1,0.9,0.1
						c0.5,0.1,0.8-0.2,0.8-0.8c0-2.2,0-3.2,0-5.4c0-0.7-0.4-0.9-0.8-0.9c-0.4,0-0.6,0-0.9,0C85.2,22.6,85.2,22.5,85.2,22.5z"/>
				</g>
			</g>
		</g>
	</g>
	<g>
		<path class="st0" d="M61.7,5.1v1.7h-2V4.9c0-1.7-0.7-2.7-2.2-2.7c-1.5,0-2.2,1-2.2,2.7v10c0,1.7,0.7,2.7,2.2,2.7
			c1.5,0,2.2-1,2.2-2.7v-2.4h2v2.3c0,2.9-1.3,4.7-4.2,4.7c-2.9,0-4.2-1.9-4.2-4.7V5.1c0-2.9,1.3-4.7,4.2-4.7
			C60.4,0.3,61.7,2.2,61.7,5.1z"/>
		<path class="st0" d="M66.5,0.5v18.8h-2.1V0.5H66.5z"/>
		<path class="st0" d="M71.3,19.3h-1.9V0.5H72l4.3,13.6V0.5h1.8v18.8H76L71.3,4.1V19.3z"/>
		<path class="st0" d="M87.8,8.8v1.9h-4.6v6.7h5.6v1.9h-7.7V0.5h7.7v1.9h-5.6v6.4H87.8z"/>
	</g>
</g>
</svg>
