<?xml version="1.0" encoding="utf-8"?>
<!-- Generator: Adobe Illustrator 22.1.0, SVG Export Plug-In . SVG Version: 6.00 Build 0)  -->
<svg version="1.1" id="Capa_1" xmlns="http://www.w3.org/2000/svg" xmlns:xlink="http://www.w3.org/1999/xlink" x="0px" y="0px"
	 viewBox="0 0 42 32" style="enable-background:new 0 0 42 32;" xml:space="preserve">
<style type="text/css">
	.st0{fill:#E40913;}
</style>
<g>
	<path class="st0" d="M12.8,11.3l0.1,1.6c0.1,1.9-0.7,3-2.5,3.1c-1.8,0.1-2.8-0.9-3-2.7L7,7.2c-0.1-1.9,0.7-3,2.5-3.1
		c1.8-0.1,2.8,0.9,2.9,2.7L12.5,8l-1.7,0.1l-0.1-1.3c-0.1-0.8-0.5-1.1-1-1.1C9.1,5.8,8.7,6.1,8.8,7l0.5,6.3c0.1,0.8,0.4,1.1,1,1.1
		c0.6,0,0.9-0.4,0.9-1.2L11,11.5L12.8,11.3z"/>
	<path class="st0" d="M13.9,3.9l1.8-0.1l0.8,11.7l-1.8,0.1L13.9,3.9z"/>
	<path class="st0" d="M19.4,6.7l0.6,8.5l-1.7,0.1L17.5,3.6l2.3-0.2l2.4,6.9l-0.5-7l1.6-0.1l0.8,11.7L22.3,15L19.4,6.7z"/>
	<path class="st0" d="M27.4,7.9l2.5-0.2L30,9.4l-2.5,0.2l0.2,3.4l3.2-0.2l0.1,1.7l-5,0.4L25.2,3.1l5-0.4l0.1,1.7l-3.2,0.2L27.4,7.9z
		"/>
</g>
<g>
	<path class="st0" d="M3.3,22.6l2.4-0.2l0.1,1.7l-2.4,0.2l0.3,4.9l-1.8,0.1L1.1,17.5L6,17.1l0.1,1.7L3,19L3.3,22.6z"/>
	<path class="st0" d="M9.1,16.9L9.7,26c0.1,0.8,0.4,1.1,1,1.1c0.6,0,0.9-0.4,0.9-1.2L11,16.8l1.7-0.1l0.6,9c0.1,1.9-0.7,3-2.6,3.1
		C9,28.9,8,27.9,7.9,26l-0.6-9L9.1,16.9z"/>
	<path class="st0" d="M14.6,16.6l1.8-0.1l0.7,10.1l3-0.2l0.1,1.7l-4.9,0.3L14.6,16.6z"/>
	<path class="st0" d="M20.8,16.2l1.8-0.1l0.7,10.1l3-0.2l0.1,1.7l-4.9,0.3L20.8,16.2z"/>
	<path class="st0" d="M29.6,27.4l-1.8,0.1L27,15.8l1.8-0.1l0.3,5l2.1-0.1l-0.3-5l1.9-0.1l0.8,11.8l-1.9,0.1l-0.3-5l-2.1,0.1
		L29.6,27.4z"/>
	<path class="st0" d="M34.6,15.3l2.9-0.2c1.8-0.1,2.8,0.8,2.9,2.7l0.4,5.9c0.1,1.9-0.7,3-2.6,3.1L35.4,27L34.6,15.3z M36.6,16.8
		l0.5,8.4l1-0.1c0.6,0,0.9-0.4,0.9-1.2l-0.4-6.1c-0.1-0.8-0.4-1.1-1-1.1L36.6,16.8z"/>
</g>
</svg>
