<?xml version="1.0" encoding="utf-8"?>
<!-- Generator: Adobe Illustrator 22.1.0, SVG Export Plug-In . SVG Version: 6.00 Build 0)  -->
<svg version="1.1" xmlns="http://www.w3.org/2000/svg" xmlns:xlink="http://www.w3.org/1999/xlink" x="0px" y="0px"
	 viewBox="0 0 300 300" style="enable-background:new 0 0 300 300;" xml:space="preserve">
<style type="text/css">
	.st0{fill:#31274D;}
	.st1{fill:#1DB954;}
</style>
<g id="Capa_2">
	<rect width="300" height="300"/>
</g>
<g id="Capa_1">
	<g>
		<path class="st0" d="M75,140.7v6.6h-4.1V147c-0.8,0.4-1.7,0.6-2.6,0.6c-1.8,0-3.4-0.7-4.7-2c-1.3-1.3-2-3-2-4.8
			c0-0.7,0.1-1.3,0.3-2h4.6c-0.5,0.5-0.8,1.2-0.8,2s0.2,1.4,0.7,2c0.5,0.5,1.1,0.8,1.9,0.8c0.7,0,1.4-0.3,1.9-0.8
			c0.5-0.5,0.7-1.2,0.7-2H75z M71.8,134.9c1.1,0.7,1.9,1.6,2.5,2.8H62.2c0.6-1.2,1.4-2.1,2.5-2.8c1.1-0.7,2.3-1.1,3.6-1.1
			S70.7,134.2,71.8,134.9z"/>
		<path class="st0" d="M76.2,140.7c0-0.7,0.1-1.3,0.3-2h4.6c-0.5,0.5-0.8,1.2-0.8,2s0.2,1.4,0.7,2c0.5,0.5,1.1,0.8,1.9,0.8
			c0.7,0,1.4-0.3,1.9-0.8c0.5-0.5,0.7-1.2,0.7-2s-0.2-1.4-0.7-2h4.6c0.2,0.6,0.3,1.3,0.3,2c0,1.9-0.7,3.5-2,4.8
			c-1.3,1.3-2.9,2-4.7,2c-1.8,0-3.4-0.7-4.7-2C76.9,144.2,76.2,142.6,76.2,140.7z M76.9,137.8c0.6-1.2,1.4-2.1,2.5-2.8
			c1.1-0.7,2.3-1.1,3.6-1.1s2.5,0.4,3.6,1.1c1.1,0.7,1.9,1.6,2.5,2.8H76.9z"/>
		<path class="st0" d="M91.1,140.7c0-0.7,0.1-1.3,0.3-2H96c-0.5,0.5-0.8,1.2-0.8,2s0.2,1.4,0.7,2c0.5,0.5,1.1,0.8,1.9,0.8
			c0.7,0,1.4-0.3,1.9-0.8c0.5-0.5,0.7-1.2,0.7-2s-0.2-1.4-0.7-2h4.6c0.2,0.6,0.3,1.3,0.3,2c0,1.9-0.7,3.5-2,4.8
			c-1.3,1.3-2.9,2-4.7,2c-1.8,0-3.4-0.7-4.7-2C91.7,144.2,91.1,142.6,91.1,140.7z M91.8,137.8c0.6-1.2,1.4-2.1,2.5-2.8
			c1.1-0.7,2.3-1.1,3.6-1.1c1.3,0,2.5,0.4,3.6,1.1c1.1,0.7,1.9,1.6,2.5,2.8H91.8z"/>
		<path class="st0" d="M119.7,137.7h-13.8v-3.9h7.3c1.5,0,2.8,0.4,4,1.1C118.3,135.6,119.1,136.6,119.7,137.7z M105.9,147.3v-8.5
			h4.1v8.5H105.9z M120.1,138.8c0.2,0.6,0.3,1.3,0.3,2c0,2.1-0.7,3.8-2.1,5.1c-1.2,1.1-2.6,1.7-4.2,1.7c-0.8,0-1.3,0-1.5,0
			c-0.6,0-1.2-0.1-1.7-0.3v-3.8c0.5,0.1,1.4,0.2,2.5,0.2c0.8,0,1.4-0.3,1.9-0.8c0.6-0.6,0.9-1.3,0.9-2.2c0-0.7-0.2-1.4-0.7-1.9
			H120.1z"/>
		<path class="st0" d="M136.9,138.8c0.1,0.1,0.9,0.3,2.2,0.8c1.2,0.4,2.1,0.9,2.7,1.3c0.9,0.6,1.3,1.4,1.3,2.3c0,1.3-0.4,2.3-1.3,3
			c-0.8,0.7-2,1.1-3.4,1.1h-5.9v-3.8h5.6c0.4,0,0.6-0.2,0.6-0.5c0-0.3-0.5-0.6-1.4-0.8c-1.4-0.4-2.3-0.7-2.8-1
			c-1.1-0.6-1.7-1.4-1.9-2.4H136.9z M132.4,137.8c0.1-1.1,0.6-1.9,1.5-2.5c0.8-0.6,1.9-0.9,3.2-0.9h5.5v3.4H132.4z"/>
		<path class="st0" d="M144.4,140.7c0-0.7,0.1-1.3,0.3-2h4.6c-0.5,0.5-0.8,1.2-0.8,2s0.2,1.4,0.7,2c0.5,0.5,1.1,0.8,1.9,0.8
			c0.7,0,1.4-0.3,1.9-0.8c0.5-0.5,0.7-1.2,0.7-2s-0.2-1.4-0.7-2h4.6c0.2,0.6,0.3,1.3,0.3,2c0,1.9-0.7,3.5-2,4.8
			c-1.3,1.3-2.9,2-4.7,2c-1.8,0-3.4-0.7-4.7-2C145.1,144.2,144.4,142.6,144.4,140.7z M145.1,137.8c0.6-1.2,1.4-2.1,2.5-2.8
			c1.1-0.7,2.3-1.1,3.6-1.1c1.3,0,2.5,0.4,3.6,1.1c1.1,0.7,1.9,1.6,2.5,2.8H145.1z"/>
		<path class="st0" d="M164.1,138.8c-0.5,0.5-0.8,1.2-0.8,2v6.6h-4.1v-6.6c0-0.7,0.1-1.3,0.3-2H164.1z M169.5,134.9
			c1.1,0.7,1.9,1.6,2.5,2.8h-12.1c0.6-1.2,1.4-2.1,2.5-2.8c1.1-0.7,2.3-1.1,3.6-1.1C167.2,133.9,168.4,134.2,169.5,134.9z
			 M172.7,140.7v6.6h-4.1v-6.6c0-0.8-0.2-1.4-0.7-2h4.6C172.6,139.4,172.7,140.1,172.7,140.7z"/>
		<path class="st0" d="M187.7,140.7v6.6h-4.1V147c-0.8,0.4-1.7,0.6-2.6,0.6c-1.8,0-3.4-0.7-4.7-2c-1.3-1.3-2-3-2-4.8
			c0-0.7,0.1-1.3,0.3-2h4.6c-0.5,0.5-0.8,1.2-0.8,2s0.2,1.4,0.7,2c0.5,0.5,1.1,0.8,1.9,0.8c0.7,0,1.4-0.3,1.9-0.8
			c0.5-0.5,0.7-1.2,0.7-2H187.7z M184.5,134.9c1.1,0.7,1.9,1.6,2.5,2.8h-12.1c0.6-1.2,1.4-2.1,2.5-2.8c1.1-0.7,2.3-1.1,3.6-1.1
			C182.2,133.9,183.4,134.2,184.5,134.9z"/>
		<path class="st0" d="M199.7,138.8h4.1v8.5h-4.1V138.8z M199.7,137.8c0.1-1.2,0.5-2.1,1.2-2.8c0.7-0.7,1.7-1.1,2.8-1.1
			c1.2,0,2.3,0.8,3.1,2.4c0.9-1.6,1.9-2.4,3.1-2.4c1.2,0,2.1,0.4,2.8,1.1c0.7,0.7,1.1,1.6,1.2,2.8H199.7z M204.6,138.8h4.5
			c-0.2,0.6-0.4,1-0.5,1.4c-0.6,1.7-1.2,2.5-1.8,2.5c-0.6,0-1.2-0.8-1.8-2.5C204.9,139.5,204.7,139.1,204.6,138.8z M210,138.8h4.1
			v8.5H210V138.8z"/>
		<path class="st0" d="M215.7,137.8v-3.4h8.8c1.3,0,2.4,0.3,3.2,0.9c0.8,0.6,1.3,1.4,1.5,2.5H215.7z M219.8,147.3h-4.1v-8.5h4.1
			V147.3z M222.8,139.5c0.7-0.3,1.2-0.5,1.5-0.7h4.8c-0.2,1.2-1.6,2.3-4.2,3.3c-0.8,0.3-2.3,0.8-4.3,1.4v-3.3
			C221.4,140,222.1,139.7,222.8,139.5z"/>
		<path class="st0" d="M229.9,137.8v-3.4h3.8c1.3,0,2.4,0.3,3.2,0.9c0.8,0.6,1.3,1.4,1.5,2.5H229.9z M238.4,143.5
			c0,1.3-0.4,2.3-1.1,3c-0.8,0.7-1.8,1.1-3.1,1.1c-0.2,0-0.4,0-0.5,0c-2,0-3.3-0.1-3.8-0.3v-3.8c2.1,0.2,3.2,0.3,3.4,0.3
			c0.4,0,0.6-0.1,0.6-0.5c0-0.3-0.4-0.5-1.1-0.7c-1.4-0.4-2.1-1-2.1-1.7c0-0.8,0.6-1.4,1.7-1.8c0.5-0.2,0.8-0.3,1-0.4h5
			c-0.1,0.9-0.6,1.6-1.6,2.2C237.9,141.7,238.4,142.5,238.4,143.5z"/>
	</g>
	<path class="st0" d="M97.9,160.9H83v104.3h14.9c4.1,0,7.4-3.4,7.4-7.4v-89.4C105.3,164.2,102,160.9,97.9,160.9z"/>
	<path class="st0" d="M202.1,160.9c-4.1,0-7.4,3.4-7.4,7.4v89.4c0,4.1,3.4,7.4,7.4,7.4H217V160.9H202.1z"/>
	<path class="st1" d="M263.9,146c0-62.9-51-113.9-113.9-113.9S36.1,83.1,36.1,146c0,13.7,2.4,26.8,6.8,38.9
		c-4.3,7.4-6.8,16-6.8,25.2c0,25.1,18.6,45.9,42.7,49.3v-98.6c-7.1,1-13.7,3.5-19.5,7.2c-1.2-5.9-1.8-12.1-1.8-18.4
		C57.5,98.4,98.9,57,150,57s92.5,41.4,92.5,92.5c0,6.3-0.6,12.4-1.8,18.4c-5.8-3.7-12.4-6.2-19.5-7.2v98.6
		c24.1-3.5,42.7-24.2,42.7-49.3c0-9.2-2.5-17.8-6.8-25.2C261.5,172.7,263.9,159.6,263.9,146L263.9,146z"/>
</g>
</svg>
