<?xml version="1.0" encoding="utf-8"?>
<!-- Generator: Adobe Illustrator 22.1.0, SVG Export Plug-In . SVG Version: 6.00 Build 0)  -->
<svg version="1.1" xmlns="http://www.w3.org/2000/svg" xmlns:xlink="http://www.w3.org/1999/xlink" x="0px" y="0px"
	 viewBox="0 0 141 32" style="enable-background:new 0 0 141 32;" xml:space="preserve">
<style type="text/css">
	.st0{display:none;}
	.st1{display:inline;}
	.st2{fill:#E40913;}
</style>
<g id="Capa_1" class="st0">
	<g class="st1">
		<g>
			<g>
				<g>
					<path class="st2" d="M31,13.6c0.8-5,1.2-7.5,2-12.3c1.6,0,2.4,0,4,0c0,6.6,0,10,0,16.6c-1.1,0.1-1.6,0.2-2.7,0.4
						c0-4.9,0-7.2,0-12.1c-0.8,4.9-1.2,7.4-2,12.4c-1.1,0.1-1.6,0.3-2.7,0.4c-1-4.8-1.4-7.3-2.3-12.2c0,5.1,0,7.6,0,12.6
						c-1,0.1-1.5,0.3-2.5,0.4c0-7.3,0-10.9,0-18.3c1.6,0,2.4,0,4,0C29.8,6.3,30.2,8.8,31,13.6z"/>
					<path class="st2" d="M42.7,8.1C44.3,8,45,8,46.6,8c0,0.9,0,1.3,0,2.2c-1.6,0.1-2.3,0.1-3.9,0.2c0,1.8,0,2.8,0,4.7
						c2-0.1,3-0.3,4.9-0.4c0,0.9,0,1.3,0,2.2c-3.1,0.4-4.6,0.4-7.8,0.8c0-6.6,0-9.9,0-16.4c3.1,0,4.7,0,7.8,0c0,0.9,0,1.3,0,2.2
						c-2,0-3,0-4.9,0.1C42.7,5.3,42.7,6.2,42.7,8.1z"/>
					<path class="st2" d="M54.5,8.1c1.6,0,2.4,0,4-0.1c0,1.9,0,2.8,0,4.8c0,2.5-1.5,3.9-4.3,4c-2.8,0.1-4.3-1.2-4.3-3.6
						c0-3.2,0-4.9,0-8.1c0-2.5,1.5-3.9,4.3-3.9s4.3,1.3,4.3,3.8c0,0.6,0,0.9,0,1.5c-1.1,0-1.7,0-2.8,0c0-0.7,0-0.9,0-1.7
						c0-1.1-0.6-1.5-1.5-1.5s-1.5,0.4-1.5,1.5c0,3.3,0,5,0,8.4c0,1.1,0.6,1.5,1.5,1.4c0.9,0,1.5-0.5,1.5-1.5c0-1.1,0-1.7,0-2.7
						c-0.5,0-0.8,0-1.3,0C54.5,9.4,54.5,9,54.5,8.1z"/>
					<path class="st2" d="M70.4,16.1c-1.2,0-1.8,0-2.9,0c-0.2-1.1-0.3-1.7-0.5-2.6c-1.4,0-2.1,0-3.5,0c-0.2,1.1-0.3,1.7-0.5,2.7
						c-1.1,0-1.6,0-2.7,0.1c1.2-6.1,1.8-9.1,2.9-15c1.7,0,2.5,0,4.2,0C68.6,7.2,69.2,10.2,70.4,16.1z M63.8,11.5c1.1,0,1.7,0,2.8,0
						C66.1,8.4,65.8,7,65.3,4C64.6,6.9,64.4,8.5,63.8,11.5z"/>
					<path class="st2" d="M81,5c0,0.8,0,1.2,0,2c0,2.4-1.4,3.7-4.3,3.6c-0.6,0-0.8,0-1.3,0c0,2.2,0,3.4,0,5.6c-1.2,0-1.8,0-2.8,0
						c0-5.9,0-8.9,0-14.9c1.7,0,2.5,0,4.3,0C79.6,1.3,81,2.6,81,5z M75.4,3.4c0,2.1,0,3,0,5c0.6,0,0.8,0,1.3,0
						c0.9,0,1.4-0.3,1.4-1.4c0-0.8,0-1.3,0-2.2c0-1.1-0.5-1.4-1.4-1.4C76.2,3.4,75.9,3.4,75.4,3.4z"/>
					<path class="st2" d="M86,7.6c1.6,0,2.3,0,3.9,0.1c0,0.9,0,1.3,0,2.2c-1.6,0-2.3-0.1-3.9-0.1c0,1.8,0,2.7,0,4.5
						c2,0.1,3,0.1,4.9,0.3c0,0.9,0,1.3,0,2.2c-3.2-0.2-4.7-0.3-7.8-0.4c0-6,0-9.1,0-15c3.2,0,4.7,0,7.8,0c0,0.9,0,1.3,0,2.2
						c-2,0-3,0-4.9,0C86,5.2,86,6,86,7.6z"/>
					<path class="st2" d="M93.5,1.3c1.2,0,1.8,0,2.8,0c0,5.5,0,8.2,0,13.6c1.9,0.1,2.8,0.2,4.8,0.4c0,1,0,1.4,0,2.3
						c-3-0.4-4.6-0.4-7.6-0.7C93.5,10.7,93.5,7.6,93.5,1.3z"/>
					<path class="st2" d="M103.1,1.3c1.2,0,1.8,0,2.8,0c0,6.7,0,10,0,16.8c-1.2-0.1-1.8-0.3-2.8-0.4C103.1,11.2,103.1,7.9,103.1,1.3
						z"/>
					<path class="st2" d="M112.7,1.1c2.8,0,4.3,1.7,4.3,4.6c0,0.3,0,0.3,0,0.6c-1.1,0-1.6-0.1-2.7-0.1c0-0.3,0-0.4,0-0.8
						c0-1.3-0.5-1.8-1.4-1.8s-1.4,0.5-1.4,1.8c0,3.7,5.6,4.7,5.6,9.9c0,2.9-1.4,4.3-4.3,4c-2.8-0.4-4.3-2.1-4.3-4.9
						c0-0.4,0-0.7,0-1.1c1.1,0.1,1.6,0.1,2.7,0.3c0,0.5,0,0.8,0,1.3c0,1.3,0.6,1.8,1.5,1.8c0.9,0.1,1.5-0.2,1.5-1.5
						c0-3.7-5.6-4.8-5.6-9.7C108.4,2.7,109.9,1.1,112.7,1.1z"/>
				</g>
			</g>
		</g>
		<g>
			<g>
				<path class="st2" d="M55.6,25.8c0.8-0.1,1.3-0.1,2.1-0.1c0,0.6,0,0.9,0,1.5c-0.8,0.1-1.3,0.1-2.1,0.2c0,1.7,0,2.5,0,4.1
					c-0.6,0.1-0.9,0.1-1.5,0.2c0-4.1,0-6.1,0-10.2c1.7,0,2.5,0,4.2,0c0,0.6,0,0.9,0,1.4c-1.1,0-1.6,0-2.7,0.1
					C55.6,24.1,55.6,24.7,55.6,25.8z"/>
				<path class="st2" d="M61,21.3c0,2.9,0,4.3,0,7.2c0,0.6,0.4,0.8,0.8,0.8s0.8-0.4,0.8-0.9c0-2.8,0-4.3,0-7.1c0.6,0,0.9,0,1.5,0
					c0,2.8,0,4.1,0,6.9c0,1.5-0.8,2.3-2.4,2.5c-1.5,0.1-2.3-0.6-2.3-2.2c0-2.9,0-4.3,0-7.2C60.1,21.3,60.4,21.3,61,21.3z"/>
				<path class="st2" d="M65.7,21.3c0.6,0,0.9,0,1.5,0c0,3,0,4.6,0,7.6c1.1,0,1.6,0,2.7-0.1c0,0.5,0,0.8,0,1.3c-1.7,0-2.5,0-4.2,0.1
					C65.7,26.8,65.7,24.9,65.7,21.3z"/>
				<path class="st2" d="M71.1,21.3c0.6,0,0.9,0,1.5,0c0,3,0,4.5,0,7.6c1.1,0,1.6,0,2.7,0.1c0,0.5,0,0.8,0,1.3
					c-1.7-0.1-2.5-0.1-4.2-0.1C71.1,26.7,71.1,24.9,71.1,21.3z"/>
				<path class="st2" d="M78.1,30.5c-0.6,0-0.9-0.1-1.5-0.1c0-3.6,0-5.4,0-9c0.6,0,0.9,0,1.5,0c0,1.6,0,2.4,0,4c0.8,0,1.1,0,1.9,0.1
					c0-1.6,0-2.4,0-4c0.7,0,1,0,1.6,0c0,3.8,0,5.6,0,9.4c-0.7-0.1-1-0.1-1.6-0.1c0-1.6,0-2.4,0-4c-0.8,0-1.1-0.1-1.9-0.1
					C78.1,28.1,78.1,28.9,78.1,30.5z"/>
				<path class="st2" d="M83,21.3c1,0,1.5,0,2.6,0c1.5,0,2.3,0.9,2.3,2.6c0,2.1,0,3.1,0,5.2c0,1.6-0.8,2.4-2.3,2.2
					c-1-0.1-1.5-0.2-2.6-0.3C83,27.1,83,25.2,83,21.3z M84.7,22.8c0,2.8,0,4.2,0,7c0.4,0,0.6,0.1,0.9,0.1c0.5,0.1,0.8-0.2,0.8-0.8
					c0-2.1,0-3.1,0-5.2c0-0.7-0.4-0.9-0.8-0.9s-0.6,0-0.9,0C84.7,22.9,84.7,22.8,84.7,22.8z"/>
			</g>
		</g>
	</g>
</g>
<g id="Capa_2">
	<g>
		<g>
			<path class="st2" d="M13.9,9.5c0,1,0,1.4,0,2.4c-1.2,0-1.8,0.1-3,0.1c0-1,0-1.6,0-2.6c0-2.4-1-3.9-3.3-3.9c-2.2,0-3.3,1.5-3.3,4
				c0,5.9,0,8.8,0,14.6c0,2.5,1,3.9,3.3,3.7c2.3-0.2,3.3-1.8,3.3-4.2c0-1.4,0-2.1,0-3.5c1.2-0.1,1.8-0.1,3-0.2c0,1.3,0,2,0,3.3
				c0,4.1-2,6.9-6.3,7.3c-4.3,0.4-6.3-2.1-6.3-6.4c0-5.8,0-8.7,0-14.5c0-4.2,2-7,6.3-7C11.9,2.8,13.9,5.5,13.9,9.5z"/>
			<path class="st2" d="M19.9,3c0,10.5,0,15.8,0,26.3c-1.2,0.1-1.9,0.2-3.1,0.3c0-10.6,0-15.9,0-26.6C18,3,18.6,3,19.9,3z"/>
			<path class="st2" d="M25.8,28.9C24.7,29,24.1,29,23,29.1c0-10.4,0-15.6,0-26.1c1.6,0,2.4,0,4,0c2.6,7.5,3.9,11.1,6.5,18.3
				c0-7.3,0-11,0-18.3c1.1,0,1.7,0,2.8,0c0,10.1,0,15.1,0,25.2c-1.3,0.1-1.9,0.1-3.2,0.2c-2.9-8-4.3-12.1-7.1-20.5
				C25.8,16.4,25.8,20.5,25.8,28.9z"/>
			<path class="st2" d="M49.4,14c0,1,0,1.5,0,2.5c-2.7,0-4.1,0.1-6.9,0.1c0,3.5,0,5.3,0,8.9c3.4-0.1,5.1-0.2,8.4-0.3
				c0,1,0,1.5,0,2.5c-4.6,0.1-6.9,0.2-11.5,0.5c0-10,0-15,0-25.1c4.6,0,6.9,0,11.5,0c0,1,0,1.5,0,2.5c-3.4,0-5,0-8.4,0
				c0,3.4,0,5.1,0,8.5C45.3,14,46.7,14,49.4,14z"/>
			<path class="st2" d="M63.4,14.4c0,1,0,1.5,0,2.5c-2.6,0-3.9,0-6.5,0.1c0,4.2,0,6.4,0,10.6c-1.3,0-1.9,0-3.1,0.1
				c0-9.8,0-14.7,0-24.5c4.5,0,6.7,0,11.1,0c0,1,0,1.5,0,2.5c-3.2,0-4.8,0-8,0c0,3.6,0,5.3,0,8.9C59.6,14.4,60.9,14.4,63.4,14.4z"/>
			<path class="st2" d="M70.4,21.6c0,2.2,1,3.5,3.3,3.5c2.2,0,3.2-1.3,3.2-3.5c0-7.4,0-11.2,0-18.6c1.2,0,1.8,0,2.9,0
				c0,7.4,0,11.1,0,18.5c0,3.7-2,6.1-6.3,6.1c-4.3,0-6.3-2.5-6.3-6.2c0-7.4,0-11.1,0-18.5c1.2,0,1.9,0,3.1,0
				C70.4,10.5,70.4,14.2,70.4,21.6z"/>
			<path class="st2" d="M83,27.5c0-9.8,0-14.7,0-24.4c1.2,0,1.9,0,3.1,0c0,8.8,0,13.2,0,22c3.2,0.1,4.8,0.1,8,0.2c0,1,0,1.5,0,2.5
				C89.7,27.6,87.5,27.6,83,27.5z"/>
			<path class="st2" d="M96.5,27.9c0-9.9,0-14.9,0-24.9c1.2,0,1.9,0,3.1,0c0,9,0,13.5,0,22.5c3.2,0.1,4.8,0.2,8,0.4c0,1,0,1.5,0,2.6
				C103.2,28.2,101,28.1,96.5,27.9z"/>
			<path class="st2" d="M113.1,17.2c0,4.6,0,7,0,11.6c-1.2-0.1-1.9-0.1-3.1-0.2c0-10.2,0-15.3,0-25.6c1.2,0,1.9,0,3.1,0
				c0,4.6,0,7,0,11.6c2.8,0.1,4.1,0.1,6.9,0.2c0-4.7,0-7.1,0-11.8c1.2,0,1.9,0,3.1,0c0,10.6,0,15.9,0,26.5c-1.2-0.1-1.9-0.2-3.1-0.3
				c0-4.7,0-7.1,0-11.8C117.3,17.4,115.9,17.3,113.1,17.2z"/>
			<path class="st2" d="M132.9,3.1c4.4,0,6.4,2.7,6.4,7c0,5.7,0,8.5,0,14.1c0,4.3-2,6.7-6.4,6.3c-2.6-0.3-3.9-0.4-6.6-0.6
				c0-10.7,0-16.1,0-26.8C129,3.1,130.3,3.1,132.9,3.1z M132.9,27.7c2.2,0.2,3.3-1.1,3.3-3.6c0-5.7,0-8.6,0-14.3
				c0-2.5-1.1-3.9-3.4-4c-1.3,0-2,0-3.4,0c0,8.6,0,12.9,0,21.6C130.8,27.5,131.5,27.5,132.9,27.7z"/>
		</g>
	</g>
</g>
</svg>
