<?xml version="1.0" encoding="utf-8"?>
<!-- Generator: Adobe Illustrator 22.1.0, SVG Export Plug-In . SVG Version: 6.00 Build 0)  -->
<svg version="1.1" id="Capa_1" xmlns="http://www.w3.org/2000/svg" xmlns:xlink="http://www.w3.org/1999/xlink" x="0px" y="0px"
	 viewBox="0 0 141 80" style="enable-background:new 0 0 141 80;" xml:space="preserve">
<style type="text/css">
	.st0{fill:#E40913;}
</style>
<g>
	<g>
		<g>
			<g>
				<path class="st0" d="M30.6,26.4c0.8-5,1.2-7.5,2-12.3c1.6,0,2.4,0,4,0c0,6.6,0,10,0,16.6c-1.1,0.1-1.6,0.2-2.7,0.4
					c0-4.9,0-7.2,0-12.1c-0.8,4.9-1.2,7.4-2,12.4c-1.1,0.1-1.6,0.3-2.7,0.4c-1-4.8-1.4-7.3-2.3-12.2c0,5.1,0,7.6,0,12.6
					c-1,0.1-1.5,0.3-2.5,0.4c0-7.3,0-10.9,0-18.3c1.6,0,2.4,0,4,0C29.4,19.1,29.8,21.6,30.6,26.4z"/>
				<path class="st0" d="M42.3,20.9c1.6-0.1,2.3-0.1,3.9-0.1c0,0.9,0,1.3,0,2.2c-1.6,0.1-2.3,0.1-3.9,0.2c0,1.8,0,2.8,0,4.7
					c2-0.1,3-0.3,4.9-0.4c0,0.9,0,1.3,0,2.2c-3.1,0.4-4.6,0.4-7.8,0.8c0-6.6,0-9.9,0-16.4c3.1,0,4.7,0,7.8,0c0,0.9,0,1.3,0,2.2
					c-2,0-3,0-4.9,0.1C42.3,18.1,42.3,19,42.3,20.9z"/>
				<path class="st0" d="M54.1,20.9c1.6,0,2.4,0,4-0.1c0,1.9,0,2.8,0,4.8c0,2.5-1.5,3.9-4.3,4c-2.8,0.1-4.3-1.2-4.3-3.6
					c0-3.2,0-4.9,0-8.1c0-2.5,1.5-3.9,4.3-3.9s4.3,1.3,4.3,3.8c0,0.6,0,0.9,0,1.5c-1.1,0-1.7,0-2.8,0c0-0.7,0-0.9,0-1.7
					c0-1.1-0.6-1.5-1.5-1.5s-1.5,0.4-1.5,1.5c0,3.3,0,5,0,8.4c0,1.1,0.6,1.5,1.5,1.4c0.9,0,1.5-0.5,1.5-1.5c0-1.1,0-1.7,0-2.7
					c-0.5,0-0.8,0-1.3,0C54.1,22.2,54.1,21.8,54.1,20.9z"/>
				<path class="st0" d="M70,28.9c-1.2,0-1.8,0-2.9,0c-0.2-1.1-0.3-1.7-0.5-2.6c-1.4,0-2.1,0-3.5,0c-0.2,1.1-0.3,1.7-0.5,2.7
					c-1.1,0-1.6,0-2.7,0.1c1.2-6.1,1.8-9.1,2.9-15c1.7,0,2.5,0,4.2,0C68.2,20,68.8,23,70,28.9z M63.4,24.3c1.1,0,1.7,0,2.8,0
					c-0.5-3.1-0.8-4.5-1.3-7.5C64.2,19.7,64,21.3,63.4,24.3z"/>
				<path class="st0" d="M80.6,17.8c0,0.8,0,1.2,0,2c0,2.4-1.4,3.7-4.3,3.6c-0.6,0-0.8,0-1.3,0c0,2.2,0,3.4,0,5.6
					c-1.2,0-1.8,0-2.8,0c0-5.9,0-8.9,0-14.9c1.7,0,2.5,0,4.3,0C79.2,14.1,80.6,15.4,80.6,17.8z M75,16.2c0,2.1,0,3,0,5
					c0.6,0,0.8,0,1.3,0c0.9,0,1.4-0.3,1.4-1.4c0-0.8,0-1.3,0-2.2c0-1.1-0.5-1.4-1.4-1.4C75.8,16.2,75.5,16.2,75,16.2z"/>
				<path class="st0" d="M85.6,20.4c1.6,0,2.3,0,3.9,0.1c0,0.9,0,1.3,0,2.2c-1.6,0-2.3-0.1-3.9-0.1c0,1.8,0,2.7,0,4.5
					c2,0.1,3,0.1,4.9,0.3c0,0.9,0,1.3,0,2.2c-3.2-0.2-4.7-0.3-7.8-0.4c0-6,0-9.1,0-15c3.2,0,4.7,0,7.8,0c0,0.9,0,1.3,0,2.2
					c-2,0-3,0-4.9,0C85.6,18,85.6,18.8,85.6,20.4z"/>
				<path class="st0" d="M93.1,14.1c1.2,0,1.8,0,2.8,0c0,5.5,0,8.2,0,13.6c1.9,0.1,2.8,0.2,4.8,0.4c0,1,0,1.4,0,2.3
					c-3-0.4-4.6-0.4-7.6-0.7C93.1,23.5,93.1,20.4,93.1,14.1z"/>
				<path class="st0" d="M102.7,14.1c1.2,0,1.8,0,2.8,0c0,6.7,0,10,0,16.8c-1.2-0.1-1.8-0.3-2.8-0.4C102.7,24,102.7,20.7,102.7,14.1
					z"/>
				<path class="st0" d="M112.3,13.9c2.8,0,4.3,1.7,4.3,4.6c0,0.3,0,0.3,0,0.6c-1.1,0-1.6-0.1-2.7-0.1c0-0.3,0-0.4,0-0.8
					c0-1.3-0.5-1.8-1.4-1.8s-1.4,0.5-1.4,1.8c0,3.7,5.6,4.7,5.6,9.9c0,2.9-1.4,4.3-4.3,4c-2.8-0.4-4.3-2.1-4.3-4.9
					c0-0.4,0-0.7,0-1.1c1.1,0.1,1.6,0.1,2.7,0.3c0,0.5,0,0.8,0,1.3c0,1.3,0.6,1.8,1.5,1.8c0.9,0.1,1.5-0.2,1.5-1.5
					c0-3.7-5.6-4.8-5.6-9.7C108,15.5,109.5,13.9,112.3,13.9z"/>
			</g>
		</g>
	</g>
	<g>
		<g>
			<path class="st0" d="M55.2,38.6c0.8-0.1,1.3-0.1,2.1-0.1c0,0.6,0,0.9,0,1.5c-0.8,0.1-1.3,0.1-2.1,0.2c0,1.7,0,2.5,0,4.1
				c-0.6,0.1-0.9,0.1-1.5,0.2c0-4.1,0-6.1,0-10.2c1.7,0,2.5,0,4.2,0c0,0.6,0,0.9,0,1.4c-1.1,0-1.6,0-2.7,0.1
				C55.2,36.9,55.2,37.5,55.2,38.6z"/>
			<path class="st0" d="M60.6,34.1c0,2.9,0,4.3,0,7.2c0,0.6,0.4,0.8,0.8,0.8s0.8-0.4,0.8-0.9c0-2.8,0-4.3,0-7.1c0.6,0,0.9,0,1.5,0
				c0,2.8,0,4.1,0,6.9c0,1.5-0.8,2.3-2.4,2.5c-1.5,0.1-2.3-0.6-2.3-2.2c0-2.9,0-4.3,0-7.2C59.7,34.1,60,34.1,60.6,34.1z"/>
			<path class="st0" d="M65.3,34.1c0.6,0,0.9,0,1.5,0c0,3,0,4.6,0,7.6c1.1,0,1.6,0,2.7-0.1c0,0.5,0,0.8,0,1.3c-1.7,0-2.5,0-4.2,0.1
				C65.3,39.6,65.3,37.7,65.3,34.1z"/>
			<path class="st0" d="M70.7,34.1c0.6,0,0.9,0,1.5,0c0,3,0,4.5,0,7.6c1.1,0,1.6,0,2.7,0.1c0,0.5,0,0.8,0,1.3
				C73.2,43,72.4,43,70.7,43C70.7,39.5,70.7,37.7,70.7,34.1z"/>
			<path class="st0" d="M77.7,43.3c-0.6,0-0.9-0.1-1.5-0.1c0-3.6,0-5.4,0-9c0.6,0,0.9,0,1.5,0c0,1.6,0,2.4,0,4c0.8,0,1.1,0,1.9,0.1
				c0-1.6,0-2.4,0-4c0.7,0,1,0,1.6,0c0,3.8,0,5.6,0,9.4c-0.7-0.1-1-0.1-1.6-0.1c0-1.6,0-2.4,0-4c-0.8,0-1.1-0.1-1.9-0.1
				C77.7,40.9,77.7,41.7,77.7,43.3z"/>
			<path class="st0" d="M82.6,34.1c1,0,1.5,0,2.6,0c1.5,0,2.3,0.9,2.3,2.6c0,2.1,0,3.1,0,5.2c0,1.6-0.8,2.4-2.3,2.2
				c-1-0.1-1.5-0.2-2.6-0.3C82.6,39.9,82.6,38,82.6,34.1z M84.3,35.6c0,2.8,0,4.2,0,7c0.4,0,0.6,0.1,0.9,0.1
				c0.5,0.1,0.8-0.2,0.8-0.8c0-2.1,0-3.1,0-5.2c0-0.7-0.4-0.9-0.8-0.9s-0.6,0-0.9,0C84.3,35.7,84.3,35.6,84.3,35.6z"/>
		</g>
	</g>
</g>
<g>
	<path d="M10.9,64.5h-0.9L8.7,58v6.4H8v-8.1h1.3l1.3,6.4l1.3-6.4h1.3v8.1h-0.9V58L10.9,64.5z"/>
	<path d="M14.9,56.4v8.1H14v-8.1H14.9z"/>
	<path d="M17.6,56.4c1.3,0,1.8,0.6,1.8,1.8v0.7c0,0.9-0.3,1.4-1,1.7c0.7,0.2,1,0.8,1,1.7v1.3c0,0.4,0,0.7,0.2,1h-0.9
		c-0.1-0.2-0.1-0.4-0.1-1v-1.3c0-0.9-0.4-1.2-1.2-1.2h-0.6v3.4h-0.9v-8.1H17.6z M17.4,60.2c0.7,0,1.1-0.2,1.1-1.1v-0.8
		c0-0.7-0.3-1.1-0.9-1.1h-0.9v3H17.4z"/>
	<path d="M21.3,62.8L21,64.5h-0.8l1.5-8.1H23l1.5,8.1h-0.9l-0.3-1.6H21.3z M21.4,62.1h1.8l-0.9-4.7L21.4,62.1z"/>
	<path d="M28.5,61.6l-1.7-5.2h0.9l1.3,4l1.3-4h0.9l-1.7,5.2v2.9h-0.9V61.6z"/>
	<path d="M35.4,56.4c1.3,0,1.8,0.8,1.8,2v4.1c0,1.2-0.6,2-1.8,2h-1.9v-8.1H35.4z M35.4,63.7c0.6,0,1-0.4,1-1.1v-4.2
		c0-0.7-0.3-1.1-1-1.1h-1v6.4H35.4z"/>
	<path d="M40.9,60v0.8h-2v2.9h2.4v0.8h-3.3v-8.1h3.3v0.8H39V60H40.9z"/>
	<path d="M45.7,58.3v0.2h-0.9v-0.3c0-0.7-0.3-1.2-0.9-1.2c-0.6,0-0.9,0.4-0.9,1.1c0,1.8,2.7,2,2.7,4.3c0,1.2-0.6,2-1.8,2
		s-1.8-0.8-1.8-2v-0.5h0.8v0.5c0,0.7,0.3,1.2,0.9,1.2c0.6,0,0.9-0.4,0.9-1.2c0-1.8-2.7-2-2.7-4.2c0-1.2,0.6-2,1.8-2
		C45.1,56.3,45.7,57.1,45.7,58.3z"/>
	<path d="M50.1,58.3v0.7h-0.9v-0.8c0-0.7-0.3-1.2-0.9-1.2c-0.6,0-0.9,0.4-0.9,1.2v4.3c0,0.7,0.3,1.2,0.9,1.2c0.7,0,0.9-0.4,0.9-1.2
		v-1h0.9v1c0,1.2-0.6,2-1.8,2c-1.2,0-1.8-0.8-1.8-2v-4.2c0-1.2,0.6-2,1.8-2C49.5,56.3,50.1,57.1,50.1,58.3z"/>
	<path d="M51.8,62.8l-0.3,1.6h-0.8l1.5-8.1h1.3l1.5,8.1h-0.9l-0.3-1.6H51.8z M51.9,62.1h1.8l-0.9-4.7L51.9,62.1z"/>
	<path d="M57.6,56.4c1.3,0,1.8,0.6,1.8,1.8v0.7c0,0.9-0.3,1.4-1,1.7c0.7,0.2,1,0.8,1,1.7v1.3c0,0.4,0,0.7,0.2,1h-0.9
		c-0.1-0.2-0.1-0.4-0.1-1v-1.3c0-0.9-0.4-1.2-1.2-1.2h-0.6v3.4h-0.9v-8.1H57.6z M57.3,60.2c0.7,0,1.1-0.2,1.1-1.1v-0.8
		c0-0.7-0.3-1.1-0.9-1.1h-0.9v3H57.3z"/>
	<path d="M63.9,58.3V59H63v-0.7c0-0.7-0.3-1.2-0.9-1.2c-0.6,0-0.9,0.4-0.9,1.2v4.3c0,0.7,0.3,1.2,0.9,1.2c0.7,0,0.9-0.4,0.9-1.2V61
		h-0.8v-0.8h1.7v2.4c0,1.2-0.6,2-1.8,2c-1.2,0-1.8-0.8-1.8-2v-4.2c0-1.2,0.6-2,1.8-2C63.3,56.3,63.9,57.1,63.9,58.3z"/>
	<path d="M65.6,62.8l-0.3,1.6h-0.8l1.5-8.1h1.3l1.5,8.1H68l-0.3-1.6H65.6z M65.7,62.1h1.8l-0.9-4.7L65.7,62.1z"/>
	<path d="M73.1,56.4c1.3,0,1.8,0.8,1.8,2v1c0,1.3-0.6,1.9-1.9,1.9h-0.8v3.2h-0.9v-8.1H73.1z M73.1,60.5c0.7,0,1-0.3,1-1.1v-1.1
		c0-0.7-0.3-1.1-0.9-1.1h-0.9v3.3H73.1z"/>
	<path d="M78.5,60v0.8h-2v2.9H79v0.8h-3.3v-8.1H79v0.8h-2.4V60H78.5z"/>
	<path d="M79.8,64.5v-8.1h0.9v7.3H83v0.8H79.8z"/>
	<path d="M84.4,54.8h0.9l-1.1,1.2h-0.6L84.4,54.8z M83.7,56.4h0.9v8.1h-0.9V56.4z"/>
	<path d="M89.1,58.3v0.7h-0.9v-0.8c0-0.7-0.3-1.2-0.9-1.2c-0.6,0-0.9,0.4-0.9,1.2v4.3c0,0.7,0.3,1.2,0.9,1.2c0.7,0,0.9-0.4,0.9-1.2
		v-1h0.9v1c0,1.2-0.6,2-1.8,2c-1.2,0-1.8-0.8-1.8-2v-4.2c0-1.2,0.6-2,1.8-2C88.5,56.3,89.1,57.1,89.1,58.3z"/>
	<path d="M90.8,62.6c0,0.7,0.3,1.2,0.9,1.2c0.6,0,0.9-0.4,0.9-1.2v-6.2h0.8v6.1c0,1.2-0.6,2-1.8,2c-1.2,0-1.8-0.8-1.8-2v-6.1h0.9
		V62.6z"/>
	<path d="M94.4,64.5v-8.1h0.9v7.3h2.3v0.8H94.4z"/>
	<path d="M99.2,62.8l-0.3,1.6H98l1.5-8.1h1.3l1.5,8.1h-0.9l-0.3-1.6H99.2z M99.3,62.1h1.8l-0.9-4.7L99.3,62.1z"/>
	<path d="M106.6,58.3v0.2h-0.9v-0.3c0-0.7-0.3-1.2-0.9-1.2s-0.9,0.4-0.9,1.1c0,1.8,2.7,2,2.7,4.3c0,1.2-0.6,2-1.8,2
		c-1.2,0-1.8-0.8-1.8-2v-0.5h0.8v0.5c0,0.7,0.3,1.2,0.9,1.2s0.9-0.4,0.9-1.2c0-1.8-2.7-2-2.7-4.2c0-1.2,0.6-2,1.8-2
		C106.1,56.3,106.6,57.1,106.6,58.3z"/>
	<path d="M112.8,58.3V59h-0.9v-0.7c0-0.7-0.3-1.2-0.9-1.2c-0.6,0-0.9,0.4-0.9,1.2v4.3c0,0.7,0.3,1.2,0.9,1.2c0.7,0,0.9-0.4,0.9-1.2
		V61h-0.8v-0.8h1.7v2.4c0,1.2-0.6,2-1.8,2c-1.2,0-1.8-0.8-1.8-2v-4.2c0-1.2,0.6-2,1.8-2C112.2,56.3,112.8,57.1,112.8,58.3z"/>
	<path d="M115.4,56.4c1.3,0,1.8,0.6,1.8,1.8v0.7c0,0.9-0.3,1.4-1,1.7c0.7,0.2,1,0.8,1,1.7v1.3c0,0.4,0,0.7,0.2,1h-0.9
		c-0.1-0.2-0.1-0.4-0.1-1v-1.3c0-0.9-0.4-1.2-1.2-1.2h-0.6v3.4h-0.9v-8.1H115.4z M115.2,60.2c0.7,0,1.1-0.2,1.1-1.1v-0.8
		c0-0.7-0.3-1.1-0.9-1.1h-0.9v3H115.2z"/>
	<path d="M119.1,62.8l-0.3,1.6h-0.8l1.5-8.1h1.3l1.5,8.1h-0.9l-0.3-1.6H119.1z M119.2,62.1h1.8l-0.9-4.7L119.2,62.1z"/>
	<path d="M123.8,64.5v-7.3h-1.5v-0.8h3.9v0.8h-1.5v7.3H123.8z"/>
	<path d="M127.7,56.4v8.1h-0.9v-8.1H127.7z"/>
	<path d="M132.1,58.3v0.2h-0.9v-0.3c0-0.7-0.3-1.2-0.9-1.2c-0.6,0-0.9,0.4-0.9,1.1c0,1.8,2.7,2,2.7,4.3c0,1.2-0.6,2-1.8,2
		c-1.2,0-1.8-0.8-1.8-2v-0.5h0.8v0.5c0,0.7,0.3,1.2,0.9,1.2c0.6,0,0.9-0.4,0.9-1.2c0-1.8-2.7-2-2.7-4.2c0-1.2,0.6-2,1.8-2
		C131.5,56.3,132.1,57.1,132.1,58.3z"/>
</g>
</svg>
