<svg xmlns="http://www.w3.org/2000/svg" xmlns:xlink="http://www.w3.org/1999/xlink" width="262" zoomAndPan="magnify" viewBox="0 0 196.5 48.75" height="65" preserveAspectRatio="xMidYMid meet" version="1.0"><defs><g/><clipPath id="6fb14c642b"><path d="M 0.253906 8 L 16 8 L 16 39 L 0.253906 39 Z M 0.253906 8 " clip-rule="nonzero"/></clipPath></defs><g clip-path="url(#6fb14c642b)"><g fill="#ff3131" fill-opacity="1"><g transform="translate(0.25255, 38.403013)"><g><path d="M 8.390625 0.28125 C 5.691406 0.28125 3.738281 -0.390625 2.53125 -1.734375 C 1.332031 -3.078125 0.734375 -5.238281 0.734375 -8.21875 L 0.734375 -11.140625 L 6.59375 -11.140625 L 6.59375 -7.421875 C 6.59375 -5.941406 7.066406 -5.203125 8.015625 -5.203125 C 8.546875 -5.203125 8.914062 -5.359375 9.125 -5.671875 C 9.332031 -5.984375 9.4375 -6.507812 9.4375 -7.25 C 9.4375 -8.21875 9.316406 -9.019531 9.078125 -9.65625 C 8.847656 -10.289062 8.554688 -10.820312 8.203125 -11.25 C 7.847656 -11.675781 7.207031 -12.34375 6.28125 -13.25 L 3.71875 -15.8125 C 1.726562 -17.757812 0.734375 -19.910156 0.734375 -22.265625 C 0.734375 -24.804688 1.316406 -26.742188 2.484375 -28.078125 C 3.648438 -29.410156 5.351562 -30.078125 7.59375 -30.078125 C 10.28125 -30.078125 12.210938 -29.363281 13.390625 -27.9375 C 14.566406 -26.519531 15.15625 -24.296875 15.15625 -21.265625 L 9.09375 -21.265625 L 9.046875 -23.3125 C 9.046875 -23.707031 8.9375 -24.019531 8.71875 -24.25 C 8.5 -24.476562 8.195312 -24.59375 7.8125 -24.59375 C 7.34375 -24.59375 6.992188 -24.460938 6.765625 -24.203125 C 6.535156 -23.953125 6.421875 -23.609375 6.421875 -23.171875 C 6.421875 -22.203125 6.972656 -21.195312 8.078125 -20.15625 L 11.546875 -16.828125 C 12.359375 -16.035156 13.03125 -15.285156 13.5625 -14.578125 C 14.09375 -13.878906 14.519531 -13.050781 14.84375 -12.09375 C 15.164062 -11.132812 15.328125 -9.992188 15.328125 -8.671875 C 15.328125 -5.734375 14.789062 -3.503906 13.71875 -1.984375 C 12.644531 -0.472656 10.867188 0.28125 8.390625 0.28125 Z M 8.390625 0.28125 "/></g></g></g></g><g fill="#ff3131" fill-opacity="1"><g transform="translate(16.237912, 38.403013)"><g><path d="M 8.421875 0.28125 C 6.023438 0.28125 4.203125 -0.453125 2.953125 -1.921875 C 1.703125 -3.390625 1.078125 -5.453125 1.078125 -8.109375 L 1.078125 -22.296875 C 1.078125 -24.867188 1.703125 -26.804688 2.953125 -28.109375 C 4.203125 -29.421875 6.023438 -30.078125 8.421875 -30.078125 C 10.828125 -30.078125 12.65625 -29.421875 13.90625 -28.109375 C 15.15625 -26.804688 15.78125 -24.867188 15.78125 -22.296875 L 15.78125 -8.109375 C 15.78125 -5.429688 15.15625 -3.363281 13.90625 -1.90625 C 12.65625 -0.445312 10.828125 0.28125 8.421875 0.28125 Z M 8.421875 -5.203125 C 8.960938 -5.203125 9.320312 -5.429688 9.5 -5.890625 C 9.6875 -6.359375 9.78125 -7.007812 9.78125 -7.84375 L 9.78125 -22.40625 C 9.78125 -23.050781 9.691406 -23.578125 9.515625 -23.984375 C 9.347656 -24.390625 9 -24.59375 8.46875 -24.59375 C 7.46875 -24.59375 6.96875 -23.84375 6.96875 -22.34375 L 6.96875 -7.8125 C 6.96875 -6.945312 7.070312 -6.296875 7.28125 -5.859375 C 7.488281 -5.421875 7.867188 -5.203125 8.421875 -5.203125 Z M 8.421875 -5.203125 "/></g></g></g><g fill="#ff3131" fill-opacity="1"><g transform="translate(33.090161, 38.403013)"><g><path d="M 4.921875 0 L 4.921875 -9.8125 L 0.171875 -29.796875 L 6.078125 -29.796875 L 7.734375 -19.703125 L 9.40625 -29.796875 L 15.296875 -29.796875 L 10.546875 -9.8125 L 10.546875 0 Z M 4.921875 0 "/></g></g></g><g fill="#ff3131" fill-opacity="1"><g transform="translate(48.555396, 38.403013)"><g/></g></g><g fill="#ff3131" fill-opacity="1"><g transform="translate(56.66944, 38.403013)"><g><path d="M 1.3125 0 L 1.3125 -29.796875 L 13.25 -29.796875 L 13.25 -24 L 7.3125 -24 L 7.3125 -19.25 L 12.9375 -19.25 L 12.9375 -13.53125 L 7.3125 -13.53125 L 7.3125 0 Z M 1.3125 0 "/></g></g></g><g fill="#ff3131" fill-opacity="1"><g transform="translate(70.504925, 38.403013)"><g><path d="M 8.21875 0.28125 C 5.769531 0.28125 3.945312 -0.410156 2.75 -1.796875 C 1.5625 -3.191406 0.96875 -5.253906 0.96875 -7.984375 L 0.96875 -29.796875 L 6.765625 -29.796875 L 6.765625 -8.21875 C 6.765625 -7.269531 6.851562 -6.53125 7.03125 -6 C 7.21875 -5.46875 7.613281 -5.203125 8.21875 -5.203125 C 8.820312 -5.203125 9.210938 -5.460938 9.390625 -5.984375 C 9.578125 -6.503906 9.671875 -7.25 9.671875 -8.21875 L 9.671875 -29.796875 L 15.46875 -29.796875 L 15.46875 -7.984375 C 15.46875 -5.253906 14.867188 -3.191406 13.671875 -1.796875 C 12.484375 -0.410156 10.664062 0.28125 8.21875 0.28125 Z M 8.21875 0.28125 "/></g></g></g><g fill="#ff3131" fill-opacity="1"><g transform="translate(86.941073, 38.403013)"><g><path d="M 3.890625 0 L 3.890625 -24.078125 L 0.34375 -24.078125 L 0.34375 -29.796875 L 13.390625 -29.796875 L 13.390625 -24.078125 L 9.84375 -24.078125 L 9.84375 0 Z M 3.890625 0 "/></g></g></g><g fill="#ff3131" fill-opacity="1"><g transform="translate(100.672533, 38.403013)"><g><path d="M 1.3125 -29.796875 L 9.40625 -29.796875 C 11.570312 -29.796875 13.144531 -29.265625 14.125 -28.203125 C 15.113281 -27.140625 15.609375 -25.40625 15.609375 -23 L 15.609375 -21.6875 C 15.609375 -18.832031 14.59375 -17.128906 12.5625 -16.578125 C 13.8125 -16.253906 14.6875 -15.503906 15.1875 -14.328125 C 15.695312 -13.148438 15.953125 -11.585938 15.953125 -9.640625 C 15.953125 -6.472656 15.476562 -4.070312 14.53125 -2.4375 C 13.582031 -0.8125 11.875 0 9.40625 0 L 1.3125 0 Z M 8.359375 -18.59375 C 8.867188 -18.59375 9.210938 -18.78125 9.390625 -19.15625 C 9.578125 -19.539062 9.671875 -20.082031 9.671875 -20.78125 L 9.671875 -23.765625 C 9.671875 -24.734375 9.242188 -25.21875 8.390625 -25.21875 L 7.140625 -25.21875 L 7.140625 -18.59375 Z M 7.734375 -5.234375 C 9.285156 -5.234375 10.0625 -5.972656 10.0625 -7.453125 L 10.0625 -11.171875 C 10.0625 -12.066406 9.925781 -12.742188 9.65625 -13.203125 C 9.394531 -13.671875 8.925781 -13.90625 8.25 -13.90625 L 7.140625 -13.90625 L 7.140625 -5.265625 Z M 7.734375 -5.234375 "/></g></g></g><g fill="#ff3131" fill-opacity="1"><g transform="translate(117.282057, 38.403013)"><g><path d="M 8.421875 0.28125 C 6.023438 0.28125 4.203125 -0.453125 2.953125 -1.921875 C 1.703125 -3.390625 1.078125 -5.453125 1.078125 -8.109375 L 1.078125 -22.296875 C 1.078125 -24.867188 1.703125 -26.804688 2.953125 -28.109375 C 4.203125 -29.421875 6.023438 -30.078125 8.421875 -30.078125 C 10.828125 -30.078125 12.65625 -29.421875 13.90625 -28.109375 C 15.15625 -26.804688 15.78125 -24.867188 15.78125 -22.296875 L 15.78125 -8.109375 C 15.78125 -5.429688 15.15625 -3.363281 13.90625 -1.90625 C 12.65625 -0.445312 10.828125 0.28125 8.421875 0.28125 Z M 8.421875 -5.203125 C 8.960938 -5.203125 9.320312 -5.429688 9.5 -5.890625 C 9.6875 -6.359375 9.78125 -7.007812 9.78125 -7.84375 L 9.78125 -22.40625 C 9.78125 -23.050781 9.691406 -23.578125 9.515625 -23.984375 C 9.347656 -24.390625 9 -24.59375 8.46875 -24.59375 C 7.46875 -24.59375 6.96875 -23.84375 6.96875 -22.34375 L 6.96875 -7.8125 C 6.96875 -6.945312 7.070312 -6.296875 7.28125 -5.859375 C 7.488281 -5.421875 7.867188 -5.203125 8.421875 -5.203125 Z M 8.421875 -5.203125 "/></g></g></g><g fill="#ff3131" fill-opacity="1"><g transform="translate(134.134306, 38.403013)"><g><path d="M 1.3125 0 L 1.3125 -29.796875 L 7.28125 -29.796875 L 7.28125 -5.0625 L 13.421875 -5.0625 L 13.421875 0 Z M 1.3125 0 "/></g></g></g><g fill="#ff3131" fill-opacity="1"><g transform="translate(147.900441, 38.403013)"><g><path d="M 1.3125 0 L 1.3125 -29.796875 L 13.25 -29.796875 L 13.25 -24.03125 L 7.390625 -24.03125 L 7.390625 -18.25 L 13.015625 -18.25 L 13.015625 -12.625 L 7.390625 -12.625 L 7.390625 -5.796875 L 13.625 -5.796875 L 13.625 0 Z M 1.3125 0 "/></g></g></g><g fill="#ff3131" fill-opacity="1"><g transform="translate(162.186713, 38.403013)"><g><path d="M 1.3125 -29.796875 L 10.46875 -29.796875 C 11.925781 -29.796875 13.050781 -29.460938 13.84375 -28.796875 C 14.644531 -28.140625 15.1875 -27.21875 15.46875 -26.03125 C 15.75 -24.84375 15.890625 -23.320312 15.890625 -21.46875 C 15.890625 -19.78125 15.664062 -18.460938 15.21875 -17.515625 C 14.78125 -16.566406 14.019531 -15.910156 12.9375 -15.546875 C 13.84375 -15.359375 14.492188 -14.90625 14.890625 -14.1875 C 15.296875 -13.46875 15.5 -12.5 15.5 -11.28125 L 15.4375 0 L 9.609375 0 L 9.609375 -11.65625 C 9.609375 -12.488281 9.445312 -13.019531 9.125 -13.25 C 8.800781 -13.476562 8.210938 -13.59375 7.359375 -13.59375 L 7.359375 0 L 1.3125 0 Z M 8.8125 -18.765625 C 9.644531 -18.765625 10.0625 -19.664062 10.0625 -21.46875 C 10.0625 -22.257812 10.023438 -22.847656 9.953125 -23.234375 C 9.878906 -23.628906 9.75 -23.898438 9.5625 -24.046875 C 9.382812 -24.203125 9.125 -24.28125 8.78125 -24.28125 L 7.390625 -24.28125 L 7.390625 -18.765625 Z M 8.8125 -18.765625 "/></g></g></g><g fill="#ff3131" fill-opacity="1"><g transform="translate(178.726897, 38.403013)"><g><path d="M 8.421875 0.28125 C 6.023438 0.28125 4.203125 -0.453125 2.953125 -1.921875 C 1.703125 -3.390625 1.078125 -5.453125 1.078125 -8.109375 L 1.078125 -22.296875 C 1.078125 -24.867188 1.703125 -26.804688 2.953125 -28.109375 C 4.203125 -29.421875 6.023438 -30.078125 8.421875 -30.078125 C 10.828125 -30.078125 12.65625 -29.421875 13.90625 -28.109375 C 15.15625 -26.804688 15.78125 -24.867188 15.78125 -22.296875 L 15.78125 -8.109375 C 15.78125 -5.429688 15.15625 -3.363281 13.90625 -1.90625 C 12.65625 -0.445312 10.828125 0.28125 8.421875 0.28125 Z M 8.421875 -5.203125 C 8.960938 -5.203125 9.320312 -5.429688 9.5 -5.890625 C 9.6875 -6.359375 9.78125 -7.007812 9.78125 -7.84375 L 9.78125 -22.40625 C 9.78125 -23.050781 9.691406 -23.578125 9.515625 -23.984375 C 9.347656 -24.390625 9 -24.59375 8.46875 -24.59375 C 7.46875 -24.59375 6.96875 -23.84375 6.96875 -22.34375 L 6.96875 -7.8125 C 6.96875 -6.945312 7.070312 -6.296875 7.28125 -5.859375 C 7.488281 -5.421875 7.867188 -5.203125 8.421875 -5.203125 Z M 8.421875 -5.203125 "/></g></g></g></svg>