<svg xmlns="http://www.w3.org/2000/svg" xmlns:xlink="http://www.w3.org/1999/xlink" width="262" zoomAndPan="magnify" viewBox="0 0 196.5 48.75" height="65" preserveAspectRatio="xMidYMid meet" version="1.0"><defs><g/><clipPath id="c94c54a222"><path d="M 0.253906 8 L 20 8 L 20 39 L 0.253906 39 Z M 0.253906 8 " clip-rule="nonzero"/></clipPath></defs><g clip-path="url(#c94c54a222)"><g fill="#ff3820" fill-opacity="1"><g transform="translate(2.677614, 38.020674)"><g><path d="M 4.796875 0.265625 C 2.160156 0.265625 0.410156 -0.382812 -0.453125 -1.6875 C -1.328125 -3 -1.425781 -5.109375 -0.75 -8.015625 L -0.109375 -10.859375 L 5.609375 -10.859375 L 4.765625 -7.234375 C 4.429688 -5.796875 4.722656 -5.078125 5.640625 -5.078125 C 6.160156 -5.078125 6.5625 -5.226562 6.84375 -5.53125 C 7.125 -5.832031 7.34375 -6.34375 7.5 -7.0625 C 7.726562 -8.007812 7.796875 -8.789062 7.703125 -9.40625 C 7.617188 -10.03125 7.453125 -10.550781 7.203125 -10.96875 C 6.953125 -11.382812 6.476562 -12.035156 5.78125 -12.921875 L 3.859375 -15.421875 C 2.367188 -17.316406 1.878906 -19.410156 2.390625 -21.703125 C 2.960938 -24.179688 3.96875 -26.066406 5.40625 -27.359375 C 6.851562 -28.660156 8.664062 -29.3125 10.84375 -29.3125 C 13.46875 -29.3125 15.195312 -28.617188 16.03125 -27.234375 C 16.863281 -25.847656 16.929688 -23.679688 16.234375 -20.734375 L 10.3125 -20.734375 L 10.75 -22.71875 C 10.84375 -23.101562 10.804688 -23.40625 10.640625 -23.625 C 10.484375 -23.851562 10.21875 -23.96875 9.84375 -23.96875 C 9.382812 -23.96875 9.007812 -23.84375 8.71875 -23.59375 C 8.425781 -23.351562 8.234375 -23.019531 8.140625 -22.59375 C 7.921875 -21.644531 8.238281 -20.660156 9.09375 -19.640625 L 11.734375 -16.40625 C 12.335938 -15.632812 12.816406 -14.90625 13.171875 -14.21875 C 13.535156 -13.53125 13.769531 -12.71875 13.875 -11.78125 C 13.976562 -10.84375 13.882812 -9.734375 13.59375 -8.453125 C 12.914062 -5.585938 11.882812 -3.414062 10.5 -1.9375 C 9.113281 -0.46875 7.210938 0.265625 4.796875 0.265625 Z M 4.796875 0.265625 "/></g></g></g></g><g fill="#ff3820" fill-opacity="1"><g transform="translate(18.264449, 38.020674)"><g><path d="M 4.828125 0.265625 C 2.484375 0.265625 0.867188 -0.445312 -0.015625 -1.875 C -0.910156 -3.3125 -1.050781 -5.320312 -0.4375 -7.90625 L 2.734375 -21.734375 C 3.316406 -24.242188 4.363281 -26.132812 5.875 -27.40625 C 7.382812 -28.675781 9.3125 -29.3125 11.65625 -29.3125 C 14 -29.3125 15.632812 -28.675781 16.5625 -27.40625 C 17.488281 -26.132812 17.660156 -24.242188 17.078125 -21.734375 L 13.890625 -7.90625 C 13.285156 -5.289062 12.207031 -3.273438 10.65625 -1.859375 C 9.113281 -0.441406 7.171875 0.265625 4.828125 0.265625 Z M 6.046875 -5.078125 C 6.566406 -5.078125 6.972656 -5.300781 7.265625 -5.75 C 7.554688 -6.195312 7.796875 -6.828125 7.984375 -7.640625 L 11.25 -21.84375 C 11.382812 -22.476562 11.414062 -22.988281 11.34375 -23.375 C 11.28125 -23.769531 10.992188 -23.96875 10.484375 -23.96875 C 9.515625 -23.96875 8.859375 -23.238281 8.515625 -21.78125 L 5.234375 -7.609375 C 5.035156 -6.773438 4.984375 -6.144531 5.078125 -5.71875 C 5.179688 -5.289062 5.503906 -5.078125 6.046875 -5.078125 Z M 6.046875 -5.078125 "/></g></g></g><g fill="#ff3820" fill-opacity="1"><g transform="translate(34.696559, 38.020674)"><g><path d="M 1.453125 0 L 3.65625 -9.5625 L 3.515625 -29.046875 L 9.265625 -29.046875 L 8.625 -19.203125 L 12.515625 -29.046875 L 18.265625 -29.046875 L 9.125 -9.5625 L 6.9375 0 Z M 1.453125 0 "/></g></g></g><g fill="#ff3820" fill-opacity="1"><g transform="translate(49.776229, 38.020674)"><g/></g></g><g fill="#000000" fill-opacity="1"><g transform="translate(57.69625, 38.020674)"><g><path d="M -2.03125 0 L 4.65625 -29.046875 L 16.296875 -29.046875 L 15.015625 -23.390625 L 9.234375 -23.390625 L 8.140625 -18.765625 L 13.625 -18.765625 L 12.34375 -13.1875 L 6.859375 -13.1875 L 3.8125 0 Z M -2.03125 0 "/></g></g></g><g fill="#000000" fill-opacity="1"><g transform="translate(71.186807, 38.020674)"><g><path d="M 4.65625 0.265625 C 2.269531 0.265625 0.65625 -0.40625 -0.1875 -1.75 C -1.03125 -3.101562 -1.148438 -5.113281 -0.546875 -7.78125 L 4.359375 -29.046875 L 10 -29.046875 L 5.140625 -8.015625 C 4.929688 -7.085938 4.851562 -6.363281 4.90625 -5.84375 C 4.96875 -5.332031 5.289062 -5.078125 5.875 -5.078125 C 6.46875 -5.078125 6.914062 -5.328125 7.21875 -5.828125 C 7.519531 -6.335938 7.773438 -7.066406 7.984375 -8.015625 L 12.84375 -29.046875 L 18.5 -29.046875 L 13.59375 -7.78125 C 12.976562 -5.113281 11.929688 -3.101562 10.453125 -1.75 C 8.984375 -0.40625 7.050781 0.265625 4.65625 0.265625 Z M 4.65625 0.265625 "/></g></g></g><g fill="#000000" fill-opacity="1"><g transform="translate(87.213175, 38.020674)"><g><path d="M 0.4375 0 L 5.84375 -23.46875 L 2.40625 -23.46875 L 3.6875 -29.046875 L 16.40625 -29.046875 L 15.109375 -23.46875 L 11.671875 -23.46875 L 6.25 0 Z M 0.4375 0 "/></g></g></g><g fill="#000000" fill-opacity="1"><g transform="translate(100.602296, 38.020674)"><g><path d="M 4.65625 -29.046875 L 12.546875 -29.046875 C 14.660156 -29.046875 16.078125 -28.523438 16.796875 -27.484375 C 17.523438 -26.453125 17.617188 -24.765625 17.078125 -22.421875 L 16.765625 -21.140625 C 16.140625 -18.359375 14.765625 -16.695312 12.640625 -16.15625 C 13.796875 -15.84375 14.484375 -15.109375 14.703125 -13.953125 C 14.929688 -12.804688 14.832031 -11.289062 14.40625 -9.40625 C 13.675781 -6.3125 12.671875 -3.96875 11.390625 -2.375 C 10.109375 -0.789062 8.257812 0 5.84375 0 L -2.03125 0 Z M 9.03125 -18.125 C 9.519531 -18.125 9.894531 -18.304688 10.15625 -18.671875 C 10.414062 -19.046875 10.625 -19.570312 10.78125 -20.25 L 11.453125 -23.15625 C 11.679688 -24.101562 11.378906 -24.578125 10.546875 -24.578125 L 9.328125 -24.578125 L 7.84375 -18.125 Z M 5.40625 -5.109375 C 6.914062 -5.109375 7.828125 -5.828125 8.140625 -7.265625 L 8.984375 -10.890625 C 9.191406 -11.765625 9.21875 -12.425781 9.0625 -12.875 C 8.90625 -13.332031 8.5 -13.5625 7.84375 -13.5625 L 6.765625 -13.5625 L 4.828125 -5.140625 Z M 5.40625 -5.109375 "/></g></g></g><g fill="#000000" fill-opacity="1"><g transform="translate(116.79772, 38.020674)"><g><path d="M 4.828125 0.265625 C 2.484375 0.265625 0.867188 -0.445312 -0.015625 -1.875 C -0.910156 -3.3125 -1.050781 -5.320312 -0.4375 -7.90625 L 2.734375 -21.734375 C 3.316406 -24.242188 4.363281 -26.132812 5.875 -27.40625 C 7.382812 -28.675781 9.3125 -29.3125 11.65625 -29.3125 C 14 -29.3125 15.632812 -28.675781 16.5625 -27.40625 C 17.488281 -26.132812 17.660156 -24.242188 17.078125 -21.734375 L 13.890625 -7.90625 C 13.285156 -5.289062 12.207031 -3.273438 10.65625 -1.859375 C 9.113281 -0.441406 7.171875 0.265625 4.828125 0.265625 Z M 6.046875 -5.078125 C 6.566406 -5.078125 6.972656 -5.300781 7.265625 -5.75 C 7.554688 -6.195312 7.796875 -6.828125 7.984375 -7.640625 L 11.25 -21.84375 C 11.382812 -22.476562 11.414062 -22.988281 11.34375 -23.375 C 11.28125 -23.769531 10.992188 -23.96875 10.484375 -23.96875 C 9.515625 -23.96875 8.859375 -23.238281 8.515625 -21.78125 L 5.234375 -7.609375 C 5.035156 -6.773438 4.984375 -6.144531 5.078125 -5.71875 C 5.179688 -5.289062 5.503906 -5.078125 6.046875 -5.078125 Z M 6.046875 -5.078125 "/></g></g></g><g fill="#000000" fill-opacity="1"><g transform="translate(133.22983, 38.020674)"><g><path d="M -2.03125 0 L 4.65625 -29.046875 L 10.484375 -29.046875 L 4.9375 -4.9375 L 10.921875 -4.9375 L 9.765625 0 Z M -2.03125 0 "/></g></g></g><g fill="#000000" fill-opacity="1"><g transform="translate(146.652766, 38.020674)"><g><path d="M -2.03125 0 L 4.65625 -29.046875 L 16.296875 -29.046875 L 15.015625 -23.4375 L 9.296875 -23.4375 L 7.984375 -17.78125 L 13.453125 -17.78125 L 12.203125 -12.3125 L 6.71875 -12.3125 L 5.171875 -5.640625 L 11.25 -5.640625 L 9.96875 0 Z M -2.03125 0 "/></g></g></g><g fill="#000000" fill-opacity="1"><g transform="translate(160.582867, 38.020674)"><g><path d="M 4.65625 -29.046875 L 13.59375 -29.046875 C 15.007812 -29.046875 16.03125 -28.722656 16.65625 -28.078125 C 17.289062 -27.441406 17.609375 -26.539062 17.609375 -25.375 C 17.609375 -24.21875 17.40625 -22.738281 17 -20.9375 C 16.625 -19.289062 16.113281 -18.003906 15.46875 -17.078125 C 14.820312 -16.148438 13.925781 -15.503906 12.78125 -15.140625 C 13.613281 -14.960938 14.144531 -14.523438 14.375 -13.828125 C 14.613281 -13.128906 14.597656 -12.179688 14.328125 -10.984375 L 11.734375 0 L 6.046875 0 L 8.65625 -11.359375 C 8.851562 -12.171875 8.816406 -12.6875 8.546875 -12.90625 C 8.273438 -13.132812 7.722656 -13.25 6.890625 -13.25 L 3.859375 0 L -2.03125 0 Z M 9.5 -18.296875 C 10.3125 -18.296875 10.921875 -19.175781 11.328125 -20.9375 C 11.503906 -21.695312 11.597656 -22.269531 11.609375 -22.65625 C 11.617188 -23.039062 11.550781 -23.304688 11.40625 -23.453125 C 11.257812 -23.597656 11.019531 -23.671875 10.6875 -23.671875 L 9.328125 -23.671875 L 8.109375 -18.296875 Z M 9.5 -18.296875 "/></g></g></g><g fill="#000000" fill-opacity="1"><g transform="translate(176.710672, 38.020674)"><g><path d="M 4.828125 0.265625 C 2.484375 0.265625 0.867188 -0.445312 -0.015625 -1.875 C -0.910156 -3.3125 -1.050781 -5.320312 -0.4375 -7.90625 L 2.734375 -21.734375 C 3.316406 -24.242188 4.363281 -26.132812 5.875 -27.40625 C 7.382812 -28.675781 9.3125 -29.3125 11.65625 -29.3125 C 14 -29.3125 15.632812 -28.675781 16.5625 -27.40625 C 17.488281 -26.132812 17.660156 -24.242188 17.078125 -21.734375 L 13.890625 -7.90625 C 13.285156 -5.289062 12.207031 -3.273438 10.65625 -1.859375 C 9.113281 -0.441406 7.171875 0.265625 4.828125 0.265625 Z M 6.046875 -5.078125 C 6.566406 -5.078125 6.972656 -5.300781 7.265625 -5.75 C 7.554688 -6.195312 7.796875 -6.828125 7.984375 -7.640625 L 11.25 -21.84375 C 11.382812 -22.476562 11.414062 -22.988281 11.34375 -23.375 C 11.28125 -23.769531 10.992188 -23.96875 10.484375 -23.96875 C 9.515625 -23.96875 8.859375 -23.238281 8.515625 -21.78125 L 5.234375 -7.609375 C 5.035156 -6.773438 4.984375 -6.144531 5.078125 -5.71875 C 5.179688 -5.289062 5.503906 -5.078125 6.046875 -5.078125 Z M 6.046875 -5.078125 "/></g></g></g></svg>