<svg xmlns="http://www.w3.org/2000/svg" xmlns:xlink="http://www.w3.org/1999/xlink" width="500" zoomAndPan="magnify" viewBox="0 0 375 374.999991" height="500" preserveAspectRatio="xMidYMid meet" version="1.0"><defs><g><g id="id1"/></g></defs><g fill="rgb(50.588989%, 75.289917%, 16.079712%)" fill-opacity="1"><g transform="translate(37.500002, 209.527596)"><g><path d="M 30.921875 -31.578125 L 17.5625 -31.578125 C 16.3125 -31.578125 15.425781 -31.375 14.90625 -30.96875 C 14.382812 -30.5625 14.050781 -29.769531 13.90625 -28.59375 L 13.015625 -22.109375 L 27.59375 -22.109375 L 26.765625 -16.125 L 12.1875 -16.125 L 9.921875 0 L 1.4375 0 L 5.703125 -30.640625 C 6.078125 -33.117188 7.054688 -35.03125 8.640625 -36.375 C 10.234375 -37.71875 12.300781 -38.390625 14.84375 -38.390625 C 22.71875 -38.390625 28.425781 -38.171875 31.96875 -37.734375 Z M 30.921875 -31.578125 "/></g></g></g><g fill="rgb(50.588989%, 75.289917%, 16.079712%)" fill-opacity="1"><g transform="translate(68.029139, 209.527596)"><g><path d="M 37.125 -38.234375 L 33.796875 -15.078125 C 32.953125 -9.234375 31.289062 -5.140625 28.8125 -2.796875 C 26.332031 -0.453125 22.4375 0.71875 17.125 0.71875 C 11.6875 0.71875 7.84375 -0.535156 5.59375 -3.046875 C 3.34375 -5.554688 2.601562 -9.675781 3.375 -15.40625 L 6.59375 -38.234375 L 15.078125 -38.234375 L 11.796875 -15.078125 C 11.285156 -11.597656 11.394531 -9.226562 12.125 -7.96875 C 12.863281 -6.71875 14.53125 -6.09375 17.125 -6.09375 C 19.78125 -6.09375 21.695312 -6.753906 22.875 -8.078125 C 24.0625 -9.410156 24.914062 -11.851562 25.4375 -15.40625 L 28.640625 -38.234375 Z M 37.125 -38.234375 "/></g></g></g><g fill="rgb(50.588989%, 75.289917%, 16.079712%)" fill-opacity="1"><g transform="translate(105.539529, 209.527596)"><g><path d="M 34.1875 -31.359375 L 22.765625 -31.359375 L 18.390625 0 L 9.921875 0 L 14.34375 -31.359375 L 2.984375 -31.359375 L 3.9375 -38.234375 L 35.125 -38.234375 Z M 34.1875 -31.359375 "/></g></g></g><g fill="rgb(50.588989%, 75.289917%, 16.079712%)" fill-opacity="1"><g transform="translate(138.451161, 209.527596)"><g><path d="M 28.59375 -7.140625 L 28.921875 -0.828125 C 25.597656 0.171875 21.535156 0.671875 16.734375 0.671875 C 10.828125 0.671875 6.8125 -0.890625 4.6875 -4.015625 C 2.5625 -7.140625 1.992188 -12.285156 2.984375 -19.453125 C 4.023438 -26.835938 5.875 -31.921875 8.53125 -34.703125 C 11.1875 -37.492188 15.472656 -38.890625 21.390625 -38.890625 C 25.640625 -38.890625 29.441406 -38.445312 32.796875 -37.5625 L 31.6875 -31.296875 C 28.695312 -31.484375 25.148438 -31.578125 21.046875 -31.578125 C 19.097656 -31.578125 17.566406 -31.265625 16.453125 -30.640625 C 15.347656 -30.015625 14.414062 -28.785156 13.65625 -26.953125 C 12.894531 -25.128906 12.273438 -22.40625 11.796875 -18.78125 C 11.128906 -14.019531 11.144531 -10.804688 11.84375 -9.140625 C 12.550781 -7.484375 14.273438 -6.65625 17.015625 -6.65625 C 21.410156 -6.613281 25.269531 -6.773438 28.59375 -7.140625 Z M 28.59375 -7.140625 "/></g></g></g><g fill="rgb(50.588989%, 75.289917%, 16.079712%)" fill-opacity="1"><g transform="translate(170.753322, 209.527596)"><g><path d="M 8.609375 -34.703125 C 11.328125 -37.535156 15.625 -38.953125 21.5 -38.953125 C 27.375 -38.953125 31.4375 -37.445312 33.6875 -34.4375 C 35.9375 -31.425781 36.546875 -26.207031 35.515625 -18.78125 C 34.515625 -11.320312 32.65625 -6.207031 29.9375 -3.4375 C 27.226562 -0.664062 22.957031 0.71875 17.125 0.71875 C 11.132812 0.71875 7.03125 -0.753906 4.8125 -3.703125 C 2.601562 -6.660156 1.992188 -11.910156 2.984375 -19.453125 C 4.023438 -26.796875 5.898438 -31.878906 8.609375 -34.703125 Z M 21.21875 -32.140625 C 18.257812 -32.140625 16.148438 -31.242188 14.890625 -29.453125 C 13.640625 -27.660156 12.628906 -24.101562 11.859375 -18.78125 C 11.148438 -13.789062 11.164062 -10.425781 11.90625 -8.6875 C 12.644531 -6.957031 14.4375 -6.09375 17.28125 -6.09375 C 20.195312 -6.09375 22.300781 -7.003906 23.59375 -8.828125 C 24.894531 -10.660156 25.929688 -14.203125 26.703125 -19.453125 C 27.441406 -24.503906 27.429688 -27.878906 26.671875 -29.578125 C 25.921875 -31.285156 24.101562 -32.140625 21.21875 -32.140625 Z M 21.21875 -32.140625 "/></g></g></g><g fill="rgb(50.588989%, 75.289917%, 16.079712%)" fill-opacity="1"><g transform="translate(208.429943, 209.527596)"><g><path d="M 15.234375 -38.234375 L 11.1875 -9.703125 C 11.082031 -8.734375 11.203125 -8.019531 11.546875 -7.5625 C 11.898438 -7.101562 12.613281 -6.875 13.6875 -6.875 L 26.765625 -6.875 L 26.59375 -0.390625 C 22.976562 -0.015625 17.625 0.171875 10.53125 0.171875 C 7.789062 0.171875 5.703125 -0.613281 4.265625 -2.1875 C 2.828125 -3.757812 2.3125 -5.910156 2.71875 -8.640625 L 6.765625 -38.234375 Z M 15.234375 -38.234375 "/></g></g></g><g fill="rgb(18.818665%, 18.818665%, 18.818665%)" fill-opacity="1"><g transform="translate(237.700359, 209.527596)"><g><path d="M 1.546875 0 L 6.921875 -38.234375 C 10.210938 -38.523438 14.847656 -38.671875 20.828125 -38.671875 C 25.742188 -38.671875 29.160156 -37.929688 31.078125 -36.453125 C 33.003906 -34.972656 33.707031 -32.28125 33.1875 -28.375 C 32.78125 -25.632812 31.984375 -23.597656 30.796875 -22.265625 C 29.617188 -20.941406 27.832031 -20.171875 25.4375 -19.953125 L 25.375 -19.609375 C 30.695312 -19.203125 32.875 -15.734375 31.90625 -9.203125 C 31.351562 -5.390625 30.0625 -2.828125 28.03125 -1.515625 C 26 -0.210938 22.65625 0.4375 18 0.4375 C 10.757812 0.4375 5.273438 0.289062 1.546875 0 Z M 13.015625 -22.65625 L 18.84375 -22.65625 C 20.945312 -22.65625 22.441406 -23.015625 23.328125 -23.734375 C 24.210938 -24.460938 24.785156 -25.84375 25.046875 -27.875 C 25.304688 -29.644531 25.117188 -30.816406 24.484375 -31.390625 C 23.859375 -31.960938 22.53125 -32.25 20.5 -32.25 L 14.34375 -32.25 Z M 10.640625 -5.984375 L 16.5625 -5.984375 C 19.039062 -5.984375 20.75 -6.34375 21.6875 -7.0625 C 22.632812 -7.78125 23.273438 -9.25 23.609375 -11.46875 C 23.898438 -13.644531 23.703125 -15.09375 23.015625 -15.8125 C 22.335938 -16.539062 20.867188 -16.921875 18.609375 -16.953125 L 12.1875 -16.953125 Z M 10.640625 -5.984375 "/></g></g></g><g fill="rgb(18.818665%, 18.818665%, 18.818665%)" fill-opacity="1"><g transform="translate(272.883669, 209.527596)"><g><path d="M 31.25 -31.578125 L 16.953125 -31.578125 C 15.878906 -31.578125 15.113281 -31.363281 14.65625 -30.9375 C 14.195312 -30.519531 13.890625 -29.738281 13.734375 -28.59375 L 12.90625 -22.828125 L 27.984375 -22.828125 L 27.203125 -16.84375 L 12.078125 -16.84375 L 11.078125 -9.46875 C 10.929688 -8.4375 11.050781 -7.707031 11.4375 -7.28125 C 11.820312 -6.863281 12.535156 -6.65625 13.578125 -6.65625 L 27.703125 -6.65625 L 27.484375 -0.390625 C 24.234375 -0.015625 18.710938 0.171875 10.921875 0.171875 C 7.816406 0.171875 5.539062 -0.648438 4.09375 -2.296875 C 2.65625 -3.941406 2.125 -6.1875 2.5 -9.03125 L 5.546875 -30.859375 C 5.878906 -33.222656 6.828125 -35.066406 8.390625 -36.390625 C 9.960938 -37.722656 12.0625 -38.390625 14.6875 -38.390625 C 22.738281 -38.390625 28.609375 -38.1875 32.296875 -37.78125 Z M 31.25 -31.578125 "/></g></g></g><g fill="rgb(18.818665%, 18.818665%, 18.818665%)" fill-opacity="1"><g transform="translate(304.576346, 209.527596)"><g><path d="M 34.1875 -31.359375 L 22.765625 -31.359375 L 18.390625 0 L 9.921875 0 L 14.34375 -31.359375 L 2.984375 -31.359375 L 3.9375 -38.234375 L 35.125 -38.234375 Z M 34.1875 -31.359375 "/></g></g></g></svg>