<svg xmlns="http://www.w3.org/2000/svg" xmlns:xlink="http://www.w3.org/1999/xlink" width="221" zoomAndPan="magnify" viewBox="0 0 165.75 44.999999" height="60" preserveAspectRatio="xMidYMid meet" version="1.0"><defs><g><g id="id1"/></g><clipPath id="id2"><path d="M 148 13 L 165.5 13 L 165.5 35 L 148 35 Z M 148 13 " clip-rule="nonzero"/></clipPath></defs><g fill="rgb(50.588989%, 75.289917%, 16.079712%)" fill-opacity="1"><g transform="translate(1.330317, 34.508776)"><g><path d="M 16.8125 -17.171875 L 9.546875 -17.171875 C 8.867188 -17.171875 8.390625 -17.0625 8.109375 -16.84375 C 7.828125 -16.625 7.644531 -16.191406 7.5625 -15.546875 L 7.078125 -12.015625 L 15 -12.015625 L 14.546875 -8.765625 L 6.625 -8.765625 L 5.390625 0 L 0.78125 0 L 3.109375 -16.65625 C 3.304688 -18 3.835938 -19.035156 4.703125 -19.765625 C 5.566406 -20.503906 6.691406 -20.875 8.078125 -20.875 C 12.347656 -20.875 15.445312 -20.753906 17.375 -20.515625 Z M 16.8125 -17.171875 "/></g></g></g><g fill="rgb(50.588989%, 75.289917%, 16.079712%)" fill-opacity="1"><g transform="translate(17.926909, 34.508776)"><g><path d="M 20.1875 -20.78125 L 18.375 -8.1875 C 17.914062 -5.019531 17.007812 -2.796875 15.65625 -1.515625 C 14.3125 -0.242188 12.195312 0.390625 9.3125 0.390625 C 6.351562 0.390625 4.257812 -0.289062 3.03125 -1.65625 C 1.8125 -3.019531 1.414062 -5.257812 1.84375 -8.375 L 3.578125 -20.78125 L 8.1875 -20.78125 L 6.421875 -8.1875 C 6.140625 -6.300781 6.195312 -5.015625 6.59375 -4.328125 C 7 -3.648438 7.90625 -3.3125 9.3125 -3.3125 C 10.757812 -3.3125 11.800781 -3.671875 12.4375 -4.390625 C 13.082031 -5.117188 13.546875 -6.445312 13.828125 -8.375 L 15.578125 -20.78125 Z M 20.1875 -20.78125 "/></g></g></g><g fill="rgb(50.588989%, 75.289917%, 16.079712%)" fill-opacity="1"><g transform="translate(38.318728, 34.508776)"><g><path d="M 18.59375 -17.046875 L 12.375 -17.046875 L 10 0 L 5.390625 0 L 7.796875 -17.046875 L 1.625 -17.046875 L 2.140625 -20.78125 L 19.09375 -20.78125 Z M 18.59375 -17.046875 "/></g></g></g><g fill="rgb(50.588989%, 75.289917%, 16.079712%)" fill-opacity="1"><g transform="translate(56.210518, 34.508776)"><g><path d="M 15.546875 -3.890625 L 15.71875 -0.453125 C 13.914062 0.0859375 11.707031 0.359375 9.09375 0.359375 C 5.882812 0.359375 3.703125 -0.488281 2.546875 -2.1875 C 1.390625 -3.882812 1.082031 -6.679688 1.625 -10.578125 C 2.1875 -14.585938 3.191406 -17.347656 4.640625 -18.859375 C 6.085938 -20.378906 8.414062 -21.140625 11.625 -21.140625 C 13.9375 -21.140625 16.003906 -20.898438 17.828125 -20.421875 L 17.234375 -17.015625 C 15.609375 -17.117188 13.679688 -17.171875 11.453125 -17.171875 C 10.378906 -17.171875 9.539062 -17 8.9375 -16.65625 C 8.34375 -16.3125 7.835938 -15.644531 7.421875 -14.65625 C 7.015625 -13.664062 6.679688 -12.1875 6.421875 -10.21875 C 6.054688 -7.625 6.0625 -5.875 6.4375 -4.96875 C 6.820312 -4.0625 7.757812 -3.609375 9.25 -3.609375 C 11.632812 -3.585938 13.734375 -3.679688 15.546875 -3.890625 Z M 15.546875 -3.890625 "/></g></g></g><g fill="rgb(50.588989%, 75.289917%, 16.079712%)" fill-opacity="1"><g transform="translate(73.770981, 34.508776)"><g><path d="M 4.6875 -18.859375 C 6.164062 -20.398438 8.5 -21.171875 11.6875 -21.171875 C 14.882812 -21.171875 17.09375 -20.351562 18.3125 -18.71875 C 19.539062 -17.082031 19.875 -14.25 19.3125 -10.21875 C 18.769531 -6.15625 17.757812 -3.367188 16.28125 -1.859375 C 14.800781 -0.359375 12.476562 0.390625 9.3125 0.390625 C 6.050781 0.390625 3.816406 -0.410156 2.609375 -2.015625 C 1.410156 -3.617188 1.082031 -6.472656 1.625 -10.578125 C 2.1875 -14.566406 3.207031 -17.328125 4.6875 -18.859375 Z M 11.53125 -17.46875 C 9.925781 -17.46875 8.78125 -16.976562 8.09375 -16 C 7.414062 -15.03125 6.867188 -13.101562 6.453125 -10.21875 C 6.066406 -7.5 6.070312 -5.664062 6.46875 -4.71875 C 6.875 -3.78125 7.851562 -3.3125 9.40625 -3.3125 C 10.988281 -3.3125 12.128906 -3.804688 12.828125 -4.796875 C 13.535156 -5.796875 14.097656 -7.722656 14.515625 -10.578125 C 14.921875 -13.328125 14.914062 -15.160156 14.5 -16.078125 C 14.09375 -17.003906 13.101562 -17.46875 11.53125 -17.46875 Z M 11.53125 -17.46875 "/></g></g></g><g fill="rgb(50.588989%, 75.289917%, 16.079712%)" fill-opacity="1"><g transform="translate(94.253167, 34.508776)"><g><path d="M 8.28125 -20.78125 L 6.078125 -5.265625 C 6.023438 -4.742188 6.09375 -4.359375 6.28125 -4.109375 C 6.46875 -3.859375 6.851562 -3.734375 7.4375 -3.734375 L 14.546875 -3.734375 L 14.453125 -0.203125 C 12.484375 -0.00390625 9.570312 0.09375 5.71875 0.09375 C 4.238281 0.09375 3.101562 -0.332031 2.3125 -1.1875 C 1.53125 -2.039062 1.25 -3.210938 1.46875 -4.703125 L 3.671875 -20.78125 Z M 8.28125 -20.78125 "/></g></g></g><g fill="rgb(18.818665%, 18.818665%, 18.818665%)" fill-opacity="1"><g transform="translate(110.165491, 34.508776)"><g><path d="M 0.84375 0 L 3.765625 -20.78125 C 5.554688 -20.945312 8.078125 -21.03125 11.328125 -21.03125 C 13.992188 -21.03125 15.847656 -20.628906 16.890625 -19.828125 C 17.941406 -19.023438 18.328125 -17.554688 18.046875 -15.421875 C 17.828125 -13.929688 17.394531 -12.828125 16.75 -12.109375 C 16.101562 -11.390625 15.128906 -10.96875 13.828125 -10.84375 L 13.796875 -10.671875 C 16.691406 -10.441406 17.878906 -8.550781 17.359375 -5 C 17.054688 -2.925781 16.351562 -1.535156 15.25 -0.828125 C 14.144531 -0.117188 12.328125 0.234375 9.796875 0.234375 C 5.859375 0.234375 2.875 0.15625 0.84375 0 Z M 7.078125 -12.328125 L 10.25 -12.328125 C 11.382812 -12.328125 12.191406 -12.519531 12.671875 -12.90625 C 13.160156 -13.300781 13.472656 -14.050781 13.609375 -15.15625 C 13.753906 -16.113281 13.65625 -16.75 13.3125 -17.0625 C 12.96875 -17.375 12.242188 -17.53125 11.140625 -17.53125 L 7.796875 -17.53125 Z M 5.78125 -3.25 L 9 -3.25 C 10.351562 -3.25 11.285156 -3.441406 11.796875 -3.828125 C 12.304688 -4.222656 12.648438 -5.023438 12.828125 -6.234375 C 12.992188 -7.421875 12.890625 -8.207031 12.515625 -8.59375 C 12.140625 -8.988281 11.34375 -9.195312 10.125 -9.21875 L 6.625 -9.21875 Z M 5.78125 -3.25 "/></g></g></g><g fill="rgb(18.818665%, 18.818665%, 18.818665%)" fill-opacity="1"><g transform="translate(129.292236, 34.508776)"><g><path d="M 16.984375 -17.171875 L 9.21875 -17.171875 C 8.632812 -17.171875 8.21875 -17.054688 7.96875 -16.828125 C 7.71875 -16.597656 7.550781 -16.171875 7.46875 -15.546875 L 7.015625 -12.40625 L 15.21875 -12.40625 L 14.796875 -9.15625 L 6.5625 -9.15625 L 6.03125 -5.15625 C 5.945312 -4.59375 6.007812 -4.191406 6.21875 -3.953125 C 6.425781 -3.722656 6.8125 -3.609375 7.375 -3.609375 L 15.0625 -3.609375 L 14.9375 -0.203125 C 13.175781 -0.00390625 10.175781 0.09375 5.9375 0.09375 C 4.25 0.09375 3.007812 -0.351562 2.21875 -1.25 C 1.4375 -2.144531 1.148438 -3.363281 1.359375 -4.90625 L 3.015625 -16.78125 C 3.191406 -18.0625 3.707031 -19.0625 4.5625 -19.78125 C 5.414062 -20.507812 6.554688 -20.875 7.984375 -20.875 C 12.359375 -20.875 15.550781 -20.765625 17.5625 -20.546875 Z M 16.984375 -17.171875 "/></g></g></g><g clip-path="url(#id2)"><g fill="rgb(18.818665%, 18.818665%, 18.818665%)" fill-opacity="1"><g transform="translate(146.521364, 34.508776)"><g><path d="M 18.59375 -17.046875 L 12.375 -17.046875 L 10 0 L 5.390625 0 L 7.796875 -17.046875 L 1.625 -17.046875 L 2.140625 -20.78125 L 19.09375 -20.78125 Z M 18.59375 -17.046875 "/></g></g></g></g></svg>