<svg xmlns="http://www.w3.org/2000/svg" xmlns:xlink="http://www.w3.org/1999/xlink" width="620" zoomAndPan="magnify" viewBox="0 0 464.87997 209.999996" height="280" preserveAspectRatio="xMidYMid meet" version="1.0"><defs><g><g id="id1"/><g id="id2"/></g><clipPath id="id3"><path d="M 0 0.0273438 L 464.761719 0.0273438 L 464.761719 209.972656 L 0 209.972656 Z M 0 0.0273438 " clip-rule="nonzero"/></clipPath></defs><g clip-path="url(#id3)"><path fill="rgb(100%, 100%, 100%)" d="M 0 0.0273438 L 464.878906 0.0273438 L 464.878906 217.472656 L 0 217.472656 Z M 0 0.0273438 " fill-opacity="1" fill-rule="nonzero"/><path fill="rgb(100%, 100%, 100%)" d="M 0 0.0273438 L 464.878906 0.0273438 L 464.878906 209.972656 L 0 209.972656 Z M 0 0.0273438 " fill-opacity="1" fill-rule="nonzero"/><path fill="rgb(100%, 100%, 100%)" d="M 0 0.0273438 L 464.878906 0.0273438 L 464.878906 209.972656 L 0 209.972656 Z M 0 0.0273438 " fill-opacity="1" fill-rule="nonzero"/></g><path fill="rgb(18.818665%, 18.818665%, 18.818665%)" d="M 234.074219 10.410156 L 241.640625 34.238281 C 241.824219 34.785156 242.308594 35.085938 242.851562 35.085938 L 269.613281 34.90625 C 270.824219 34.90625 271.308594 36.421875 270.339844 37.148438 L 248.542969 52.730469 C 248.121094 53.035156 247.9375 53.640625 248.121094 54.125 L 256.597656 79.53125 C 256.960938 80.683594 255.6875 81.652344 254.71875 80.925781 L 233.410156 65.34375 C 232.742188 64.855469 231.957031 64.855469 231.289062 65.34375 L 210.039062 80.984375 C 209.070312 81.714844 207.738281 80.742188 208.160156 79.589844 L 216.636719 54.1875 C 216.820312 53.699219 216.636719 53.09375 216.214844 52.792969 L 194.417969 37.207031 C 193.449219 36.480469 193.933594 34.964844 195.144531 34.964844 L 221.90625 35.148438 C 222.449219 35.148438 222.933594 34.785156 223.117188 34.296875 L 230.625 10.410156 C 231.230469 8.652344 233.53125 8.652344 234.074219 10.410156 Z M 234.074219 10.410156 " fill-opacity="1" fill-rule="nonzero"/><g fill="rgb(18.818665%, 18.818665%, 18.818665%)" fill-opacity="1"><g transform="translate(4.725229, 147.825035)"><g><path d="M 3.96875 0 L 3.96875 -45.703125 C 8.300781 -46.140625 14.441406 -46.359375 22.390625 -46.359375 C 29.273438 -46.359375 33.988281 -45.296875 36.53125 -43.171875 C 39.070312 -41.054688 40.34375 -37.019531 40.34375 -31.0625 C 40.34375 -25.1875 39.160156 -21.175781 36.796875 -19.03125 C 34.429688 -16.894531 30.203125 -15.828125 24.109375 -15.828125 C 21.859375 -15.828125 19.296875 -15.984375 16.421875 -16.296875 L 16.421875 0 Z M 16.421875 -24.90625 L 22.125 -24.90625 C 24.375 -24.90625 25.894531 -25.320312 26.6875 -26.15625 C 27.488281 -27 27.890625 -28.632812 27.890625 -31.0625 C 27.890625 -33.53125 27.488281 -35.1875 26.6875 -36.03125 C 25.894531 -36.875 24.375 -37.296875 22.125 -37.296875 L 16.421875 -37.296875 Z M 16.421875 -24.90625 "/></g></g></g><g fill="rgb(18.818665%, 18.818665%, 18.818665%)" fill-opacity="1"><g transform="translate(46.914454, 147.825035)"><g><path d="M 42.453125 0 L 29.40625 0 L 26.15625 -13.78125 C 25.851562 -15.101562 25.378906 -16.003906 24.734375 -16.484375 C 24.097656 -16.972656 23.140625 -17.21875 21.859375 -17.21875 L 16.234375 -17.21875 L 16.234375 0 L 3.96875 0 L 3.96875 -45.703125 C 8.300781 -46.140625 14.460938 -46.359375 22.453125 -46.359375 C 29.035156 -46.359375 33.71875 -45.351562 36.5 -43.34375 C 39.28125 -41.34375 40.671875 -37.757812 40.671875 -32.59375 C 40.671875 -25.875 37.664062 -22.1875 31.65625 -21.53125 L 31.65625 -21.125 C 35.5 -20.507812 37.84375 -18.171875 38.6875 -14.109375 Z M 16.234375 -26.296875 L 22.1875 -26.296875 C 24.53125 -26.296875 26.109375 -26.671875 26.921875 -27.421875 C 27.742188 -28.171875 28.15625 -29.625 28.15625 -31.78125 C 28.15625 -33.945312 27.742188 -35.40625 26.921875 -36.15625 C 26.109375 -36.914062 24.53125 -37.296875 22.1875 -37.296875 L 16.234375 -37.296875 Z M 16.234375 -26.296875 "/></g></g></g><g fill="rgb(18.818665%, 18.818665%, 18.818665%)" fill-opacity="1"><g transform="translate(91.024367, 147.825035)"><g><path d="M 23.046875 -46.625 C 28.253906 -46.625 32.289062 -45.925781 35.15625 -44.53125 C 38.03125 -43.144531 40.148438 -40.738281 41.515625 -37.3125 C 42.890625 -33.894531 43.578125 -29.070312 43.578125 -22.84375 C 43.578125 -16.625 42.890625 -11.800781 41.515625 -8.375 C 40.148438 -4.957031 38.03125 -2.550781 35.15625 -1.15625 C 32.289062 0.226562 28.253906 0.921875 23.046875 0.921875 C 15.367188 0.921875 10.035156 -0.742188 7.046875 -4.078125 C 4.066406 -7.410156 2.578125 -13.664062 2.578125 -22.84375 C 2.578125 -32.03125 4.066406 -38.289062 7.046875 -41.625 C 10.035156 -44.957031 15.367188 -46.625 23.046875 -46.625 Z M 28.9375 -34.171875 C 27.925781 -36.117188 25.960938 -37.09375 23.046875 -37.09375 C 20.128906 -37.09375 18.160156 -36.117188 17.140625 -34.171875 C 16.128906 -32.234375 15.625 -28.457031 15.625 -22.84375 C 15.625 -17.238281 16.128906 -13.460938 17.140625 -11.515625 C 18.160156 -9.578125 20.128906 -8.609375 23.046875 -8.609375 C 25.960938 -8.609375 27.925781 -9.578125 28.9375 -11.515625 C 29.957031 -13.460938 30.46875 -17.238281 30.46875 -22.84375 C 30.46875 -28.457031 29.957031 -32.234375 28.9375 -34.171875 Z M 28.9375 -34.171875 "/></g></g></g><g fill="rgb(18.818665%, 18.818665%, 18.818665%)" fill-opacity="1"><g transform="translate(137.518591, 147.825035)"><g><path d="M 44.4375 -45.703125 L 44.4375 -4.375 C 44.4375 -1.457031 43.003906 0 40.140625 0 L 34.25 0 C 33.050781 0 32.117188 -0.273438 31.453125 -0.828125 C 30.796875 -1.378906 30.113281 -2.316406 29.40625 -3.640625 L 18.546875 -23.25 C 17.347656 -25.5 16.351562 -27.992188 15.5625 -30.734375 L 15.03125 -30.734375 C 15.382812 -27.992188 15.5625 -25.390625 15.5625 -22.921875 L 15.5625 0 L 3.96875 0 L 3.96875 -41.328125 C 3.96875 -44.242188 5.425781 -45.703125 8.34375 -45.703125 L 14.171875 -45.703125 C 15.367188 -45.703125 16.285156 -45.425781 16.921875 -44.875 C 17.566406 -44.320312 18.265625 -43.382812 19.015625 -42.0625 L 29.46875 -23.1875 C 30.570312 -21.195312 31.722656 -18.65625 32.921875 -15.5625 L 33.453125 -15.5625 C 33.140625 -18.613281 32.960938 -21.285156 32.921875 -23.578125 L 32.921875 -45.703125 Z M 44.4375 -45.703125 "/></g></g></g><g fill="rgb(18.818665%, 18.818665%, 18.818665%)" fill-opacity="1"><g transform="translate(186.264677, 147.825035)"><g><path d="M 23.046875 -46.625 C 28.253906 -46.625 32.289062 -45.925781 35.15625 -44.53125 C 38.03125 -43.144531 40.148438 -40.738281 41.515625 -37.3125 C 42.890625 -33.894531 43.578125 -29.070312 43.578125 -22.84375 C 43.578125 -16.625 42.890625 -11.800781 41.515625 -8.375 C 40.148438 -4.957031 38.03125 -2.550781 35.15625 -1.15625 C 32.289062 0.226562 28.253906 0.921875 23.046875 0.921875 C 15.367188 0.921875 10.035156 -0.742188 7.046875 -4.078125 C 4.066406 -7.410156 2.578125 -13.664062 2.578125 -22.84375 C 2.578125 -32.03125 4.066406 -38.289062 7.046875 -41.625 C 10.035156 -44.957031 15.367188 -46.625 23.046875 -46.625 Z M 28.9375 -34.171875 C 27.925781 -36.117188 25.960938 -37.09375 23.046875 -37.09375 C 20.128906 -37.09375 18.160156 -36.117188 17.140625 -34.171875 C 16.128906 -32.234375 15.625 -28.457031 15.625 -22.84375 C 15.625 -17.238281 16.128906 -13.460938 17.140625 -11.515625 C 18.160156 -9.578125 20.128906 -8.609375 23.046875 -8.609375 C 25.960938 -8.609375 27.925781 -9.578125 28.9375 -11.515625 C 29.957031 -13.460938 30.46875 -17.238281 30.46875 -22.84375 C 30.46875 -28.457031 29.957031 -32.234375 28.9375 -34.171875 Z M 28.9375 -34.171875 "/></g></g></g><g fill="rgb(18.818665%, 18.818665%, 18.818665%)" fill-opacity="1"><g transform="translate(232.758911, 147.825035)"><g><path d="M 21.390625 -16.296875 L 12.25 -19.9375 C 8.675781 -21.394531 6.140625 -23.171875 4.640625 -25.265625 C 3.140625 -27.367188 2.390625 -30.117188 2.390625 -33.515625 C 2.390625 -38.640625 3.691406 -42.09375 6.296875 -43.875 C 8.898438 -45.664062 13.535156 -46.5625 20.203125 -46.5625 C 26.609375 -46.5625 31.90625 -45.878906 36.09375 -44.515625 L 35.296875 -36.359375 C 27.484375 -36.492188 22.40625 -36.5625 20.0625 -36.5625 C 17.945312 -36.5625 16.523438 -36.382812 15.796875 -36.03125 C 15.066406 -35.675781 14.703125 -34.90625 14.703125 -33.71875 C 14.703125 -32.695312 15.007812 -31.910156 15.625 -31.359375 C 16.25 -30.804688 17.398438 -30.242188 19.078125 -29.671875 L 27.484375 -26.421875 C 31.148438 -24.960938 33.734375 -23.175781 35.234375 -21.0625 C 36.734375 -18.945312 37.484375 -16.164062 37.484375 -12.71875 C 37.484375 -7.550781 36.191406 -3.992188 33.609375 -2.046875 C 31.023438 -0.109375 26.359375 0.859375 19.609375 0.859375 C 13.773438 0.859375 8.1875 0.195312 2.84375 -1.125 L 3.578125 -9.9375 C 12.628906 -9.71875 17.953125 -9.609375 19.546875 -9.609375 C 21.742188 -9.609375 23.207031 -9.796875 23.9375 -10.171875 C 24.664062 -10.546875 25.03125 -11.304688 25.03125 -12.453125 C 25.03125 -13.515625 24.773438 -14.285156 24.265625 -14.765625 C 23.765625 -15.253906 22.804688 -15.765625 21.390625 -16.296875 Z M 21.390625 -16.296875 "/></g></g></g><g fill="rgb(18.818665%, 18.818665%, 18.818665%)" fill-opacity="1"><g transform="translate(272.63003, 147.825035)"><g><path d="M 39.671875 -36.09375 L 26.5 -36.09375 L 26.5 0 L 14.046875 0 L 14.046875 -36.09375 L 0.921875 -36.09375 L 0.921875 -45.703125 L 39.671875 -45.703125 Z M 39.671875 -36.09375 "/></g></g></g><g fill="rgb(18.818665%, 18.818665%, 18.818665%)" fill-opacity="1"><g transform="translate(313.560865, 147.825035)"><g><path d="M 16.359375 0 L 4.046875 0 L 4.046875 -45.703125 L 16.359375 -45.703125 Z M 16.359375 0 "/></g></g></g><g fill="rgb(18.818665%, 18.818665%, 18.818665%)" fill-opacity="1"><g transform="translate(334.291222, 147.825035)"><g><path d="M 37.03125 -10.328125 L 38.015625 -1.265625 C 34.046875 0.109375 28.898438 0.796875 22.578125 0.796875 C 15.253906 0.796875 10.085938 -0.96875 7.078125 -4.5 C 4.078125 -8.03125 2.578125 -14.144531 2.578125 -22.84375 C 2.578125 -31.550781 4.078125 -37.671875 7.078125 -41.203125 C 10.085938 -44.734375 15.253906 -46.5 22.578125 -46.5 C 28.148438 -46.5 32.96875 -45.945312 37.03125 -44.84375 L 36.09375 -35.703125 C 31.59375 -35.835938 27.085938 -35.90625 22.578125 -35.90625 C 19.847656 -35.90625 18.003906 -35.007812 17.046875 -33.21875 C 16.097656 -31.425781 15.625 -27.96875 15.625 -22.84375 C 15.625 -17.726562 16.097656 -14.273438 17.046875 -12.484375 C 18.003906 -10.691406 19.847656 -9.796875 22.578125 -9.796875 C 28.984375 -9.796875 33.800781 -9.972656 37.03125 -10.328125 Z M 37.03125 -10.328125 "/></g></g></g><g fill="rgb(18.818665%, 18.818665%, 18.818665%)" fill-opacity="1"><g transform="translate(374.096107, 147.825035)"><g><path d="M 23.046875 -46.625 C 28.253906 -46.625 32.289062 -45.925781 35.15625 -44.53125 C 38.03125 -43.144531 40.148438 -40.738281 41.515625 -37.3125 C 42.890625 -33.894531 43.578125 -29.070312 43.578125 -22.84375 C 43.578125 -16.625 42.890625 -11.800781 41.515625 -8.375 C 40.148438 -4.957031 38.03125 -2.550781 35.15625 -1.15625 C 32.289062 0.226562 28.253906 0.921875 23.046875 0.921875 C 15.367188 0.921875 10.035156 -0.742188 7.046875 -4.078125 C 4.066406 -7.410156 2.578125 -13.664062 2.578125 -22.84375 C 2.578125 -32.03125 4.066406 -38.289062 7.046875 -41.625 C 10.035156 -44.957031 15.367188 -46.625 23.046875 -46.625 Z M 28.9375 -34.171875 C 27.925781 -36.117188 25.960938 -37.09375 23.046875 -37.09375 C 20.128906 -37.09375 18.160156 -36.117188 17.140625 -34.171875 C 16.128906 -32.234375 15.625 -28.457031 15.625 -22.84375 C 15.625 -17.238281 16.128906 -13.460938 17.140625 -11.515625 C 18.160156 -9.578125 20.128906 -8.609375 23.046875 -8.609375 C 25.960938 -8.609375 27.925781 -9.578125 28.9375 -11.515625 C 29.957031 -13.460938 30.46875 -17.238281 30.46875 -22.84375 C 30.46875 -28.457031 29.957031 -32.234375 28.9375 -34.171875 Z M 28.9375 -34.171875 "/></g></g></g><g fill="rgb(18.818665%, 18.818665%, 18.818665%)" fill-opacity="1"><g transform="translate(420.590341, 147.825035)"><g><path d="M 21.390625 -16.296875 L 12.25 -19.9375 C 8.675781 -21.394531 6.140625 -23.171875 4.640625 -25.265625 C 3.140625 -27.367188 2.390625 -30.117188 2.390625 -33.515625 C 2.390625 -38.640625 3.691406 -42.09375 6.296875 -43.875 C 8.898438 -45.664062 13.535156 -46.5625 20.203125 -46.5625 C 26.609375 -46.5625 31.90625 -45.878906 36.09375 -44.515625 L 35.296875 -36.359375 C 27.484375 -36.492188 22.40625 -36.5625 20.0625 -36.5625 C 17.945312 -36.5625 16.523438 -36.382812 15.796875 -36.03125 C 15.066406 -35.675781 14.703125 -34.90625 14.703125 -33.71875 C 14.703125 -32.695312 15.007812 -31.910156 15.625 -31.359375 C 16.25 -30.804688 17.398438 -30.242188 19.078125 -29.671875 L 27.484375 -26.421875 C 31.148438 -24.960938 33.734375 -23.175781 35.234375 -21.0625 C 36.734375 -18.945312 37.484375 -16.164062 37.484375 -12.71875 C 37.484375 -7.550781 36.191406 -3.992188 33.609375 -2.046875 C 31.023438 -0.109375 26.359375 0.859375 19.609375 0.859375 C 13.773438 0.859375 8.1875 0.195312 2.84375 -1.125 L 3.578125 -9.9375 C 12.628906 -9.71875 17.953125 -9.609375 19.546875 -9.609375 C 21.742188 -9.609375 23.207031 -9.796875 23.9375 -10.171875 C 24.664062 -10.546875 25.03125 -11.304688 25.03125 -12.453125 C 25.03125 -13.515625 24.773438 -14.285156 24.265625 -14.765625 C 23.765625 -15.253906 22.804688 -15.765625 21.390625 -16.296875 Z M 21.390625 -16.296875 "/></g></g></g><g fill="rgb(50.588989%, 75.289917%, 16.079712%)" fill-opacity="1"><g transform="translate(152.237819, 198.815892)"><g><path d="M 21.859375 -20.96875 L 12.8125 -20.96875 C 12.039062 -20.96875 11.492188 -20.847656 11.171875 -20.609375 C 10.859375 -20.367188 10.648438 -19.898438 10.546875 -19.203125 L 10.046875 -15.53125 L 19.671875 -15.53125 L 19.015625 -10.65625 L 9.359375 -10.65625 L 7.859375 0 L 0.65625 0 L 3.5625 -20.96875 C 3.820312 -22.738281 4.53125 -24.113281 5.6875 -25.09375 C 6.851562 -26.082031 8.332031 -26.578125 10.125 -26.578125 C 16.175781 -26.578125 20.351562 -26.410156 22.65625 -26.078125 Z M 21.859375 -20.96875 "/></g></g></g><g fill="rgb(50.588989%, 75.289917%, 16.079712%)" fill-opacity="1"><g transform="translate(177.546367, 198.815892)"><g><path d="M 26.53125 -26.453125 L 24.234375 -10.625 C 23.640625 -6.457031 22.460938 -3.554688 20.703125 -1.921875 C 18.941406 -0.285156 16.078125 0.53125 12.109375 0.53125 C 8.148438 0.53125 5.335938 -0.359375 3.671875 -2.140625 C 2.015625 -3.929688 1.457031 -6.847656 2 -10.890625 L 4.21875 -26.453125 L 11.421875 -26.453125 L 9.171875 -10.625 C 8.835938 -8.425781 8.875 -6.9375 9.28125 -6.15625 C 9.6875 -5.375 10.671875 -4.984375 12.234375 -4.984375 C 13.835938 -4.984375 14.957031 -5.390625 15.59375 -6.203125 C 16.238281 -7.023438 16.738281 -8.585938 17.09375 -10.890625 L 19.328125 -26.453125 Z M 26.53125 -26.453125 "/></g></g></g><g fill="rgb(50.588989%, 75.289917%, 16.079712%)" fill-opacity="1"><g transform="translate(207.839799, 198.815892)"><g><path d="M 24.15625 -20.890625 L 16.609375 -20.890625 L 13.65625 0 L 6.4375 0 L 9.390625 -20.890625 L 1.84375 -20.890625 L 2.609375 -26.453125 L 24.921875 -26.453125 Z M 24.15625 -20.890625 "/></g></g></g><g fill="rgb(50.588989%, 75.289917%, 16.079712%)" fill-opacity="1"><g transform="translate(234.950571, 198.815892)"><g><path d="M 20.40625 -5.984375 L 20.671875 -0.6875 C 18.191406 0.0703125 15.238281 0.453125 11.8125 0.453125 C 7.519531 0.453125 4.597656 -0.601562 3.046875 -2.71875 C 1.503906 -4.84375 1.085938 -8.4375 1.796875 -13.5 C 2.515625 -18.6875 3.804688 -22.21875 5.671875 -24.09375 C 7.535156 -25.976562 10.617188 -26.921875 14.921875 -26.921875 C 18.109375 -26.921875 20.878906 -26.585938 23.234375 -25.921875 L 22.390625 -20.671875 C 19.703125 -20.742188 17.097656 -20.78125 14.578125 -20.78125 C 13.421875 -20.78125 12.539062 -20.597656 11.9375 -20.234375 C 11.34375 -19.878906 10.832031 -19.144531 10.40625 -18.03125 C 9.988281 -16.925781 9.625 -15.234375 9.3125 -12.953125 C 8.882812 -10.046875 8.84375 -8.101562 9.1875 -7.125 C 9.53125 -6.15625 10.503906 -5.671875 12.109375 -5.671875 C 15.484375 -5.671875 18.25 -5.773438 20.40625 -5.984375 Z M 20.40625 -5.984375 "/></g></g></g><g fill="rgb(50.588989%, 75.289917%, 16.079712%)" fill-opacity="1"><g transform="translate(261.562866, 198.815892)"><g><path d="M 14.875 -27 C 19.21875 -27 22.21875 -25.96875 23.875 -23.90625 C 25.539062 -21.851562 26.019531 -18.203125 25.3125 -12.953125 C 24.945312 -10.273438 24.4375 -8.066406 23.78125 -6.328125 C 23.132812 -4.585938 22.269531 -3.207031 21.1875 -2.1875 C 20.101562 -1.164062 18.847656 -0.457031 17.421875 -0.0625 C 16.003906 0.332031 14.234375 0.53125 12.109375 0.53125 C 7.691406 0.53125 4.691406 -0.484375 3.109375 -2.515625 C 1.523438 -4.546875 1.085938 -8.207031 1.796875 -13.5 C 2.515625 -18.6875 3.832031 -22.234375 5.75 -24.140625 C 7.664062 -26.046875 10.707031 -27 14.875 -27 Z M 14.765625 -21.46875 C 13.078125 -21.46875 11.878906 -20.910156 11.171875 -19.796875 C 10.472656 -18.691406 9.851562 -16.410156 9.3125 -12.953125 C 8.851562 -9.734375 8.820312 -7.597656 9.21875 -6.546875 C 9.613281 -5.503906 10.628906 -4.984375 12.265625 -4.984375 C 13.984375 -4.984375 15.195312 -5.539062 15.90625 -6.65625 C 16.625 -7.769531 17.238281 -10.050781 17.75 -13.5 C 18.207031 -16.769531 18.238281 -18.914062 17.84375 -19.9375 C 17.445312 -20.957031 16.421875 -21.46875 14.765625 -21.46875 Z M 14.765625 -21.46875 "/></g></g></g><g fill="rgb(50.588989%, 75.289917%, 16.079712%)" fill-opacity="1"><g transform="translate(291.894647, 198.815892)"><g><path d="M 11.546875 -26.453125 L 8.78125 -7.484375 C 8.726562 -6.867188 8.8125 -6.425781 9.03125 -6.15625 C 9.25 -5.882812 9.675781 -5.75 10.3125 -5.75 L 19.203125 -5.75 L 19.0625 -0.3125 C 16.757812 -0.03125 12.769531 0.109375 7.09375 0.109375 C 5.195312 0.109375 3.722656 -0.453125 2.671875 -1.578125 C 1.628906 -2.703125 1.238281 -4.179688 1.5 -6.015625 L 4.328125 -26.453125 Z M 11.546875 -26.453125 "/></g></g></g></svg>